<svg xmlns="http://www.w3.org/2000/svg" viewBox="0 0 985.715 80.475">
  <defs>
    <style>
      .cls-1, .cls-3, .cls-4 {
        fill: #fff;
      }

      .cls-2, .cls-6, .cls-8 {
        fill: none;
      }

      .cls-2 {
        stroke: #fff;
        stroke-width: 2.5px;
      }

      .cls-3 {
        stroke: rgba(0,0,0,0);
      }

      .cls-4 {
        font-size: 36px;
        font-family: Roboto-BlackItalic, Roboto;
        font-weight: 800;
        font-style: italic;
      }

      .cls-5 {
        fill: #e5ebf1;
        font-size: 24px;
        font-family: Roboto-Regular, Roboto;
      }

      .cls-6 {
        stroke: #707070;
        stroke-width: 2px;
      }

      .cls-7 {
        stroke: none;
      }
    </style>
  </defs>
  <g id="Group_2" data-name="Group 2" transform="translate(-212 -192)">
    <g id="IV_Logo" transform="translate(80 -19)">
      <rect id="Rectangle_1" data-name="Rectangle 1" class="cls-1" width="23" height="79" transform="translate(132 212)"/>
      <path id="Path_1" data-name="Path 1" class="cls-1" d="M165.82,118H191.1l13.414,55.783L219.648,118h25.27l-25.27,79.475H191.1Z" transform="translate(0 94)"/>
      <g id="Group_1" data-name="Group 1" transform="translate(-14 50)">
        <g id="Ellipse_1" data-name="Ellipse 1" class="cls-2" transform="translate(259 162)">
          <circle class="cls-7" cx="15.5" cy="15.5" r="15.5"/>
          <circle class="cls-8" cx="15.5" cy="15.5" r="14.25"/>
        </g>
        <path id="Path_2" data-name="Path 2" class="cls-3" d="M5.424-9.384v-4.824H9.552a2.892,2.892,0,0,1,1.944.564,2.284,2.284,0,0,1,.648,1.812A2.391,2.391,0,0,1,11.5-9.96a2.85,2.85,0,0,1-1.944.576ZM1.656-17.136V0H5.424V-6.7H9.192a2.8,2.8,0,0,1,2.04.624A3.4,3.4,0,0,1,12.048-4.1q.144,1.032.216,2.16A6.644,6.644,0,0,0,12.648,0h3.768a2.522,2.522,0,0,1-.4-.876,7.567,7.567,0,0,1-.192-1.092q-.06-.576-.084-1.128t-.048-.96a10.3,10.3,0,0,0-.18-1.3A4.358,4.358,0,0,0,15.1-6.54a3.26,3.26,0,0,0-.744-.936A2.906,2.906,0,0,0,13.2-8.064v-.048a4,4,0,0,0,2.076-1.68,5.152,5.152,0,0,0,.636-2.616,4.808,4.808,0,0,0-.348-1.836,4.428,4.428,0,0,0-1.008-1.5,4.778,4.778,0,0,0-1.584-1.02,5.516,5.516,0,0,0-2.076-.372Z" transform="translate(266 187)"/>
      </g>
    </g>
    <path id="Path_2-2" data-name="Path 2" class="cls-1" d="M12.53-7.833H5.738L4.964-3.428H13L12.4,0H.025l3.2-18.484h12.4l-.6,3.44H6.982l-.686,3.9h6.8Zm7.744-5.916-.292,1.65A4.883,4.883,0,0,1,23.956-14a3.279,3.279,0,0,1,2.837,1.416,5.925,5.925,0,0,1,.679,3.942L26.025,0H21.836L23.3-8.671a4.478,4.478,0,0,0,.025-.812q-.089-1.206-1.422-1.206a2.611,2.611,0,0,0-2.019.978L18.167,0H13.99l2.387-13.736Zm15.983-3.4-.6,3.415h2.2l-.521,2.971h-2.2l-1.066,6.31a1.682,1.682,0,0,0,.083.978q.171.33.857.355a9.928,9.928,0,0,0,1.092-.063l-.3,3.1a6.75,6.75,0,0,1-2.247.317A3.7,3.7,0,0,1,30.646-.914a3.9,3.9,0,0,1-.787-3.034l1.117-6.817h-1.7l.508-2.971h1.7l.6-3.415ZM44.04.254a6.385,6.385,0,0,1-3.282-.87A5.479,5.479,0,0,1,38.581-3,6.413,6.413,0,0,1,38-6.373l.038-.355a8.42,8.42,0,0,1,2.355-5.364,6.515,6.515,0,0,1,4.932-1.9,5.318,5.318,0,0,1,3.021.9,5,5,0,0,1,1.841,2.4,7.338,7.338,0,0,1,.381,3.434l-.241,1.739H42.148a2.678,2.678,0,0,0,.609,1.752,2.238,2.238,0,0,0,1.7.711,4.323,4.323,0,0,0,3.263-1.4l1.752,2.323A5.171,5.171,0,0,1,47.309-.4a7.584,7.584,0,0,1-3.041.654ZM45.056-10.7a2.142,2.142,0,0,0-1.542.559,4.692,4.692,0,0,0-1.136,1.955h4.177l.076-.368a2.816,2.816,0,0,0,.025-.838A1.472,1.472,0,0,0,45.056-10.7Zm15.933.838a11.95,11.95,0,0,0-1.295-.127A3.225,3.225,0,0,0,56.824-8.7L55.275,0H51.1l2.387-13.736,3.9-.013-.317,1.8a3.813,3.813,0,0,1,3.174-2.082,5.985,5.985,0,0,1,1.295.178ZM74.331-6.855a11.41,11.41,0,0,1-1.13,3.84,6.28,6.28,0,0,1-2.139,2.5,4.936,4.936,0,0,1-2.85.781,3.732,3.732,0,0,1-2.92-1.422L64.048,5.281H59.871l3.3-19.018,3.859-.013-.216,1.308a4.038,4.038,0,0,1,3.263-1.549,3.845,3.845,0,0,1,3.129,1.435,6.338,6.338,0,0,1,1.2,3.847A14.839,14.839,0,0,1,74.331-6.855Zm-4.062-1.7q-.063-2.095-1.422-2.133a2.462,2.462,0,0,0-2.2,1.079l-.978,5.446a1.7,1.7,0,0,0,1.752,1.13Q69.646-3,70.154-6.855,70.269-8.074,70.269-8.557ZM85-9.864A11.95,11.95,0,0,0,83.7-9.991,3.225,3.225,0,0,0,80.831-8.7L79.282,0H75.105l2.387-13.736,3.9-.013-.317,1.8a3.813,3.813,0,0,1,3.174-2.082,5.985,5.985,0,0,1,1.295.178ZM89.172,0H84.982l2.387-13.736h4.189ZM87.737-17.2a1.937,1.937,0,0,1,.654-1.549,2.347,2.347,0,0,1,1.644-.622,2.424,2.424,0,0,1,1.631.559,1.9,1.9,0,0,1,.679,1.46A1.941,1.941,0,0,1,91.7-15.8a2.355,2.355,0,0,1-1.65.616,2.454,2.454,0,0,1-1.619-.552A1.882,1.882,0,0,1,87.737-17.2ZM99.569-3.936q.165-.838-1.295-1.257l-.9-.229a6.941,6.941,0,0,1-3.237-1.638,3.242,3.242,0,0,1-.965-2.5,3.984,3.984,0,0,1,1.758-3.218,6.692,6.692,0,0,1,4.132-1.212,6.2,6.2,0,0,1,3.929,1.231,4.017,4.017,0,0,1,1.53,3.25l-4.164-.013q.051-1.625-1.435-1.625a2.046,2.046,0,0,0-1.181.375,1.455,1.455,0,0,0-.647,1q-.216,1.028,1.815,1.409a10.551,10.551,0,0,1,2.729.971,4.075,4.075,0,0,1,1.473,1.365,3.394,3.394,0,0,1,.47,1.955,3.671,3.671,0,0,1-.812,2.222,5.261,5.261,0,0,1-2.241,1.562,8.026,8.026,0,0,1-3.18.546,6.455,6.455,0,0,1-2.761-.622,4.923,4.923,0,0,1-1.993-1.657,4.3,4.3,0,0,1-.743-2.406l3.885.025a1.6,1.6,0,0,0,1.828,1.8,2.4,2.4,0,0,0,1.32-.349A1.51,1.51,0,0,0,99.569-3.936ZM111.706.254a6.385,6.385,0,0,1-3.282-.87A5.479,5.479,0,0,1,106.247-3a6.413,6.413,0,0,1-.584-3.371l.038-.355a8.42,8.42,0,0,1,2.355-5.364,6.515,6.515,0,0,1,4.932-1.9,5.318,5.318,0,0,1,3.021.9,5,5,0,0,1,1.841,2.4,7.338,7.338,0,0,1,.381,3.434l-.241,1.739h-8.176a2.678,2.678,0,0,0,.609,1.752,2.238,2.238,0,0,0,1.7.711,4.323,4.323,0,0,0,3.263-1.4l1.752,2.323A5.171,5.171,0,0,1,114.975-.4a7.584,7.584,0,0,1-3.041.654ZM112.722-10.7a2.143,2.143,0,0,0-1.542.559,4.692,4.692,0,0,0-1.136,1.955h4.177l.076-.368a2.816,2.816,0,0,0,.025-.838A1.472,1.472,0,0,0,112.722-10.7ZM136.2-3.453h-5.9L128.654,0h-4.786l9.788-18.484h4.088L141.159,0h-4.52Zm-4.278-3.44h3.834l-.812-6.373Zm16.123-6.855-.292,1.65a4.883,4.883,0,0,1,3.974-1.9,3.279,3.279,0,0,1,2.837,1.416,5.925,5.925,0,0,1,.679,3.942L153.791,0H149.6l1.46-8.671a4.478,4.478,0,0,0,.025-.812q-.089-1.206-1.422-1.206a2.611,2.611,0,0,0-2.019.978L145.933,0h-4.177l2.387-13.736ZM163.935,0a3.725,3.725,0,0,1-.178-1.244,4.237,4.237,0,0,1-3.364,1.5,4.14,4.14,0,0,1-2.971-1.193,3.587,3.587,0,0,1-1.1-2.831A4.029,4.029,0,0,1,158.184-7.2a8.8,8.8,0,0,1,4.926-1.2l1.4.025.152-.774.051-.673a1.091,1.091,0,0,0-1.155-1.193,1.605,1.605,0,0,0-1.688,1.511l-4.189.013a3.979,3.979,0,0,1,.9-2.406,5.342,5.342,0,0,1,2.279-1.574,7.962,7.962,0,0,1,3.066-.514,6.14,6.14,0,0,1,2.736.654,4.073,4.073,0,0,1,1.758,1.714,4.378,4.378,0,0,1,.444,2.533l-1.028,6.462-.063.787a3.469,3.469,0,0,0,.241,1.6L168,0Zm-2.387-2.768a2.694,2.694,0,0,0,2.247-1.13l.419-2.209-1.079-.013a2.844,2.844,0,0,0-1.727.59,2.239,2.239,0,0,0-.851,1.542,1.124,1.124,0,0,0,.2.857A1,1,0,0,0,161.548-2.768ZM174.1,0h-4.189l3.377-19.5h4.189Zm8.963-6.043,3.555-7.693h4.608L183.181,2.057a6.882,6.882,0,0,1-2.076,2.7,4.718,4.718,0,0,1-2.8.832,7.9,7.9,0,0,1-1.841-.279l.317-3.06h.482A3.459,3.459,0,0,0,178.623,2a2.068,2.068,0,0,0,.978-.958L180.2-.1,178-13.736h4.316ZM197.78-17.151l-.6,3.415h2.2l-.521,2.971h-2.2L195.6-4.456a1.682,1.682,0,0,0,.083.978q.171.33.857.355a9.928,9.928,0,0,0,1.092-.063l-.3,3.1a6.75,6.75,0,0,1-2.247.317,3.7,3.7,0,0,1-2.907-1.143,3.9,3.9,0,0,1-.787-3.034l1.117-6.817h-1.7l.508-2.971h1.7l.6-3.415ZM203.138,0h-4.189l2.387-13.736h4.189ZM201.7-17.2a1.937,1.937,0,0,1,.654-1.549A2.347,2.347,0,0,1,204-19.373a2.424,2.424,0,0,1,1.631.559,1.9,1.9,0,0,1,.679,1.46,1.941,1.941,0,0,1-.647,1.555,2.355,2.355,0,0,1-1.65.616,2.454,2.454,0,0,1-1.619-.552A1.882,1.882,0,0,1,201.7-17.2ZM212.151-3.034a1.791,1.791,0,0,0,1.409-.5,2.5,2.5,0,0,0,.647-1.365l3.91-.013a5.141,5.141,0,0,1-.9,2.7,5.409,5.409,0,0,1-2.209,1.847,6.53,6.53,0,0,1-2.977.616A5.157,5.157,0,0,1,207.81-1.72,6.827,6.827,0,0,1,206.6-6.69l.038-.3a9.2,9.2,0,0,1,1.168-3.688,6.682,6.682,0,0,1,2.469-2.482,6.4,6.4,0,0,1,3.421-.825,5.108,5.108,0,0,1,3.79,1.53,5.424,5.424,0,0,1,1.339,3.993l-3.91-.013q.063-2.184-1.562-2.222-2.209-.076-2.539,3.72L210.7-5.687l-.013.482Q210.691-3.072,212.151-3.034Zm14.612-.9q.165-.838-1.295-1.257l-.9-.229a6.941,6.941,0,0,1-3.237-1.638,3.242,3.242,0,0,1-.965-2.5,3.984,3.984,0,0,1,1.758-3.218,6.692,6.692,0,0,1,4.132-1.212,6.2,6.2,0,0,1,3.929,1.231,4.017,4.017,0,0,1,1.53,3.25l-4.164-.013q.051-1.625-1.435-1.625a2.046,2.046,0,0,0-1.181.375,1.455,1.455,0,0,0-.647,1q-.216,1.028,1.815,1.409a10.551,10.551,0,0,1,2.729.971,4.075,4.075,0,0,1,1.473,1.365,3.394,3.394,0,0,1,.47,1.955,3.671,3.671,0,0,1-.812,2.222,5.261,5.261,0,0,1-2.241,1.562,8.026,8.026,0,0,1-3.18.546,6.455,6.455,0,0,1-2.761-.622,4.923,4.923,0,0,1-1.993-1.657,4.3,4.3,0,0,1-.743-2.406l3.885.025a1.6,1.6,0,0,0,1.828,1.8,2.4,2.4,0,0,0,1.32-.349A1.51,1.51,0,0,0,226.764-3.936Z" transform="translate(966 242)"/>
    <g id="Group_1-2" data-name="Group 1">
      <text id="Informed_Visibility" data-name="Informed Visibility" class="cls-4" transform="translate(376 230)"><tspan x="0" y="0">Informed Visibility</tspan></text>
      <text id="The_single_source_for_all_your_mail_visibility_needs." data-name="The single source for all your mail visibility needs." class="cls-5" transform="translate(376 265)"><tspan x="0" y="0">The single source for all your mail visibility needs.</tspan></text>
    </g>
    <path id="Path_1-2" data-name="Path 1" class="cls-6" d="M33,0,0,77" transform="translate(923.5 193.5)"/>
  </g>
</svg>
