<svg xmlns="http://www.w3.org/2000/svg" viewBox="0 0 83.963 117.709">
  <defs>
    <style>
      .cls-1, .cls-2 {
        fill: #fff;
      }

      .cls-2 {
        stroke: rgba(0,0,0,0);
      }
    </style>
  </defs>
  <g id="AMS" transform="translate(-96 -760)">
    <g id="ams-icon-no-text" transform="translate(96.002 760)">
      <path id="Path_1396" data-name="Path 1396" class="cls-1" d="M241.924,163.4a15.376,15.376,0,0,0-4.9-3.284,15.213,15.213,0,0,0-5.962-1.213,14.919,14.919,0,0,0-5.962,1.213,16.076,16.076,0,0,0-4.884,3.284,15.436,15.436,0,0,0-3.3,4.884,15.152,15.152,0,0,0-1.213,5.962,14.86,14.86,0,0,0,1.213,5.962,15.416,15.416,0,0,0,8.186,8.169,14.919,14.919,0,0,0,5.962,1.213h6.788a1.929,1.929,0,0,0,0-3.857h-6.771a10.834,10.834,0,0,1-4.48-.926,11.854,11.854,0,0,1-3.638-2.459,12.058,12.058,0,0,1-2.459-3.638,11.051,11.051,0,0,1-.926-4.48,10.856,10.856,0,0,1,.926-4.5,12.057,12.057,0,0,1,2.459-3.638,11.854,11.854,0,0,1,3.638-2.459,11.5,11.5,0,0,1,15.077,6.1,11.189,11.189,0,0,1,.926,4.5,2.584,2.584,0,0,1-.758,1.853,2.664,2.664,0,0,1-3.722,0,2.523,2.523,0,0,1-.792-1.853,6.282,6.282,0,0,0-.505-2.493,6.5,6.5,0,0,0-8.489-3.453,6.615,6.615,0,0,0-2.072,1.4,6.711,6.711,0,0,0-1.4,2.072,6.3,6.3,0,0,0-.522,2.493,6.06,6.06,0,0,0,.522,2.526,6.542,6.542,0,0,0,8.32,3.486,4.3,4.3,0,0,0,.488-.219l.051-.017a2.333,2.333,0,0,1,.354-.185,3.284,3.284,0,0,1,2.729.017,1.218,1.218,0,0,1,.32.185,5.457,5.457,0,0,0,.522.219,6.439,6.439,0,0,0,4.817-.084,6.759,6.759,0,0,0,2.072-1.381,6.293,6.293,0,0,0,1.9-4.564,14.86,14.86,0,0,0-1.213-5.962,16.045,16.045,0,0,0-3.3-4.873Zm-9.23,12.7a2.529,2.529,0,0,1-1.853.758,2.6,2.6,0,0,1-1.87-.758,2.564,2.564,0,0,1,0-3.706,2.664,2.664,0,0,1,3.722,0,2.556,2.556,0,0,1,.758,1.853A2.529,2.529,0,0,1,232.694,176.1Z" transform="translate(-179.488 -132.137)"/>
      <path id="Path_1397" data-name="Path 1397" class="cls-1" d="M210.95,48.394a4.438,4.438,0,0,0-4.244-4.194h-41.08a4.421,4.421,0,0,0-4.126,4.413v60.516a4.478,4.478,0,0,0,4.548,4.413H206.79a4.309,4.309,0,0,0,4.143-3.908,3.969,3.969,0,0,0,.034-.623l-.034-59.876C210.95,48.95,210.95,48.545,210.95,48.394Zm-4.531,61.274h-40.54a.555.555,0,0,1-.522-.556v-60.5c0-.286.236-.522.691-.539h40.338l.152-1.937.034,1.937c.269.017.488.236.505.674v60.415c-.017.27-.236.489-.658.506Z" transform="translate(-134.417 -36.756)"/>
      <path id="Path_1398" data-name="Path 1398" class="cls-1" d="M77.149,0h-61.7A7.519,7.519,0,0,0,7.942,7.512v9.146H5.854a2.754,2.754,0,0,0-.371.034A5.126,5.126,0,0,0,5.45,26.915H7.96V36.97H5.214a5.129,5.129,0,0,0,.269,10.207,2.754,2.754,0,0,0,.371.034H7.942V57.265H5.2a5.129,5.129,0,0,0,.269,10.207,2.754,2.754,0,0,0,.371.034H7.926v9.146a7.519,7.519,0,0,0,7.512,7.512H77.149a7.519,7.519,0,0,0,7.512-7.512V7.512A7.519,7.519,0,0,0,77.149,0ZM5.669,23.075a1.26,1.26,0,0,1,.168-2.51,1.541,1.541,0,0,0,.286-.017L17.8,20.531a1.26,1.26,0,0,1-.168,2.51,1.831,1.831,0,0,0-.3.017Zm.472,20.3a1.732,1.732,0,0,0-.3-.017,1.282,1.282,0,0,1-.4-2.493H17.324a1.831,1.831,0,0,0,.3.017A1.261,1.261,0,0,1,18.89,42.14a1.246,1.246,0,0,1-1.011,1.23Zm0,20.312a1.732,1.732,0,0,0-.3-.017,1.282,1.282,0,0,1-.4-2.493h11.9a1.83,1.83,0,0,0,.3.017A1.261,1.261,0,0,1,18.9,62.457a1.246,1.246,0,0,1-1.011,1.23ZM80.8,76.7a3.644,3.644,0,0,1-3.638,3.638H15.454A3.644,3.644,0,0,1,11.816,76.7V67.556h6.249a1.114,1.114,0,0,0,.236-.017,5.13,5.13,0,0,0-.286-10.207,2.523,2.523,0,0,0-.371-.034H11.8V47.244h6.249a1.112,1.112,0,0,0,.236-.017A5.13,5.13,0,0,0,18,37.02a2.522,2.522,0,0,0-.371-.034H11.8V26.931h5.844a2.755,2.755,0,0,0,.371-.034,5.126,5.126,0,0,0,.034-10.224H11.816V7.512a3.644,3.644,0,0,1,3.638-3.638H77.166A3.644,3.644,0,0,1,80.8,7.512Z" transform="translate(-0.7)"/>
    </g>
    <path id="Path_1" data-name="Path 1" class="cls-2" d="M9.4-3.311H3.9L2.744,0H.176L5.547-14.219H7.764L13.145,0H10.566ZM4.59-5.3H8.711L6.65-11.2Zm13.369-8.916,4.1,10.9,4.092-10.9h3.193V0H26.885V-4.687l.244-6.27L22.93,0H21.162L16.973-10.947l.244,6.26V0H14.756V-14.219ZM39.7-3.662a1.717,1.717,0,0,0-.659-1.445A7.931,7.931,0,0,0,36.66-6.133a11.483,11.483,0,0,1-2.734-1.152,3.649,3.649,0,0,1-1.943-3.184,3.465,3.465,0,0,1,1.4-2.832,5.672,5.672,0,0,1,3.638-1.113,6.145,6.145,0,0,1,2.646.547,4.344,4.344,0,0,1,1.826,1.558,4,4,0,0,1,.664,2.241H39.7a2.228,2.228,0,0,0-.7-1.743,2.882,2.882,0,0,0-2-.63,3.01,3.01,0,0,0-1.88.518,1.723,1.723,0,0,0-.669,1.445,1.559,1.559,0,0,0,.723,1.3,8.325,8.325,0,0,0,2.383,1.016,10.961,10.961,0,0,1,2.666,1.123A4.241,4.241,0,0,1,41.7-5.591a3.764,3.764,0,0,1,.469,1.909A3.384,3.384,0,0,1,40.806-.854,5.909,5.909,0,0,1,37.109.2a6.946,6.946,0,0,1-2.837-.571A4.766,4.766,0,0,1,32.26-1.948,3.93,3.93,0,0,1,31.543-4.3h2.471a2.3,2.3,0,0,0,.8,1.875,3.507,3.507,0,0,0,2.3.664,3.047,3.047,0,0,0,1.938-.522A1.686,1.686,0,0,0,39.7-3.662Z" transform="translate(116 877)"/>
  </g>
</svg>
