<svg xmlns="http://www.w3.org/2000/svg" width="120" height="120" viewBox="0 0 120 120">
  <g id="Group_15" data-name="Group 15" transform="translate(-900 -480)">
    <g id="Ellipse_6" data-name="Ellipse 6" transform="translate(900 480)" fill="none" stroke="#0ef799" stroke-width="6">
      <circle cx="60" cy="60" r="60" stroke="none"/>
      <circle cx="60" cy="60" r="57" fill="none"/>
    </g>
    <path id="Path_4" data-name="Path 4" d="M55.351-36.562a1.528,1.528,0,0,0,1.523-1.523v-5.078a1.528,1.528,0,0,0-1.523-1.523H52.812v-6.094a6.1,6.1,0,0,0-6.094-6.094H6.094A6.1,6.1,0,0,0,0-50.781V2.031A6.1,6.1,0,0,0,6.094,8.125H46.719a6.1,6.1,0,0,0,6.094-6.094V-4.062h2.539a1.528,1.528,0,0,0,1.523-1.523v-5.078a1.528,1.528,0,0,0-1.523-1.523H52.812v-8.125h2.539a1.528,1.528,0,0,0,1.523-1.523v-5.078a1.528,1.528,0,0,0-1.523-1.523H52.812v-8.125ZM26.406-40.625A8.133,8.133,0,0,1,34.531-32.5a8.133,8.133,0,0,1-8.125,8.125A8.133,8.133,0,0,1,18.281-32.5,8.133,8.133,0,0,1,26.406-40.625ZM40.625-10.562a2.662,2.662,0,0,1-2.844,2.438H15.031a2.662,2.662,0,0,1-2.844-2.438V-13c0-4.037,3.821-7.312,8.531-7.312h.635A13.15,13.15,0,0,0,26.406-19.3a13.1,13.1,0,0,0,5.053-1.016h.635c4.71,0,8.531,3.275,8.531,7.312Z" transform="translate(932 565)" fill="#fff"/>
  </g>
</svg>
