<svg xmlns="http://www.w3.org/2000/svg" viewBox="0 0 81.271 117.709">
  <defs>
    <style>
      .cls-1, .cls-3 {
        fill: #fff;
      }

      .cls-2 {
        fill: none;
        stroke: #fff;
        stroke-width: 5px;
      }

      .cls-3 {
        stroke: rgba(0,0,0,0);
      }
    </style>
  </defs>
  <g id="DMS" transform="translate(-267.5 -760)">
    <g id="dms-icon-no-text" transform="translate(270 760)">
      <g id="Group_1901" data-name="Group 1901" transform="translate(43.51)">
        <g id="Group_1900" data-name="Group 1900">
          <path id="Path_1404" data-name="Path 1404" class="cls-1" d="M272.686,0A14.881,14.881,0,0,0,257.8,14.9c0,14.211,14.886,32.759,14.886,32.759S287.572,29.114,287.572,14.9A14.9,14.9,0,0,0,272.686,0Zm0,23.122a8.042,8.042,0,1,1,5.7-2.355,8.042,8.042,0,0,1-5.7,2.355Z" transform="translate(-257.8)"/>
        </g>
      </g>
      <path id="Path_1405" data-name="Path 1405" class="cls-2" d="M47.875,342.4,23.2,367.126A9.56,9.56,0,0,0,28.82,369H86a9.546,9.546,0,0,0,9.519-9.384Z" transform="translate(-19.284 -284.611)"/>
      <path id="Path_1406" data-name="Path 1406" class="cls-2" d="M235.373,179.01l-3.916,4.9-3.932-4.9a100.257,100.257,0,0,1-7.662-11.308L208.2,179.4l41.131,14.869V154.2C245.128,166.774,235.879,178.386,235.373,179.01Z" transform="translate(-173.061 -128.175)"/>
      <path id="Path_1407" data-name="Path 1407" class="cls-2" d="M38.447,54.968A19.633,19.633,0,0,1,39.662,48.2H9.553A9.573,9.573,0,0,0,0,57.736V114.6L42.734,71.727C40.3,66.343,38.447,60.453,38.447,54.968Z" transform="translate(0 -40.065)"/>
    </g>
    <path id="Path_2" data-name="Path 2" class="cls-3" d="M1.445,0V-14.219h4.2a6.586,6.586,0,0,1,3.345.84A5.726,5.726,0,0,1,11.25-11a7.564,7.564,0,0,1,.8,3.535v.713A7.532,7.532,0,0,1,11.244-3.2,5.658,5.658,0,0,1,8.95-.83,6.892,6.892,0,0,1,5.537,0ZM3.916-12.227V-1.973H5.527A3.71,3.71,0,0,0,8.511-3.188,5.3,5.3,0,0,0,9.57-6.68v-.791a5.434,5.434,0,0,0-1.006-3.535,3.566,3.566,0,0,0-2.92-1.221Zm13.8-1.992,4.1,10.9,4.092-10.9H29.1V0H26.641V-4.687l.244-6.27L22.686,0H20.918L16.729-10.947l.244,6.26V0H14.512V-14.219ZM39.453-3.662a1.717,1.717,0,0,0-.659-1.445,7.931,7.931,0,0,0-2.378-1.025,11.483,11.483,0,0,1-2.734-1.152,3.649,3.649,0,0,1-1.943-3.184,3.465,3.465,0,0,1,1.4-2.832,5.672,5.672,0,0,1,3.638-1.113,6.145,6.145,0,0,1,2.646.547A4.344,4.344,0,0,1,41.25-12.31a4,4,0,0,1,.664,2.241H39.453a2.228,2.228,0,0,0-.7-1.743,2.882,2.882,0,0,0-2-.63,3.01,3.01,0,0,0-1.88.518,1.723,1.723,0,0,0-.669,1.445,1.559,1.559,0,0,0,.723,1.3A8.325,8.325,0,0,0,37.31-8.163a10.961,10.961,0,0,1,2.67,1.127,4.241,4.241,0,0,1,1.475,1.445,3.764,3.764,0,0,1,.469,1.909A3.384,3.384,0,0,1,40.562-.854,5.909,5.909,0,0,1,36.865.2a6.946,6.946,0,0,1-2.837-.571,4.766,4.766,0,0,1-2.012-1.577A3.93,3.93,0,0,1,31.3-4.3h2.47a2.3,2.3,0,0,0,.8,1.875,3.507,3.507,0,0,0,2.295.664A3.047,3.047,0,0,0,38.8-2.28a1.686,1.686,0,0,0,.653-1.382Z" transform="translate(287 877)"/>
  </g>
</svg>
