<svg xmlns="http://www.w3.org/2000/svg" width="120" height="120" viewBox="0 0 120 120">
  <g id="Group_5" data-name="Group 5" transform="translate(-900 -480)">
    <g id="Ellipse_6" data-name="Ellipse 6" transform="translate(900 480)" fill="none" stroke="#0ef799" stroke-width="6">
      <circle cx="60" cy="60" r="60" stroke="none"/>
      <circle cx="60" cy="60" r="57" fill="none"/>
    </g>
    <path id="Path_2" data-name="Path 2" d="M24.562,7.652a3.423,3.423,0,0,0,5.627,0C50.9-22.38,54.75-25.463,54.75-36.5A27.375,27.375,0,0,0,27.375-63.875,27.375,27.375,0,0,0,0-36.5C0-25.463,3.845-22.38,24.562,7.652Zm2.813-32.746A11.406,11.406,0,0,1,15.969-36.5,11.406,11.406,0,0,1,27.375-47.906,11.406,11.406,0,0,1,38.781-36.5,11.406,11.406,0,0,1,27.375-25.094Z" transform="translate(933 567)" fill="#fff"/>
  </g>
</svg>
