<svg xmlns="http://www.w3.org/2000/svg" viewBox="0 0 454.011 166.23">
  <defs>
    <style>
      .cls-1, .cls-5, .cls-6, .cls-7 {
        fill: #0e4194;
      }

      .cls-1, .cls-6 {
        stroke: #fff;
      }

      .cls-1 {
        stroke-linecap: round;
        stroke-width: 9.319px;
      }

      .cls-1, .cls-2, .cls-3, .cls-4, .cls-7 {
        fill-rule: evenodd;
      }

      .cls-2 {
        fill: #5192c5;
      }

      .cls-3 {
        fill: #fff;
      }

      .cls-4 {
        fill: #be1e2d;
      }

      .cls-6 {
        stroke-width: 4.66px;
      }
    </style>
  </defs>
  <g id="Group_4" data-name="Group 4" transform="translate(0.03 0.03)">
    <path id="Path_1" data-name="Path 1" class="cls-1" d="M446.3,27.8,428.6,68.2,402.9,34.6Z"/>
    <g id="Group_3" data-name="Group 3">
      <g id="Group_2" data-name="Group 2">
        <path id="Path_2" data-name="Path 2" class="cls-2" d="M71.7,85.9A80.3,80.3,0,1,0,152,5.6,80.234,80.234,0,0,0,71.7,85.9Z"/>
        <g id="Group_1" data-name="Group 1">
          <path id="Path_3" data-name="Path 3" class="cls-3" d="M166.1,96.9a5.372,5.372,0,0,1-1,1.6c-.2,0-.3.1-.4.3a4.162,4.162,0,0,1-2.9.6,1.8,1.8,0,0,0-.9-.4,1.794,1.794,0,0,1-.7-.5c0-.1-.1-.1-.1-.2s-.1-.1-.1-.2l-.2-.2h0a.713.713,0,0,0-.3-.6v-.1c-.1-.1-.1-.1-.1-.2a7.067,7.067,0,0,1,.2-2.5c.2-.1.3-.2.3-.4.1-.1.1-.2.2-.3.2-.1.3-.2.3-.4h0c.2,0,.3-.2.4-.3s.2-.1.3-.2a1.346,1.346,0,0,0,.9-.5,5.832,5.832,0,0,1,2.3.2c.1.2.2.3.4.3h.1a.821.821,0,0,0,.5.5h0a.51.51,0,0,0,.4.5.1.1,0,0,0,.1.1c.1.3.1.6.4.7,0,.7.4,1.4,0,2.1h0C166,96.8,166.1,96.8,166.1,96.9Z"/>
          <path id="Path_4" data-name="Path 4" class="cls-4" d="M155.7,63.3v.3c0,.2,0,.4.2.5v1.3c-.2.1-.2.3-.2.5a1.421,1.421,0,0,0-.2.6c-.3.2-.4.5-.7.7a3.829,3.829,0,0,1-4.1.5.265.265,0,0,0-.3-.3c-.1-.1-.2-.1-.3-.2s-.1-.2-.2-.2a1.38,1.38,0,0,0-.3-.4,6.118,6.118,0,0,1-.5-1.2V63.9c.2-.1.2-.3.2-.5v-.1l.2-.2s.1-.1,0-.1a4.694,4.694,0,0,1,2.7-1.6c.5,0,1,.1,1.4.1.2.1.3.3.6.3a2.092,2.092,0,0,1,.6.4l.5.5c0,.1.1.1.1.2A.781.781,0,0,0,155.7,63.3Z"/>
          <path id="Path_5" data-name="Path 5" class="cls-3" d="M130.6,98.9h-.2l-.2-.2c-.1-.2-.2-.4-.4-.4-.1-.1-.2-.2-.2-.3s0-.1-.1-.2c0-.1-.1-.1-.1-.2-.1-.3-.4-.6-.4-1,0-.2.1-.5-.2-.7v-.7c.3-.4.2-.9.4-1.3,0-.1.1-.1.1-.2.1,0,.1-.1.1-.2.1-.1.1-.2.2-.3.2,0,.3-.1.4-.3.1-.1.2-.1.3-.2.1,0,.1-.1.2-.1a3.5,3.5,0,0,1,3,0c0,.1.1.1.2.1.3.2.6.5.9.7a.265.265,0,0,0,.3.3c.1.2.1.3.2.5.1.3.1.7.4.9a13.551,13.551,0,0,1-.2,2c-.2.1-.3.2-.3.4v.1a2.7,2.7,0,0,0-.7.8c-.2.1-.3.2-.5.3a.55.55,0,0,0-.5.3h0c-.1,0-.2.1-.3.1h-1.6c-.1,0-.2-.1-.3-.1h-.2A.438.438,0,0,0,130.6,98.9Z"/>
          <path id="Path_6" data-name="Path 6" class="cls-3" d="M129,73.8v-.2a.764.764,0,0,0,.2-.5h0c.2-.1.3-.2.3-.4h.1v-.1l.4-.4h.1v-.1c.1-.1.2-.1.3-.2a.349.349,0,0,1,.2-.1h.2c.3-.1.7-.1.9-.4H133a1.086,1.086,0,0,0,.9.4h.1c.1.2.2.3.4.3l.2.2a.821.821,0,0,0,.5.5v.1c0,.1,0,.3.1.3,0,.1.1.2.1.3-.1.2,0,.2.2.3a4.1,4.1,0,0,0,.1,1.1,5.58,5.58,0,0,1-.9,2.1l-.3.3-.2.2c-.1.1-.2.1-.2.2a3.589,3.589,0,0,1-2.4.5c-.3-.1-.6-.2-1-.3,0-.2-.2-.2-.4-.2a4.62,4.62,0,0,1-.7-.7c0-.1,0-.3-.2-.3a3.552,3.552,0,0,0-.4-.9.749.749,0,0,0-.1-.5V74.1C129.1,74.2,129,74,129,73.8Z"/>
          <path id="Path_7" data-name="Path 7" class="cls-3" d="M159.7,104.1l.1-.1a.265.265,0,0,0,.3-.3c.2-.1.3-.3.5-.4a3.639,3.639,0,0,1,3.2-.4,3.068,3.068,0,0,1,2,2.4v1.6c-.1.1-.2.2-.1.3a5.383,5.383,0,0,1-.9,1.2c-.1,0-.2,0-.2.1a4.348,4.348,0,0,1-.7.4c-.2,0-.3.1-.4.3-.1,0-.3.1-.4.1a.349.349,0,0,0-.2.1h-1a2.22,2.22,0,0,0-1.1-.5c-.7-.5-1.5-1-1.5-2v-2a.758.758,0,0,0,.2-.4A.52.52,0,0,0,159.7,104.1Z"/>
          <path id="Path_8" data-name="Path 8" class="cls-3" d="M144,61.7a3.039,3.039,0,0,1,1.3,1.2c0,.2.1.3.3.4a1.268,1.268,0,0,0,.1.6v1.5a2.353,2.353,0,0,0-.2.8c-.2.1-.3.2-.3.4v.1a.642.642,0,0,0-.5.5h0a.55.55,0,0,0-.5.3,4.247,4.247,0,0,1-2.7.5.6.6,0,0,0-.6-.3h-.1c-.1-.2-.2-.3-.4-.3l-.2-.2v-.1h-.1l-.3-.3-.1-.1h0c0-.2-.1-.3-.3-.4a2.353,2.353,0,0,1-.2-.8V64c.1-.3,0-.6.2-.9l.2-.2c0-.1,0-.1.1-.2.2-.1.2-.2.2-.3h.1c0-.1.1-.1.2-.2h0a.55.55,0,0,0,.5-.3,1.689,1.689,0,0,1,.5-.2,2.1,2.1,0,0,0,1.1-.4h.5c.2.2.4.3.6.2.1,0,.2.1.4.1C143.7,61.7,143.8,61.7,144,61.7Z"/>
          <path id="Path_9" data-name="Path 9" class="cls-3" d="M145.7,107.3c-.1,0-.1.1,0,0-.1.2-.1.3-.2.3a5.008,5.008,0,0,1-.7.8.215.215,0,0,0-.2.2,4.348,4.348,0,0,1-.7.4,2.1,2.1,0,0,0-1.1.4H142c-.1-.2-.2-.2-.4-.2-.1,0-.2-.1-.4-.1,0-.1-.2-.2-.3-.2-.1-.1-.3-.1-.4-.2-.1-.2-.2-.3-.4-.3h0l-.2-.2h0a.265.265,0,0,0-.3-.3c0-.1,0-.1-.1-.1a.55.55,0,0,0-.3-.5h0c0-.1,0-.3-.1-.3a.9.9,0,0,0-.1-.5v-1.2a1.268,1.268,0,0,1,.1-.6,1.126,1.126,0,0,0,.5-.8h0q.3-.15.3-.3l.2-.2c.4-.2.9-.5,1.3-.7.5,0,1.1-.1,1.6-.1.1.2.2.3.4.3a1.421,1.421,0,0,0,.6.2c.1.2.2.3.4.3l.2.2.3.3c.1.1.1.2.2.2,0,.2.1.3.3.4.1.3.1.5.2.8A13.4,13.4,0,0,1,145.7,107.3Z"/>
          <path id="Path_10" data-name="Path 10" class="cls-3" d="M120,73.4a1.421,1.421,0,0,0,.2-.6c.2-.1.3-.2.3-.4,0-.1.1-.1.2-.2.2,0,.3-.1.4-.3a10.092,10.092,0,0,0,1.5-.7h.1l.1-.1c.5.1.9.1,1.4.2.1.2.2.3.4.3h.1a39806724803354.14,39806724803354.14,0,0,0,.8.8c0,.1.1.1.2.2v.1c0,.1,0,.3.2.3a4.61,4.61,0,0,1,.1,2.6c-.2.1-.3.2-.3.4a8.777,8.777,0,0,1-1.2,1.5,1.905,1.905,0,0,0-1,.5,3.722,3.722,0,0,1-1.8-.2l-.9-.6c-.2-.4-.6-.6-.7-1.1a.52.52,0,0,0-.2-.4v-.3c.1-.2.1-.3-.1-.5v-.7c.1-.1.1-.2.1-.4s.1-.3.1-.5C120,73.7,120,73.6,120,73.4Z"/>
          <path id="Path_11" data-name="Path 11" class="cls-3" d="M120,94.2a3.563,3.563,0,0,1,2.7-1.9,2.485,2.485,0,0,1,.8.1,1.623,1.623,0,0,0,.9.5,4.613,4.613,0,0,1,1.5,4.4c-.4.3-.4.7-.7,1.1a2.651,2.651,0,0,1-.6.5,1.623,1.623,0,0,0-.9.5,8.6,8.6,0,0,1-1.6-.1c-.1-.1-.2-.2-.4-.1h0l-.1-.1c-.2-.1-.3-.2-.5-.2a.265.265,0,0,0-.3-.3l-.2-.2c0-.2-.1-.3-.3-.4-.1-.2-.1-.4-.2-.6,0-.2,0-.4-.2-.4v-.4a3.3,3.3,0,0,0,0-1.4c0-.2.1-.3.1-.5S120,94.4,120,94.2Z"/>
          <path id="Path_12" data-name="Path 12" class="cls-3" d="M149.9,57.2c-.1-.2-.2-.3-.3-.5a2.507,2.507,0,0,0-.4-.7V54.5c.1-.3.1-.6.2-.9l.2-.2c0-.1,0-.1.1-.2a.821.821,0,0,0,.5-.5,3.6,3.6,0,0,1,3-.7c.1.2.3.2.5.2a1.421,1.421,0,0,0,.6.2c.1.2.2.3.4.3h0c.1,0,.1.1.2.1l.2.2c0,.1.1.1.1.2h0c0,.2.1.3.3.4a2.92,2.92,0,0,1,.2.9v1.3a1.854,1.854,0,0,0-.2.7c-.3.1-.3.4-.5.6h0c-.2,0-.3.1-.4.3h0a8.266,8.266,0,0,0-1.3.7h-1.5a7.74,7.74,0,0,1-1.6-.7C150.2,57.3,150.1,57.2,149.9,57.2Z"/>
          <path id="Path_13" data-name="Path 13" class="cls-3" d="M110.7,85.5v-.9a.844.844,0,0,0,.2-.7v-.5c.1-.1.1-.1.1-.2a1,1,0,0,0,.4-.5.642.642,0,0,0,.5-.5h0c.1,0,.3,0,.3-.2a2.445,2.445,0,0,1,2.6-.1c.1.3.3.3.6.4v.1a.265.265,0,0,0,.3.3c.1.1.1.2.2.3,0,.2.1.3.3.4.1.3.1.5.2.8v2.3c0,.1-.1.1-.1.2,0,0-.1,0,0,.1h-.1c-.1.1-.1.3-.2.4-.2,0-.2.2-.2.3-.2.2-.4.5-.6.7-.2,0-.3.1-.4.3a1.421,1.421,0,0,1-.6.2h-1.3a5.359,5.359,0,0,1-1.1-.5c0-.1,0-.2-.1-.2l-.2-.2-.2-.2h0c0-.2-.1-.4-.3-.4a.952.952,0,0,1-.2-.7c0-.2.1-.5-.2-.7C110.7,85.9,110.7,85.7,110.7,85.5Z"/>
          <path id="Path_14" data-name="Path 14" class="cls-3" d="M161.7,58.2a3.2,3.2,0,0,1-2.8-2.4,1.077,1.077,0,0,0-.2-.8c.1-.4.2-.9.3-1.3,0-.1.1-.1.1-.2a2.915,2.915,0,0,1,1.5-1.4c.2,0,.5,0,.6-.3h1.3a.829.829,0,0,0,.8.3c.5.4.9.8,1.4,1.2,0,.2.1.3.3.4a2.92,2.92,0,0,1,.2.9v1.5c0,.1,0,.1-.1.2,0,.1-.1.2-.1.3-.2.1-.3.2-.3.4a4.15,4.15,0,0,1-2,1.2Z"/>
          <path id="Path_15" data-name="Path 15" class="cls-3" d="M114.9,78.1h0a6.882,6.882,0,0,1-1.3.2c-.3-.1-.7-.1-1-.2h-.1c0-.2-.2-.3-.4-.3-.4-.2-.5-.6-.7-1,0-.2-.1-.3-.3-.4v-.2a.952.952,0,0,0-.2-.7c.1-.6.1-1.2.2-1.7.2-.1.3-.2.3-.4.2-.7.8-1,1.2-1.5a.4.4,0,0,0,.4-.2,2.57,2.57,0,0,1,2.1-.1,1.612,1.612,0,0,0,.7.4c.2.3.5.6.7.9a2.1,2.1,0,0,0,.4,1.1v1.5c-.3.2-.3.6-.4.9-.1.2-.1.3-.2.5,0,.1-.1.1-.1.2l-.9.9C115.1,77.8,115,77.9,114.9,78.1Z"/>
          <path id="Path_16" data-name="Path 16" class="cls-3" d="M143.6,58.2h-1.7a2.355,2.355,0,0,0-1-.5,2.4,2.4,0,0,1-1.2-2v-1c.2-.5.2-1.1.7-1.5.3-.3.6-.5.9-.8.2-.1.4-.1.6-.2.2,0,.4,0,.5-.2a6.9,6.9,0,0,1,2.5.4c.1.2.2.3.4.3h0c0,.1.1.1.2.2l.2.2.2.2v.1c0,.3.2.4.3.6a3.32,3.32,0,0,1,0,2.2c-.3.4-.5.7-.8,1.1h0a.821.821,0,0,0-.5.5h-.1c-.2,0-.3.1-.4.3h-.2C143.7,58.1,143.7,58.1,143.6,58.2Z"/>
          <path id="Path_17" data-name="Path 17" class="cls-3" d="M164.2,118a7.973,7.973,0,0,0-1.6.8,8.6,8.6,0,0,1-1.6-.1c-.1-.3-.4-.2-.6-.3a9.017,9.017,0,0,1-1-.9,2.827,2.827,0,0,1-.6-2.5c.1-.3.4-.7.4-1a4.233,4.233,0,0,0,.5-.7,1.794,1.794,0,0,1,.7-.5,3.08,3.08,0,0,0,1.2-.5,3.641,3.641,0,0,1,3.2,1.2c0,.2.1.3.3.4a2.92,2.92,0,0,1,.2.9,9.15,9.15,0,0,1-.1,1.6c-.1.3-.9,1.4-1,1.6C163.9,118.2,164.3,117.8,164.2,118Z"/>
          <path id="Path_18" data-name="Path 18" class="cls-3" d="M168.8,56.7a.55.55,0,0,0-.3-.5l-.2-.2c.1-.6-.3-1.2,0-1.8.6-1.8,1.3-2.3,3.2-2.2h.4c.1.2.3.2.5.2.1.1.2.3.5.2.1.2.2.3.4.3.1.1.2.2.3.2l.2.2c.1.1.1.2.2.2,0,.2.1.3.3.4,0,.1.1.2.1.3s.1.1.1.2v2.5l-.2.2V57l-.2.2-.6.6c-.2,0-.3.1-.4.3a1.978,1.978,0,0,1-1.1.2h-.5c-.3-.1-.6-.1-.9-.2-.1-.1-.2-.3-.4-.3H170c-.1-.1-.2-.2-.3-.2a.265.265,0,0,0-.3-.3C169.1,57,169,56.8,168.8,56.7Z"/>
          <path id="Path_19" data-name="Path 19" class="cls-3" d="M173.5,113.1c.1.2.3.3.4.5.1.1.1.2.2.2h0c.1.1.1.2.2.2a.6.6,0,0,0,.1.4v1.7c0,.3-.3.5-.2.8-.2.1-.3.2-.3.4l-.7.7c-.2,0-.3.1-.4.3-.2.1-.3.1-.5.2-.2,0-.4,0-.5.2-.5,0-1,.1-1.4.1a.6.6,0,0,0-.6-.3.758.758,0,0,0-.4-.2c-.1-.3-.3-.3-.5-.4v-.1a1.623,1.623,0,0,0-.5-.9,3.349,3.349,0,0,1,.7-3.3,1.205,1.205,0,0,0,.5-.5h.1c.1,0,.1-.1.2-.1h.2c.2,0,.3-.1.4-.3a3.62,3.62,0,0,1,2.3,0c.2.1.5.2.7.3h0C173.4,113,173.4,113,173.5,113.1Z"/>
          <path id="Path_20" data-name="Path 20" class="cls-3" d="M131.1,53.5c.1-.1.1-.2.2-.3.2,0,.3-.1.3-.4a2.925,2.925,0,0,1,1.2-.7c.2,0,.4,0,.5-.2h1.4c.1.2.3.2.5.2a2.584,2.584,0,0,1,1.5,2v1.3a8.175,8.175,0,0,1-1.2,2,1.623,1.623,0,0,0-.9.5,3.868,3.868,0,0,1-2.6,0c-.1-.2-.2-.3-.4-.3h0l-.1-.1c-.1-.1-.2-.3-.4-.4a2.092,2.092,0,0,0-.4-.6c0-.2-.1-.3-.1-.5V54.5a.6.6,0,0,1,.1-.4c.1-.1.1-.2.2-.2,0-.1.1-.2.1-.3C131,53.7,131.1,53.6,131.1,53.5Z"/>
          <path id="Path_21" data-name="Path 21" class="cls-3" d="M114.7,61.4a2.917,2.917,0,0,1,1.6.1.55.55,0,0,0,.5.3c.1,0,.1.1.2.1,0,.2.1.3.3.4.1.1.1.2.2.3,0,.2,0,.4.2.5,0,.1.1.2.1.4-.1.1-.1.2.1.3v1a.367.367,0,0,0-.1.3c0,.1-.1.2-.1.4-.3.2-.2.5-.3.7,0,.1-.1.1-.2.2-.2.1-.3.2-.3.4h0c0,.1-.1.1-.1.2l-.2.2a.1.1,0,0,0-.1.1,1.794,1.794,0,0,0-.7.5c-.2,0-.4,0-.5.2-.2,0-.5.1-.7.1a.454.454,0,0,0-.5,0c-.1,0-.2-.1-.3-.1,0-.2-.2-.2-.3-.2a1,1,0,0,1-.5-.4c0-.1,0-.1-.1-.1a1.756,1.756,0,0,0-.4-.5c0-.1,0-.3-.2-.3,0-.1-.1-.2-.1-.3.2-.2-.1-.3-.2-.4.1-.5-.1-1.1.2-1.6a.713.713,0,0,0,.3-.6v-.2c0-.1.1-.1.1-.2a4.891,4.891,0,0,1,1.6-1.6C114.4,61.7,114.5,61.5,114.7,61.4Z"/>
          <path id="Path_22" data-name="Path 22" class="cls-4" d="M105.5,71.3c1.7-.1,2.6.7,3,2.5v1.5c-.1.4-.1.7-.2,1.1-.2.1-.3.2-.3.4-.2.1-.2.2-.2.4a14.961,14.961,0,0,0-1.3,1.1h0a3.75,3.75,0,0,0-1.1.1h-.3c-.3-.2-.5-.5-.8-.5-.4-.3-.4-.8-.7-1.2,0-.2,0-.4-.2-.5a2.769,2.769,0,0,0-.1-.9V75c0-.3.1-.6.1-.9a.844.844,0,0,0,.2-.7v-.1a1.794,1.794,0,0,0,.5-.7c.1-.1.1-.2.2-.3.2,0,.3-.1.4-.3.1-.1.2-.1.3-.2C105,71.7,105.3,71.5,105.5,71.3Z"/>
          <path id="Path_23" data-name="Path 23" class="cls-3" d="M121.8,55.9v-.5c.3-.2.2-.5.2-.8s.3-.4.2-.7c.2,0,.3-.2.3-.4,0-.1.1-.1.1-.2.2,0,.3-.1.3-.4l.2-.2c.2,0,.3-.1.4-.3a1.421,1.421,0,0,1,.6-.2c.2,0,.4-.1.4-.3h1.3c.1.2.2.3.4.3.5.4,1.1.7,1.2,1.4,0,.2,0,.4.2.5v1.2c-.2.1-.1.3-.1.5v.3c0,.1-.1.1-.1.2-.2.3-.5.7-.7,1a.215.215,0,0,0-.2.2c-.2.1-.3.3-.5.4a.675.675,0,0,0-.6.4c-.2,0-.5.1-.7.1h-1.2a2.622,2.622,0,0,0-.9-.5l-.2-.2c0-.2-.1-.3-.3-.4-.1-.2-.1-.3-.2-.5C122,56.4,122.1,56.1,121.8,55.9Z"/>
          <path id="Path_24" data-name="Path 24" class="cls-3" d="M153,43.1a4.253,4.253,0,0,0,1.1.2.319.319,0,0,0,.3.3,2.836,2.836,0,0,1,.9,1l.1.1a4.011,4.011,0,0,1,.3,1.9c0,.1-.1.1-.1.2s-.1.2-.1.3c-.1.1-.3.2-.2.4a5.716,5.716,0,0,1-.7.8c-.2,0-.3.1-.4.3h-.1c-.2,0-.4,0-.5.2-.2,0-.3.1-.5.1a2.438,2.438,0,0,0-1.2,0c-.1,0-.2-.1-.3-.1-.1-.1-.2-.2-.3-.2-.2-.1-.3-.1-.5-.2a.349.349,0,0,0-.2-.1,2.651,2.651,0,0,0-.6-.5l-.1-.1c-.1-.1-.1-.2-.2-.4,0-.1,0-.3-.2-.3,0-.1-.1-.2-.1-.3a1.7,1.7,0,0,0,0-1,2.534,2.534,0,0,1,1-1.8,1.374,1.374,0,0,0,.8-.5,1.978,1.978,0,0,1,1.1-.2A1.7,1.7,0,0,1,153,43.1Z"/>
          <path id="Path_25" data-name="Path 25" class="cls-3" d="M183.1,114.3a4.274,4.274,0,0,1-.6,2.9c-.2,0-.2.2-.2.3l-.2.2c-.2.2-.5.4-.7.6l-.6.3c-.1,0-.3,0-.3.2a9.634,9.634,0,0,1-1.7,0c-.1-.2-.2-.2-.3-.2h-.1a.821.821,0,0,0-.5-.5c0-.1-.1-.1-.1-.2v-.1h-.1a2.994,2.994,0,0,0-.4-.8v-1.7a4.18,4.18,0,0,1,.4-1c.1,0,.1-.1.1-.2s0-.1.1-.2l.2-.2.5-.5c.2,0,.3-.1.4-.3a3.3,3.3,0,0,1,2.9-.3c.1.2.2.3.4.3.2.3.5.6.7.9C182.9,114,182.9,114.2,183.1,114.3Z"/>
          <path id="Path_26" data-name="Path 26" class="cls-3" d="M142.8,78.3a4.367,4.367,0,0,1-2.7-.5c-.8-1-1.7-1.9-1.5-3.3a3.524,3.524,0,0,1,2.2-2.8.215.215,0,0,0,.2-.2c.3-.1.6-.1.9-.2.3,0,.7.1,1,.1.1,0,.1.1.2.1.1.1.2.2.4.1l.1.1c0,.1.1.1.2.1a3.759,3.759,0,0,1,1.4,1.4.908.908,0,0,0,.3.7,4.887,4.887,0,0,1-.1,2.4c-.2,0-.2.2-.2.3a3.509,3.509,0,0,0-.5.8.51.51,0,0,0-.5.4l-.2.2A1.8,1.8,0,0,0,142.8,78.3Z"/>
          <path id="Path_27" data-name="Path 27" class="cls-3" d="M163.5,48.5h-.1c-.1,0-.1.1-.2.1H163c-.2,0-.4,0-.5.2a3.083,3.083,0,0,0-1,.1.188.188,0,0,0-.3,0,3.36,3.36,0,0,1-1.4-.5c-.1-.2-.2-.3-.4-.3h0a1,1,0,0,0-.4-.5,5.737,5.737,0,0,0-.4-.7c0-.2,0-.4-.2-.5a2.979,2.979,0,0,0-.1-1.3c.2-.1.3-.2.2-.4a1.421,1.421,0,0,0,.2-.6.781.781,0,0,0,.4-.4c.2-.1.4-.3.6-.4.2,0,.4-.1.4-.2a1.268,1.268,0,0,0,.6-.1h.8a1.268,1.268,0,0,1,.6.1.349.349,0,0,1,.2.1s.1.1.1,0a1.374,1.374,0,0,0,.8.5c.2.3.5.6.8,1,0,.2.1.4.3.4,0,.4.1.8.1,1.3a.44.44,0,0,0-.1.5c0,.1-.1.2-.1.3-.2,0-.2.2-.2.3-.2.2-.3.4-.5.6C163.7,48.3,163.6,48.4,163.5,48.5Z"/>
          <path id="Path_28" data-name="Path 28" class="cls-3" d="M142.6,48.9c-.2,0-.3-.1-.5-.1-.1-.2-.2-.2-.3-.1h-.1c0-.2-.2-.3-.4-.3l-.2-.2c0-.2-.1-.3-.3-.4h0l-.2-.2v-.3c0-.2,0-.5-.3-.6v-1c.3-.1.3-.4.3-.6.1-.2,0-.4.2-.5a.265.265,0,0,0,.3-.3l.2-.2.1-.1h0a.349.349,0,0,1,.2-.1l.2-.2c.2,0,.3,0,.4-.2a.1.1,0,0,0,.1-.1c.2,0,.4,0,.5-.2h1.3a2.92,2.92,0,0,0,.9.2c.1.3.6.3.8.6h0c.1.1.1.1.1.2a4.678,4.678,0,0,1,.5,2.6c-.2.1-.3.2-.2.4-.1.2-.1.3-.2.5-.3,0-.3.3-.4.5h-.1c-.2,0-.3.1-.4.3-.2.1-.3.1-.4.2-.2,0-.5,0-.6.3h-.4A2.079,2.079,0,0,0,142.6,48.9Z"/>
          <path id="Path_29" data-name="Path 29" class="cls-3" d="M159.7,122.4c.1,0,.1-.1.2-.1h.1v-.1c.1-.1.3-.1.4-.2.6-.1,1.2-.2,1.9-.3.2,0,.3.1.5.1.1.2.2.2.3.1.2.1.3.1.5.2l.2.2c.2.2.3.4.5.6,0,.2.1.4.3.4a2.768,2.768,0,0,0,.1.9.9.9,0,0,0-.1.5,3.582,3.582,0,0,1-.4,1.1c-.2.1-.3.2-.2.4a3.866,3.866,0,0,1-1.9,1.2h-1.3c-.2,0-.3-.1-.5-.1-.4-.3-.9-.7-1.3-1-.1-.1-.1-.3-.2-.4,0-.2,0-.4-.2-.5v-1.5c.2-.1.1-.2.1-.3.1-.1.1-.3.2-.4h.1c0-.1.1-.1.2-.2.1,0,.1-.1.1-.2a1.381,1.381,0,0,1,.4-.3S159.7,122.5,159.7,122.4Z"/>
          <path id="Path_30" data-name="Path 30" class="cls-3" d="M170.8,127.6h-.3a9.7,9.7,0,0,1-1.7-.1h0a.55.55,0,0,0-.5-.3h0c-.3-.4-.6-.9-.9-1.3a4.146,4.146,0,0,1,.1-1.9c.1-.1.2-.2.1-.3.2-.1.3-.4.4-.7a.265.265,0,0,0,.3-.3c.2-.4.7-.5,1-.7.2,0,.4,0,.5-.2.2,0,.3-.1.5-.1a.854.854,0,0,0,.7,0,.749.749,0,0,1,.5.1c.1.2.3.2.5.2.1.1.2.1.3.2,0,.2.2.2.3.3s.1.2.2.2c0,.2.1.4.3.4a11.018,11.018,0,0,1,.2,1.8c-.1.1-.1.2-.2.3v.2c-.2.1-.3.2-.3.4a1.756,1.756,0,0,1-.4.5c0,.1-.1.1-.1.2-.2.2-.4.3-.5.5-.1,0-.2.1-.3.1a.215.215,0,0,0-.2.2C171.1,127.4,170.9,127.4,170.8,127.6Z"/>
          <path id="Path_31" data-name="Path 31" class="cls-4" d="M170.3,43.1c.3.1.6.1.9.2.1.2.2.3.4.3.2.1.3.3.5.4.2.2.3.4.5.6l.2.2c0,.2.1.4.3.4a4.483,4.483,0,0,1,0,2.3c-.2.1-.3.2-.3.4-.3.2-.6.5-.9.7-.1,0-.3,0-.3.2-.1,0-.2.1-.4.1a2.438,2.438,0,0,0-1.2,0h-.2a.6.6,0,0,0-.6-.3.758.758,0,0,0-.4-.2c-.1-.2-.2-.3-.4-.3h-.1c0-.4-.3-.5-.5-.7v-.1c0-.1,0-.2-.2-.2a3.072,3.072,0,0,1,0-2.8c0-.1.1-.1.1-.2.1-.3.5-.4.7-.7a.462.462,0,0,0,.5-.3h1.4Z"/>
          <path id="Path_32" data-name="Path 32" class="cls-3" d="M118.8,56.5l-.1.1a.215.215,0,0,0-.2.2c-.1.1-.1.2-.2.3-.2,0-.3.2-.4.4-.1.1-.2.1-.3.2-.1,0-.3,0-.3.2a5.638,5.638,0,0,1-1.2.4h-.7c-.2-.1-.4-.1-.6-.2a4.349,4.349,0,0,0-.7-.6,1.421,1.421,0,0,1-.2-.6c0-.2,0-.4-.2-.5v-1c.3-.2.2-.4.2-.7a6.117,6.117,0,0,0,.5-1.2l1.1-1.1h0a.764.764,0,0,0,.5-.2h.2c.1,0,.3,0,.3-.2h1.4c.1.2.3.2.5.2.1.1.3.2.4.3l.1.1a4.2,4.2,0,0,1,.6,2.1c-.2.1-.2.2-.1.4v.4c-.2.1-.3.2-.3.4v.2A.536.536,0,0,0,118.8,56.5Z"/>
          <path id="Path_33" data-name="Path 33" class="cls-3" d="M136.9,43.6h0c.1.2.2.5.5.6a2.92,2.92,0,0,1,.2.9v1.5c-.1.1-.2.2-.2.3V47c-.2.1-.3.2-.3.4-.4.4-.8.7-1.2,1.1-.2.1-.5,0-.7.3a4.533,4.533,0,0,1-2.3-.2,2.126,2.126,0,0,1-.9-1c0-.1,0-.3-.1-.3,0-.4-.1-.9-.1-1.3.1-.2.3-.4.2-.7a1.421,1.421,0,0,0,.2-.6c.2-.1.3-.2.3-.4,0-.1.1-.1.2-.2.2,0,.3-.1.4-.3.1-.1.2-.1.3-.2.1,0,.2,0,.2-.1a.1.1,0,0,0,.1-.1c.2.1.3,0,.4-.2.2,0,.4-.1.6-.1h.8a2.92,2.92,0,0,0,.9.2C136.6,43.5,136.7,43.6,136.9,43.6Z"/>
          <path id="Path_34" data-name="Path 34" class="cls-3" d="M105.3,67.6l-.2-.2c0-.1-.1-.1-.1-.2h0c0-.2-.1-.3-.3-.4a2.9,2.9,0,0,1-.2-2.4c.1,0,.1-.1,0-.1a.764.764,0,0,0,.2-.5c.2-.1.3-.2.2-.4.1-.2.2-.3.2-.5.3-.1.4-.4.5-.7h0c.2,0,.3-.1.4-.3.3-.1.5-.3.8-.4a.749.749,0,0,0,.5-.1h.7c.3.1.5.3.8.4.2.3.5.7.7,1,0,.2,0,.4.2.5V65c-.2.6-.5,1.1-.7,1.7-.5.4-.8,1-1.5,1.2-.1,0-.3,0-.3.2a.756.756,0,0,0-.4.1h-.3a.749.749,0,0,1-.5-.1c-.1-.2-.3-.2-.5-.2h0C105.4,67.7,105.3,67.7,105.3,67.6Z"/>
          <path id="Path_35" data-name="Path 35" class="cls-3" d="M175.8,46.4V44.6a1.421,1.421,0,0,0,.2-.6c.2-.1.3-.2.3-.4.1,0,.3-.1.3-.2.1,0,.1-.1.2-.1a2.748,2.748,0,0,1,2-.2c.1,0,.1.1.2.1s.2.1.3.1c.1.2.2.3.4.3h.1c0,.2.2.3.4.3l.3.3c0,.2.1.3.3.4h0a.713.713,0,0,0,.3.6h0a.52.52,0,0,0,.2.4v1.7a2.434,2.434,0,0,1-1,1.4c-.2,0-.3.1-.4.3a8.6,8.6,0,0,1-1.6-.1c-.1-.2-.3-.2-.5-.2a1.265,1.265,0,0,1-1-.7.265.265,0,0,0-.3-.3c0-.1-.1-.1-.1-.2,0-.2-.1-.4-.3-.4v-.2A1.332,1.332,0,0,1,175.8,46.4Z"/>
          <path id="Path_36" data-name="Path 36" class="cls-3" d="M175.8,124.6a4.18,4.18,0,0,1,.4-1c.1,0,.1-.1.1-.2a2.7,2.7,0,0,1,.7-.8c.3,0,.4-.2.6-.4.1,0,.1,0,.1-.1a.1.1,0,0,0,.1-.1h.2c.1,0,.3,0,.3-.2a3.219,3.219,0,0,1,1.7.1,1.96,1.96,0,0,1,1.3,1.6v1a2.92,2.92,0,0,0-.2.9.6.6,0,0,0-.3.6,1.38,1.38,0,0,0-.3.4l-.1.1a1.381,1.381,0,0,1-.4.3l-.2.2h0c-.1,0-.3,0-.3.2-.1,0-.1.1-.2.1a.764.764,0,0,0-.5.2h-1.5c-.2-.1-.3-.1-.5-.2a1,1,0,0,0-.5-.4c-.1-.4-.5-.7-.5-1.1C175.8,125.5,175.8,125,175.8,124.6Z"/>
          <path id="Path_37" data-name="Path 37" class="cls-4" d="M99.8,61.4h1.3l.2.2c.3.2.4.5.6.7,0,.1,0,.3.2.3a19.269,19.269,0,0,0,.1,2.4c-.2.1-.3.2-.3.4a2.994,2.994,0,0,1-.4.8c-.1,0-.1.1-.1.2a5.716,5.716,0,0,1-.7.8c-.3.3-.7.3-.9.6h-1c-.1-.2-.2-.3-.4-.3l-.1-.1-.2-.2c-.1-.2-.2-.3-.3-.5a.349.349,0,0,0-.1-.2c-.3-.4-.1-.9-.2-1.3V64.1c0-.1.1-.2.1-.3v-.4c.1,0,.3-.1.2-.3a.367.367,0,0,1,.1-.3c.2-.1.2-.2.2-.4l.1-.1a.215.215,0,0,0,.2-.2c.1-.1.1-.2.2-.3.2,0,.3-.2.4-.4a.758.758,0,0,1,.4-.2C99.6,61.7,99.7,61.6,99.8,61.4Z"/>
          <path id="Path_38" data-name="Path 38" class="cls-3" d="M123.7,46a1.536,1.536,0,0,1,.5-1.3c.2-.1.3-.2.3-.4,0-.1.1-.1.2-.2.2,0,.3-.1.4-.3a3.287,3.287,0,0,1,1.6-.7,2.3,2.3,0,0,1,2.5,1.5v1.5c-.2.1-.2.3-.2.5-.1.3-.3.5-.4.8h0c0,.1-.1.1-.1.2a.821.821,0,0,0-.5.5c-.4.1-.6.5-1,.5-.1,0-.3,0-.3.2-.2,0-.4.1-.7.1a.446.446,0,0,0-.5,0c-.3-.1-.6-.2-1-.3a.821.821,0,0,0-.5-.5V48c-.1-.3-.2-.5-.3-.8v-.9A.187.187,0,0,0,123.7,46Z"/>
          <path id="Path_39" data-name="Path 39" class="cls-3" d="M109.4,58a4.253,4.253,0,0,1-1.1.2H108c-.2,0-.3,0-.4-.1-.1-.2-.2-.3-.4-.3-.2-.2-.3-.4-.5-.5-.1-.1-.1-.2-.2-.3a.6.6,0,0,0-.1-.4V54.8a3.128,3.128,0,0,0,.5-1v-.1c.3-.1.4-.3.5-.6.4-.3.8-.7,1.2-1,.2,0,.4,0,.5-.2,1.1-.1,2.1.1,2.4,1.4V55c-.1.2-.1.5-.2.7a.864.864,0,0,0-.3.6,17.409,17.409,0,0,0-1.2,1.4C109.6,57.7,109.4,57.8,109.4,58Z"/>
          <path id="Path_40" data-name="Path 40" class="cls-3" d="M150.5,39.6a1.38,1.38,0,0,1-.3-.4c0-.2-.2-.3-.3-.4v-.1c-.1-.1-.1-.2-.2-.4a4.133,4.133,0,0,1,.2-1.9c.2-.1.3-.2.3-.4a1.38,1.38,0,0,0,.3-.4l.1-.1h0c.2,0,.3-.1.4-.3.2-.2.4-.1.6-.2h1.7c.2.1.4.1.6.2a1.275,1.275,0,0,0,.6.4l.2.2c0,.2.1.3.3.4a.52.52,0,0,0,.2.4c0,.2,0,.5.3.6a4.1,4.1,0,0,1-.1,1.1c-.2.1-.2.3-.2.5-.1.1-.1.3-.2.4l-.1.1c-.1,0-.2.2-.2.3-.2,0-.3.1-.4.3l-.6.3c-.2,0-.4,0-.5.2h-1.4c-.1-.2-.3-.2-.5-.2a2.506,2.506,0,0,1-.7-.4C150.6,39.7,150.6,39.7,150.5,39.6Z"/>
          <path id="Path_41" data-name="Path 41" class="cls-3" d="M116.2,48a3.048,3.048,0,0,1,0-2.3,6.706,6.706,0,0,0,.9-1.4l.1-.1c.3,0,.4-.2.5-.5.3,0,.4-.2.6-.4a4.678,4.678,0,0,1,1.7-.2c.2.1.3.1.5.2a1,1,0,0,0,.5.4,3.441,3.441,0,0,1,.2,2.8.1.1,0,0,0-.1.1h0c0,.1-.1.1-.1.2-.1.1-.1.3-.2.4-.2.1-.3.2-.3.4h0l-.2.2-.3.3c-.2,0-.3.1-.4.3-.1.1-.3.1-.4.2-.2,0-.4,0-.5.2-.1,0-.2.1-.4.1a1.388,1.388,0,0,0-.9,0c-.3-.2-.6-.3-.9-.5C116.5,48.2,116.4,48.1,116.2,48Z"/>
          <path id="Path_42" data-name="Path 42" class="cls-3" d="M144.6,40.4c-.5,0-1-.1-1.4-.1-.1-.2-.2-.2-.3-.2-.7,0-.9-.6-1.2-1,0-.2,0-.4-.2-.5V37.4c.2-.1.2-.3.2-.5a3.149,3.149,0,0,1,2-1.9h1.5a.9.9,0,0,1,.5.1l.2.2c.1,0,.2,0,.2.1s0,.1.1.1a3.6,3.6,0,0,1,.8,1.2.735.735,0,0,0,.2.6c.1.5-.2.9-.2,1.3-.2.1-.2.2-.2.3-.1.1-.1.3-.2.4l-.2.2c-.1.1-.2.2-.3.2-.2,0-.3.1-.4.3-.2.1-.3.1-.5.2C144.9,40.1,144.7,40.1,144.6,40.4Z"/>
          <path id="Path_43" data-name="Path 43" class="cls-3" d="M158.2,132.4a3.072,3.072,0,0,1,1-1.5c.2-.1.4-.1.5-.4h.3c.2,0,.4,0,.5-.2.4,0,.7-.1,1.1-.1.1.3.4.3.6.3.1.1.2.3.5.2a6.47,6.47,0,0,1,.8.9,5.245,5.245,0,0,1,.2,1.7c0,.1-.1.1-.1.2a.6.6,0,0,0-.1.4c-.2.1-.3.2-.3.4a5.665,5.665,0,0,1-1.5,1.2c-.2,0-.5-.1-.7.2a1.128,1.128,0,0,0-.8.1c-.1-.3-.4-.3-.6-.3a2.475,2.475,0,0,1-1.5-1.5A7.588,7.588,0,0,0,158.2,132.4Z"/>
          <path id="Path_44" data-name="Path 44" class="cls-3" d="M121.1,82l.9-.3h1.5c.1.1.1.1.2.1h.2a3.45,3.45,0,0,0,.9.8c0,.1.1.1.1.2s0,.3.2.3c0,.1.1.1.1.2-.1.3-.4.4-.6.7a1.55,1.55,0,0,0-.2,2.1c.2.3.5.6.7.9-.1.2-.2.3-.2.5l-.3.3a6.071,6.071,0,0,0-.7-1c-.9-1.1-1.8-1-2.8,0-.3.4-.4.9-.7,1.2,0-.2-.1-.3-.4-.3-.1-.1-.1-.2-.2-.3,0-.1,0-.2-.2-.2a4.179,4.179,0,0,0-.4-1v-2a.6.6,0,0,1,.1-.4C120,83.2,120.5,82.6,121.1,82Z"/>
          <path id="Path_45" data-name="Path 45" class="cls-3" d="M189.1,123.4v1.1c-.2.1-.2.3-.2.5a4.057,4.057,0,0,1-2.7,2.7H185a1.421,1.421,0,0,0-.6-.2.781.781,0,0,0-.4-.4c-.1-.1-.1-.3-.2-.4,0-.2,0-.5-.2-.6v-.9c.2-.1.2-.3.2-.5a.6.6,0,0,1,.1-.4c.1-.1.1-.2.2-.2a5.582,5.582,0,0,1,.5-.8.265.265,0,0,0,.3-.3l.2-.2c.2,0,.4-.1.4-.3a1.421,1.421,0,0,1,.6-.2c.1,0,.3,0,.3-.2a4.332,4.332,0,0,0,.5-.1.454.454,0,0,0,.5,0c.2,0,.3.1.5.1,0,.2.2.2.3.2a.31.31,0,0,1,.2.1.642.642,0,0,0,.5.5v.3C188.9,123.1,188.9,123.3,189.1,123.4Z"/>
          <path id="Path_46" data-name="Path 46" class="cls-3" d="M160.1,40.1a3.128,3.128,0,0,1-1-.5l-.3-.3c0-.1-.1-.1-.1-.2l-.2-.2v-.1c-.1-.1-.1-.1-.1-.2V36.7a2.507,2.507,0,0,1,.4-.7l.1-.1c.4-.2.6-.6,1.1-.7h1.7a2.354,2.354,0,0,0,.8.2c.1.2.2.3.4.3a1.381,1.381,0,0,0,.4.3l.1.1c.1.1.1.2.2.4,0,.1,0,.2.1.2a.349.349,0,0,1,.1.2c-.1.2,0,.3.2.4a4.269,4.269,0,0,1-.2,1.9c-.2.1-.3.2-.3.4l-.2.2c-.2,0-.3.1-.4.3-.2.1-.3.1-.5.2-.2,0-.5,0-.6.2h-1C160.5,40.1,160.3,40.1,160.1,40.1Z"/>
          <path id="Path_47" data-name="Path 47" class="cls-3" d="M166.2,132.9a2.353,2.353,0,0,0,.2-.8c.2-.1.3-.2.3-.4l.1-.1a.821.821,0,0,0,.5-.5.1.1,0,0,0,.1-.1c.2,0,.2-.1.3-.3.2-.1.4-.1.6-.2.2,0,.4,0,.5-.2H170a.844.844,0,0,0,.7.2c.1.1.2.1.3.2.1.2.2.3.4.3a3.385,3.385,0,0,1,.3,2.4c-.2.1-.3.2-.3.4v.2a1,1,0,0,0-.4.5c-.2.2-.5.4-.7.6a2.507,2.507,0,0,0-.7.4h-2.3c-.1-.2-.2-.3-.4-.3h0c-.1,0-.1-.1-.2-.2h0c0-.2-.2-.3-.3-.4a1.421,1.421,0,0,1-.2-.6C166.2,133.7,166.2,133.3,166.2,132.9Z"/>
          <path id="Path_48" data-name="Path 48" class="cls-3" d="M166.2,36.6a1.421,1.421,0,0,0,.2-.6.349.349,0,0,1,.1-.2h0c0-.1.1-.1.2-.2l.2-.2c.2,0,.3-.1.4-.3h2c.2.1.4.1.6.2.1.1.2.3.4.3a2.651,2.651,0,0,0,.6.5v.1h.1a.1.1,0,0,0,.1.1c0,.2.1.3.3.4v.2c0,.1,0,.3.2.3,0,.1.1.2.1.4,0,.1.1.2.2.3v.8c-.3.2-.3.6-.4.9a1.6,1.6,0,0,1-.9.7c-.2,0-.4,0-.5.2h-1.2c-.1-.2-.3-.2-.5-.2-.5-.1-.7-.5-1.2-.7a.265.265,0,0,0-.3-.3c0-.1,0-.1-.1-.1a.55.55,0,0,0-.3-.5c-.1-.3-.1-.6-.2-.8A7.773,7.773,0,0,1,166.2,36.6Z"/>
          <path id="Path_49" data-name="Path 49" class="cls-4" d="M137.4,35a1.421,1.421,0,0,0,.6.2c.1.2.2.3.4.3.1.2.2.3.2.5,0,.1,0,.3.2.3a.756.756,0,0,0,.1.4,1.1,1.1,0,0,0,0,.8c0,.2-.1.3-.1.5-.2,0-.2.2-.2.3-.5.7-.9,1.5-1.9,1.7a.735.735,0,0,0-.6.2H135c-.1-.2-.3-.2-.5-.2a1.39,1.39,0,0,1-1-1.2V37.3a1.91,1.91,0,0,1,.7-1.4.265.265,0,0,0,.3-.3l.2-.2a1.623,1.623,0,0,0,.9-.5h.3A7.569,7.569,0,0,0,137.4,35Z"/>
          <path id="Path_50" data-name="Path 50" class="cls-3" d="M102.4,57.9c-.1,0-.1.1-.2.1s-.3,0-.3.2a.9.9,0,0,0-.5.1h-.5c-.2-.1-.3-.1-.5-.2-.3-.4-.5-.7-.8-1.1,0-.5.1-1.1.1-1.6.2-.1.2-.3.2-.5a2.2,2.2,0,0,1,.5-1.2c.1,0,.2-.1.2-.3l.1-.1a2.361,2.361,0,0,0,.8-.9,1.421,1.421,0,0,1,.6-.2c.1,0,.3,0,.3-.2h1.1c0,.2.2.2.3.2h.1c.1.1.1.2.2.2.1.3.3.5.4.8v1.7a1.445,1.445,0,0,0-.2.7v.1c-.2.1-.3.2-.3.4-.1.2-.3.3-.2.6A5.263,5.263,0,0,0,102.4,57.9Z"/>
          <path id="Path_51" data-name="Path 51" class="cls-3" d="M114.2,44.6v.5c-.2.7-.5,1.3-.7,2h0l-.1.1-.1.1-.2.2a14.961,14.961,0,0,1-1.3,1.1c-.2,0-.4.1-.4.3h-.2a2.7,2.7,0,0,1-1.5-.3l-.2-.2c0-.2-.1-.3-.3-.4-.1-.5-.1-.9-.2-1.4a2.1,2.1,0,0,0,.4-1.1,3.791,3.791,0,0,1,4-2.5c.1.2.2.4.4.4.1.2.1.3.2.5C114,44.3,114,44.5,114.2,44.6Z"/>
          <path id="Path_52" data-name="Path 52" class="cls-3" d="M176.8,130.4h1c.1.2.3.2.5.2h0l.1.1a.1.1,0,0,0,.1.1c0,.2.1.2.2.2,0,.1.1.1.1.2l.2.2a4.5,4.5,0,0,1,0,2,.6.6,0,0,0-.3.6c-.1.1-.1.2-.2.3a6.47,6.47,0,0,0-.8.9c-.4.1-.7.5-1.1.5-.3,0-.6-.1-.8.3h-.2a.829.829,0,0,0-.8-.3,1.756,1.756,0,0,1-.5-.4c-.2-.2-.2-.5-.5-.6a6.7,6.7,0,0,1,0-2c.2-.1.3-.2.3-.4v-.2a.664.664,0,0,0,.4-.5c.1-.3.4-.3.5-.5.2,0,.3-.1.4-.3a1.421,1.421,0,0,1,.6-.2C176.5,130.6,176.7,130.6,176.8,130.4Z"/>
          <path id="Path_53" data-name="Path 53" class="cls-3" d="M126.7,36.2a5.716,5.716,0,0,0,.8-.7c.2,0,.3-.1.4-.3.2-.2.4-.1.6-.2H130a.367.367,0,0,1,.3.1,1.024,1.024,0,0,0,.6.5c.1.2.1.3.2.5v1.7a3.524,3.524,0,0,1-2.2,2.4c-.2,0-.4,0-.5.2h-1.2c-.1-.2-.3-.2-.5-.2-.3-.3-.7-.5-.7-1V37.9a1.854,1.854,0,0,0,.2-.7c.2-.1.3-.2.3-.4h0C126.6,36.4,126.7,36.3,126.7,36.2Z"/>
          <path id="Path_54" data-name="Path 54" class="cls-3" d="M154.6,31.7c-.2.1-.3.3-.5.4-.2,0-.3.1-.4.3a3.153,3.153,0,0,1-2.8-.5c-.1-.2-.2-.4-.4-.4a1.421,1.421,0,0,1-.2-.6V29.2c.1-.2.1-.3.2-.5l.2-.2c1-1.1,1.9-1.3,3.7-.5.1.1.2.2.3.2h0c0,.1.1.2.2.3h0c0,.2.1.3.3.4a2.269,2.269,0,0,1-.3,2.7C154.6,31.6,154.6,31.6,154.6,31.7Z"/>
          <path id="Path_55" data-name="Path 55" class="cls-3" d="M176.1,34.9c.3.1.6.1.8.2.6.3,1.7,1.1,1.7,1.6a2.5,2.5,0,0,1,.6,2.3c-.2.1-.2.3-.2.5a2.775,2.775,0,0,1-3.1.6,3.592,3.592,0,0,0-1-.7,2.7,2.7,0,0,0-.7-.8v-.1c0-.2-.1-.4-.3-.4a3.21,3.21,0,0,1-.2-1.7c.1-.1.1-.1.1-.2.1,0,.1,0,.1-.1.2-.1.3-.2.3-.4a4.233,4.233,0,0,1,.7-.5A10.337,10.337,0,0,1,176.1,34.9Z"/>
          <path id="Path_56" data-name="Path 56" class="cls-3" d="M158.8,27.7c1.1-.6,2,0,2.9.5,0,.2.2.3.4.4,1,1.7.9,2.6-.3,3.5-.1,0-.1.1-.2.1a3.6,3.6,0,0,1-2.3.1c-.1-.2-.2-.3-.4-.3-.1-.1-.2-.1-.3-.2-.1-.2-.2-.3-.4-.3,0-.4-.6-.6-.5-1V29.2a1.387,1.387,0,0,1,.7-1.2C158.6,28,158.7,27.9,158.8,27.7Z"/>
          <path id="Path_57" data-name="Path 57" class="cls-3" d="M120,36.1c.3-.1.4-.4.7-.5.2,0,.3-.1.4-.3.1,0,.2-.1.3-.1a9.7,9.7,0,0,1,1.7-.1c1.1.7,1.2,1.3.7,3-.1,0-.1.1-.1.2-.1.2-.2.3-.2.4a3.45,3.45,0,0,0-.8.9.1.1,0,0,0-.1.1c-.2,0-.2.1-.3.3a1.421,1.421,0,0,1-.6.2c-.2,0-.4,0-.5.2H120c-.1-.2-.2-.2-.3-.2a3.039,3.039,0,0,1-.5-.7V37.7c0-.1.1-.1.1-.2a.367.367,0,0,1,.1-.3c.2-.1.3-.2.3-.4.1-.1.1-.2.2-.3C119.9,36.4,120,36.3,120,36.1Z"/>
          <path id="Path_58" data-name="Path 58" class="cls-3" d="M161.7,138.6a2.652,2.652,0,0,1,.6.5v.1h.1a2.55,2.55,0,0,1,0,2.4c-.1.1-.1.2-.2.3,0,.1-.1.1-.2.2a.265.265,0,0,0-.3.3h0l-.2.2h0c-.2,0-.4.1-.4.3a3.62,3.62,0,0,1-2.3,0,2.03,2.03,0,0,1-1.1-1.3v-1.5a1.421,1.421,0,0,0,.2-.6,4.62,4.62,0,0,1,.7-.7c.1-.1.2-.2.3-.2s.3,0,.3-.1a7.413,7.413,0,0,1,2.1-.1A.519.519,0,0,0,161.7,138.6Z"/>
          <path id="Path_59" data-name="Path 59" class="cls-3" d="M105.4,48.5a5.937,5.937,0,0,0-.8.4c-.2-.1-.3-.1-.5.1h-.3c-.2-.1-.5-.2-.7-.3l-.2-.2c0-.2,0-.4-.2-.5V46.8a.844.844,0,0,0,.2-.7c.1-.2.1-.4.2-.6.2-.1.3-.2.3-.4.1-.1.1-.2.2-.3.2-.1.4-.2.3-.5l.2-.2c.3,0,.4-.3.6-.5h.1a.215.215,0,0,0,.2-.2.1.1,0,0,0,.1-.1c.2,0,.3,0,.4-.2.5,0,.9-.5,1.4,0a1.794,1.794,0,0,0,.5.7v1.4c-.1.3-.1.6-.2.8a.908.908,0,0,0-.3.7c0,.1,0,.2-.1.2-.3.2-.5.4-.5.7-.3,0-.4.4-.6.6Q105.55,48.2,105.4,48.5Z"/>
          <path id="Path_60" data-name="Path 60" class="cls-3" d="M165.8,27.7c.4-.1.8-.1,1.3-.2.4.2.9.3,1.3.5h0c.1,0,.1.1.2.1l.1.1c.1.2.2.3.4.3h0a3.328,3.328,0,0,0,.6,1c0,.2.1.3.1.5v1a1.915,1.915,0,0,1-2.3,1.4c-.2,0-.4-.1-.6-.1-.1-.2-.2-.3-.4-.3-.1-.1-.2-.1-.3-.2s-.2-.3-.4-.3a.215.215,0,0,0-.2-.2.265.265,0,0,0-.3-.3v-.1c0-.2-.1-.3-.3-.4a2.775,2.775,0,0,1,0-1.8c.2-.1.3-.2.3-.4l.2-.2C165.6,28,165.8,27.9,165.8,27.7Z"/>
          <path id="Path_61" data-name="Path 61" class="cls-3" d="M169.7,139.1c0,.1.1.2.1.4v1.2a.6.6,0,0,1-.1.4c-.1.1-.1.2-.2.2-.2.3-.3.5-.5.8-.2,0-.3.2-.4.4a.758.758,0,0,1-.4.2c-.1,0-.1.1-.2.1a3.038,3.038,0,0,1-2.3.1c-.1-.2-.2-.3-.4-.3l-.2-.2c0-.1,0-.3-.2-.3a2.51,2.51,0,0,1-.1-1.9c.2-.1.3-.2.3-.4v-.1l.2-.2c.1-.1.1-.1.1-.2l.2-.2h0l.2-.2c.1,0,.1-.1.2-.1l.2-.2h.1c.2,0,.4-.1.4-.3a13.351,13.351,0,0,1,2,0l.2.2c.1,0,.1.1.2.1A2.2,2.2,0,0,0,169.7,139.1Z"/>
          <path id="Path_62" data-name="Path 62" class="cls-3" d="M114,35.8c.3-.2.5-.3.8-.5.1-.1.2-.1.2-.2a.6.6,0,0,0,.4-.1h1c.2.1.3.1.5.2,0,.1,0,.3.2.3a3.267,3.267,0,0,1,0,1.7c-.2.1-.2.2-.1.3a4.67,4.67,0,0,1-2.8,2.7,1.49,1.49,0,0,1-1.8-.7V38c.1-.2.1-.3.2-.5a.55.55,0,0,0,.3-.5c.1-.1.1-.2.2-.3.2-.1.4-.2.4-.5.1,0,.1-.1.1-.2C113.9,36.1,114,36,114,35.8Z"/>
          <path id="Path_63" data-name="Path 63" class="cls-3" d="M129.6,28.6h0c.3,0,.4-.2.5-.4a3.353,3.353,0,0,1,2.4-.6,5.242,5.242,0,0,1,1,1.1,7.568,7.568,0,0,1-.1,1.5c-.2.1-.3.2-.3.4a1,1,0,0,1-.4.5c-.1,0-.1,0-.1.1-.1.1-.1.2-.2.3-.2,0-.3.1-.4.3a.52.52,0,0,0-.4.2c-.2,0-.4.1-.4.3a6.6,6.6,0,0,1-1.4.1.764.764,0,0,0-.5-.2l-.3-.3c-.1-.2-.1-.4-.3-.5a3.21,3.21,0,0,1,.1-1.4c.2-.1.2-.4.3-.6s.2-.3.2-.5C129.5,29,129.6,28.8,129.6,28.6Z"/>
          <path id="Path_64" data-name="Path 64" class="cls-3" d="M191.9,134.4a.1.1,0,0,0-.1.1c-.2,0-.3.2-.4.4-.3.2-.5.3-.8.5l-.2.2h-.2a9.651,9.651,0,0,1-1.7,0,1.832,1.832,0,0,1-.6-1.7c.1-.1.3-.2.3-.3.1-1.3,1-2,1.8-2.9.2-.1.5-.2.7-.3h.1s1.3.1,1.8.2c.1.2.2.5.3.7v.8c-.1.7-.6,1.1-.7,1.8C192,134.1,191.9,134.2,191.9,134.4Z"/>
          <path id="Path_65" data-name="Path 65" class="cls-3" d="M122.4,32a1.676,1.676,0,0,1-.3-1.2c0-.1.1-.1.1-.2h0a.1.1,0,0,0,.1-.1,4.522,4.522,0,0,1,2-2.3c.7-.4,1.4-.8,2.2-.2s.4,1.4.3,2.1c-.2.1-.3.2-.3.4v.1c0,.1-.1.1-.2.2-.3.4-.7.7-1,1.1-.2,0-.3.1-.3.2h-.1c-.4.1-.7.1-.9.4h-.5c-.2-.1-.5-.3-.7-.2a1990298277659.516,1990298277659.516,0,0,0-.2-.2h0Z"/>
          <path id="Path_66" data-name="Path 66" class="cls-3" d="M197.4,130.4a3.4,3.4,0,0,1,1,.1h0a1.436,1.436,0,0,1,.5,1.8c-.2.5-.2,1.1-.7,1.4a1.157,1.157,0,0,0-.5.7,11.275,11.275,0,0,1-1.8,1.2h-1.3l-.1-.1c0-.2,0-.4-.2-.4v-1.2c.2-.1.2-.3.2-.5v-.3l.2-.2c.1-.1.1-.2.2-.3.1,0,.1-.1.1-.2a11.318,11.318,0,0,0,1-1.3c.2,0,.5-.1.5-.4a1.421,1.421,0,0,1,.6-.2C197.2,130.6,197.4,130.6,197.4,130.4Z"/>
          <path id="Path_67" data-name="Path 67" class="cls-3" d="M108,40.3h-.9c0-.2-.1-.2-.3-.3-.6-.7-.2-1.4-.1-2.1.2-.1.2-.2.2-.4,0-.1,0-.2.1-.2.2-.2.4-.3.5-.6l1.2-1.2c.2,0,.3-.1.4-.3.2-.1.4-.1.6-.2,1.4-.1,1.5,0,1.7,1.4,0,.2-.1.3-.1.5-.1.1-.2.2-.2.3v.3a6.07,6.07,0,0,0-.7,1l-1,1c-.2,0-.3.1-.4.3-.1.1-.3.1-.4.2C108.3,40.1,108.1,40.1,108,40.3Z"/>
          <path id="Path_68" data-name="Path 68" class="cls-3" d="M187,138.4c1.6-.3,1.7-.3,2.1.7h0v.1c0,.2-.1.5-.1.7-.2.1-.2.3-.2.5l-.9,1.2c-.1,0-.1.1-.2.2-.3.2-.6.5-.9.7a.349.349,0,0,1-.2.1h-.2c-.2,0-.3.1-.4.3h-.1c-.6.2-1.2.4-1.6-.1-.5-.5-.3-1.1-.1-1.7,0-.2.1-.3.2-.5.1,0,.1-.1.1-.2.1-.3.5-.5.6-.8.2,0,.3-.2.4-.4a5.5,5.5,0,0,0,.9-.7C186.9,138.6,187,138.6,187,138.4Z"/>
          <path id="Path_69" data-name="Path 69" class="cls-3" d="M157.1,23.5v-1a.367.367,0,0,0,.1-.3V22l.2-.2a2.172,2.172,0,0,1,1.8-.8,3.6,3.6,0,0,1,2.2,1.8c.2,1.6-.3,2.3-1.9,2.6a2.5,2.5,0,0,1-1.8-.8.215.215,0,0,0-.2-.2,4.347,4.347,0,0,1-.4-.7C157.2,23.7,157.2,23.6,157.1,23.5Z"/>
          <path id="Path_70" data-name="Path 70" class="cls-3" d="M150.7,22.2l.7-.7a1.909,1.909,0,0,0,.8-.3c.3,0,.6-.1.9-.1a1.222,1.222,0,0,0,.9.4,2.038,2.038,0,0,1,.8,2.5,2.459,2.459,0,0,1-2.2,1.4h-.7c-.3-.1-.5-.2-.8-.3a.821.821,0,0,0-.5-.5v-.1c0-.1,0-.3-.2-.3V22.8A.6.6,0,0,0,150.7,22.2Z"/>
          <path id="Path_71" data-name="Path 71" class="cls-3" d="M119.5,31.5c-.4.1-.6.4-1,.6a.215.215,0,0,0-.2.2,1.929,1.929,0,0,0-1,.3c-.1-.2-.2-.2-.3-.1-.2-.2-.4-.3-.5-.4,0-.1,0-.3-.2-.3v-.9a.844.844,0,0,0,.2-.7c.1-.1.1-.2.2-.2.2-.1.3-.2.3-.4h0a1,1,0,0,0,.4-.5,7.487,7.487,0,0,1,1.8-1.3c1.1-.5,2.1-.2,1.8,1.2v.3c0,.1-.1.1-.1.2a.6.6,0,0,0-.1.4c-.2.1-.3.2-.3.4a1.381,1.381,0,0,0-.3.4l-.1.1c-.1.1-.1.2-.2.3C119.7,31.2,119.5,31.3,119.5,31.5Z"/>
          <path id="Path_72" data-name="Path 72" class="cls-3" d="M148.5,22.6a1.1,1.1,0,0,0,0,.8c-.2.1-.3.2-.3.4-.2.3-.4.5-.6.8l-.2.2c-.1.1-.2.1-.3.2a.6.6,0,0,0-.6.3c-.4-.1-.8.2-1.2.2-.1,0-.1-.1-.2-.1-.1-.1-.2-.1-.4-.2-.1,0-.1-.1-.2-.1a1.205,1.205,0,0,1-.5-.5c0-.1,0-.3-.2-.3V23.1c.2,0,.2-.2.2-.3a2.94,2.94,0,0,1,1-1.2c.2,0,.4-.1.4-.3a3.267,3.267,0,0,1,1.7,0c.1.2.2.3.4.3.2.2.3.4.5.5S148.2,22.5,148.5,22.6Z"/>
          <path id="Path_73" data-name="Path 73" class="cls-3" d="M140,25.3c-.4,0-.8.1-1.2.1a2.335,2.335,0,0,1-1.2-1v-.6a3.072,3.072,0,0,1,1.7-2.4c.2,0,.3-.1.4-.3a2.556,2.556,0,0,1,1.5,0c.2.3.5.5.7.8.3.6,0,1.2-.2,1.8a.349.349,0,0,1-.1.2h0l-.1.1a.1.1,0,0,0-.1.1l-.2.2h0a1.794,1.794,0,0,0-.7.5h-.2C140.3,25,140.1,25.1,140,25.3Z"/>
          <path id="Path_74" data-name="Path 74" class="cls-3" d="M105.7,35.1c.5.6,0,1.2,0,1.9-.6.8-1.2,1.6-1.8,2.5-.1,0-.1.1-.2.1-.2,0-.4.1-.4.3a3.552,3.552,0,0,0-.9.4.722.722,0,0,1-1.1-.2c0-.2,0-.4-.2-.5v-.3a.844.844,0,0,0,.2-.7c0-.5.5-.8.6-1.3.2-.2.5-.4.5-.7a.1.1,0,0,0,.1-.1c.1,0,.1,0,.1-.1l.3-.3c.3-.1.5-.2.5-.5a.1.1,0,0,0,.1-.1.55.55,0,0,0,.5-.3c.2-.1.4-.1.5-.2A4.483,4.483,0,0,1,105.7,35.1Z"/>
          <path id="Path_75" data-name="Path 75" class="cls-3" d="M135.2,24.3a5.372,5.372,0,0,1-1.6,1,1.37,1.37,0,0,1-1.5-.1,1.254,1.254,0,0,1-.4-1.6,3.964,3.964,0,0,1,3-2.6,1.191,1.191,0,0,1,1.4,1.3,4.253,4.253,0,0,1-.2,1.1C135.5,23.6,135.4,24,135.2,24.3Z"/>
          <path id="Path_76" data-name="Path 76" class="cls-3" d="M178.8,143c-.6-.5-.5-1.1-.4-1.8,0-.1.1-.1.1-.2.1,0,1.7-2.1,2.3-2.6a.844.844,0,0,0,.7-.2c.5.3,1.1.4,1.6.7a3.767,3.767,0,0,1-.8,2.7,1.852,1.852,0,0,0-.7.8c-.2.1-.3.2-.5.3-.2,0-.4.1-.4.3C180.1,143,179.4,143.4,178.8,143Z"/>
          <path id="Path_77" data-name="Path 77" class="cls-3" d="M112.5,32.3c-.6.1-1.3.4-1.6-.5v-.5a2.92,2.92,0,0,0,.2-.9c.2-.1.3-.2.3-.4.2-.3.5-.6.7-.9a.781.781,0,0,0,.4-.4c.2-.1.4-.1.5-.4.2-.1.4-.1.5-.3h.2c.2,0,.3-.1.4-.3.5-.1.9-.3,1.4,0,0,.1,0,.3.2.3a.9.9,0,0,0,.1.5c-.2.1-.2.3-.2.5v.3a2.092,2.092,0,0,0-.4.6c0,.1-.1.1-.1.2s-.1.1-.1.2c-.2.2-.2.6-.6.7-.2,0-.3.1-.4.3l-.2.2c-.2,0-.3.1-.4.3a.758.758,0,0,1-.4.2A2.186,2.186,0,0,0,112.5,32.3Z"/>
          <path id="Path_78" data-name="Path 78" class="cls-3" d="M126,24.3c0-1.4,2.1-3.2,3.5-3.3a1.044,1.044,0,0,1,1,1.3,4.5,4.5,0,0,1-3.3,3.1C126.4,25.5,126,25.1,126,24.3Z"/>
          <path id="Path_79" data-name="Path 79" class="cls-3" d="M186.3,132.3c0,.2-.1.4-.1.6-.1.2-.2.3-.2.5-.1.1-1.2,1.5-1.4,1.7-.2,0-.3.1-.4.3a1.422,1.422,0,0,0-.6.2c-.2,0-.5-.1-.7.1h-.3c-.1-.2-.3-.1-.5-.2a.367.367,0,0,1-.3-.1l-.2-.2h0c0-.1-.1-.2-.2-.3l-.1-.1c0-.6-.1-1.2-.1-1.8a6.369,6.369,0,0,0,.2-.7c0-.1.1-.1.1-.2a5.531,5.531,0,0,1,1.2-1.4l.1-.1a2.471,2.471,0,0,1,.9-.4c.3,0,.6-.1.9-.1C184.8,130.6,186.8,130.6,186.3,132.3Z"/>
          <path id="Path_80" data-name="Path 80" class="cls-3" d="M121.5,25.4a.844.844,0,0,1-.8-1.2,5.341,5.341,0,0,1,3.6-3.1.67.67,0,0,1,.8.3.76.76,0,0,1,0,1,5.081,5.081,0,0,1-2.4,2.6A2.144,2.144,0,0,1,121.5,25.4Z"/>
          <path id="Path_81" data-name="Path 81" class="cls-3" d="M107.5,32.3c-.4,0-.7.3-1.1,0l-.3-.3v-.8a.6.6,0,0,0,.3-.6c.1-.1.1-.2.2-.3a.215.215,0,0,1,.2-.2,6.4,6.4,0,0,1,2.6-2.3c.4-.2.8-.5,1.3-.1s.1.8.1,1.2c-.3.1-.3.3-.3.6a8.65,8.65,0,0,0-.7,1c-.2,0-.3.2-.3.4l-.2.2c-.2,0-.3.1-.4.3-.1.1-.2.1-.3.2-.1,0-.2,0-.2.1h0l-.2.2c-.1.1-.2.1-.3.2A.52.52,0,0,0,107.5,32.3Z"/>
          <path id="Path_82" data-name="Path 82" class="cls-3" d="M116,24.6a.758.758,0,0,1,.2-.4,7.087,7.087,0,0,1,3.6-3c.3-.1.6-.2.8.1.3.3.2.6,0,.9a6.105,6.105,0,0,1-3.5,3.2C116.3,25.6,116,25.3,116,24.6Z"/>
          <path id="Path_83" data-name="Path 83" class="cls-3" d="M156.4,17.5c.1-.5-.1-1.2.5-1.5.2,0,.3-.1.4-.3a3.079,3.079,0,0,1,1.9.3c.1.2.2.3.4.3.9,1.4.9,1.7,0,2.7-.2,0-.3.1-.4.3h-.6a3.805,3.805,0,0,1-1.7-.8l-.2-.2C156.7,18,156.5,17.8,156.4,17.5Z"/>
          <path id="Path_84" data-name="Path 84" class="cls-3" d="M141.2,19.2c-1,0-1.4-.8-1.1-1.8a3.129,3.129,0,0,1,2.5-1.8,1.125,1.125,0,0,1,1.2,1.4A2.682,2.682,0,0,1,141.2,19.2Z"/>
          <path id="Path_85" data-name="Path 85" class="cls-3" d="M195.5,125.9c-.8.8-1.5,1.8-2.9,1.7-1-.3-1.4-.6-1.4-1.8v-1a.764.764,0,0,0,.2-.5c.1-.2.3-.3.2-.6.2-.1.3-.2.3-.4,0-.1.1-.1.1-.2a.265.265,0,0,0,.3-.3l.2-.2h.2c1.1-.6,2.3-1,3-.3C197,123.3,195.5,125.3,195.5,125.9Z"/>
          <path id="Path_86" data-name="Path 86" class="cls-3" d="M145.8,19c-.1,0-.1-.1-.2-.2,0-.2-.1-.3-.3-.4a2.709,2.709,0,0,1,1.1-2.5c.1,0,.2,0,.2-.1a2.108,2.108,0,0,1,1.9.1c.2.2.3.4.5.6a2.622,2.622,0,0,1-.2,1.5c-.2.1-.3.2-.3.4h0a.664.664,0,0,0-.5.4l-.2.2c-.2,0-.4,0-.5.2a2.879,2.879,0,0,1-1.3-.1C146.1,19,146,19,145.8,19Z"/>
          <path id="Path_87" data-name="Path 87" class="cls-3" d="M105.9,29.9c-.3.2-.4.5-.6.7l-.1.1a7.831,7.831,0,0,1-2,1.6c-.3.1-.6.3-.9.1,0-.1-.1-.1-.1-.2-.1-.4.1-.7.2-1.1,0-.1.1-.2.1-.3,0,0,.1-.1,0-.1.2-.2.5-.3.4-.6.1-.1.1-.2.2-.3.2-.1.3-.2.3-.4h0a1.205,1.205,0,0,0,.5-.5c.5-.3.9-.7,1.4-1,.1,0,.2,0,.2-.1.1-.1.2-.1.3-.2a.349.349,0,0,0,.2-.1h.5c.1.1.2.2.2.3v.6c-.2.1-.3.2-.3.4l-.3.6A.764.764,0,0,0,105.9,29.9Z"/>
          <path id="Path_88" data-name="Path 88" class="cls-3" d="M111.8,25.2c0-.2-.1-.4-.1-.6.2-.1.3-.2.3-.4.1-.1.1-.2.2-.3.4-.5.9-.9,1.3-1.4a21.158,21.158,0,0,1,2-1.2c.3-.1.6-.4.9-.1s.1.7-.1,1.1l-1.5,1.8c-.2,0-.3.1-.4.3h0c-.1,0-.1.1-.2.1a8.794,8.794,0,0,1-1,.6c-.2,0-.4.1-.4.3h-.2c-.1,0-.2.1-.3.1s-.3-.1-.4-.1C111.9,25.3,111.8,25.3,111.8,25.2Z"/>
          <path id="Path_89" data-name="Path 89" class="cls-3" d="M161.3,5.8h.5c.2.2.4.1.5-.2h.2c.2.4.5.2.8.2a7.106,7.106,0,0,0,2.1.3c.1.3.2.3.5.2.5,0,1,.3,1.5.3v.2h-1.9c-.1-.1-.2-.2-.3,0-.1,0-.1.1-.2.1-.1-.1-.2-.1-.4-.1a1.268,1.268,0,0,1-.6-.1c-.3-.2-.5-.3-.6.1-.4-.1-.9-.2-1.3-.3-.3,0-.6.4-1,.2a.367.367,0,0,1-.3-.1c-.3-.1-.6-.3-.9-.4-.1-.1-.4-.1-.4.1.2.6-.2.3-.4.3-.5,0-.8-.5-1.3-.5-.1-.2-.2-.2-.4-.2,0,0-.1.1,0,.1.1.1.2.1.4.2.1.2.1.4-.3.4a2.1,2.1,0,0,1-1.1-.4l-.6-.6c.6-.3,1.2.3,1.9,0a12.75,12.75,0,0,1,2-.1h.5A.748.748,0,0,0,161.3,5.8Z"/>
          <path id="Path_90" data-name="Path 90" class="cls-3" d="M133.6,17.8c0,.1-.1.1-.2.2-.5.3-.9.7-1.4,1h-.1c-.2,0-.4,0-.4.3h-.3c-1-.1-1.2-.3-.9-1.3a.462.462,0,0,0,.3-.5l.7-.7a.265.265,0,0,0,.3-.3h0a.634.634,0,0,0,.6-.5,5.638,5.638,0,0,0,1.2-.4.687.687,0,0,1,.9.3.6.6,0,0,1,0,.8c-.1.2-.2.5-.3.7C133.7,17.5,133.6,17.6,133.6,17.8Z"/>
          <path id="Path_91" data-name="Path 91" class="cls-3" d="M126.6,17.2c.1,0,.1-.1.2-.2.2,0,.3-.1.4-.3a6.985,6.985,0,0,1,2.1-1.1c.5-.2.7-.1.9.4v.3c-.1.2-.1.3-.2.5a.462.462,0,0,0-.3.5h0a5.242,5.242,0,0,0-1.1,1c-.6.3-1.1.6-1.7.9-.6.2-1.1.2-1.2-.6a6.07,6.07,0,0,0,.7-1h0A.758.758,0,0,0,126.6,17.2Z"/>
          <path id="Path_92" data-name="Path 92" class="cls-3" d="M102.7,29.3c-.3.1-.4.5-.6.7-.1,0-.1.1-.2.2s-.1.2-.2.3c-.2,0-.3.2-.4.4-.1,0-.1.1-.2.1-.3,0-.4.3-.6.5-.6.3-1,.9-1.7,1-.1-.1-.1-.3-.3-.3v-.4c.2-.1.2-.2.2-.3.1-.2.2-.3.2-.5.2,0,.3-.2.3-.4l.1-.1c.4-.2.5-.5.7-.8a1.205,1.205,0,0,0,.5-.5c.2,0,.2-.1.2-.2a1.024,1.024,0,0,0,.6-.5c.2,0,.3-.2.4-.3s.2-.1.3-.2c.2,0,.3-.1.4-.3,1-.2,1-.2.7.7-.2.1-.3.2-.3.4v.1A.756.756,0,0,0,102.7,29.3Z"/>
          <path id="Path_93" data-name="Path 93" class="cls-3" d="M125,17.6a8.842,8.842,0,0,1-2.3,1.4c-.4.1-.7.4-1,.1-.4-.4.1-.6.2-1l1.2-1.2c.1-.1.2-.1.3-.2.2,0,.2-.1.3-.3h.1c.2,0,.4-.1.4-.3.3.1.4-.1.6-.2.2,0,.4,0,.4-.3h.2c.3,0,.6-.2.8.1s-.1.5-.2.7c-.1.1-.2.3-.3.4A1.853,1.853,0,0,1,125,17.6Z"/>
          <path id="Path_94" data-name="Path 94" class="cls-3" d="M113,21.8h0a17.383,17.383,0,0,0-1.3,1.5.781.781,0,0,0-.4.4.265.265,0,0,0-.3.3h0c-.2,0-.3.1-.4.3-.1.1-.2.1-.2.2a.462.462,0,0,0-.5.3c-.1,0-.1.1-.2.1a.55.55,0,0,0-.5.3,2.769,2.769,0,0,0-.9.1c0-.1-.1-.1-.1-.2v-.5a14.21,14.21,0,0,1,2.4-2.5,4.129,4.129,0,0,0,1.1-.7,1.8,1.8,0,0,0,.9-.4c.1,0,.1-.1.2-.1a.367.367,0,0,0,.3.1h0A2.815,2.815,0,0,0,113,21.8Z"/>
          <path id="Path_95" data-name="Path 95" class="cls-3" d="M154.5,12.4a.454.454,0,0,0,0,.5c-.3.4-.5.7-.8,1.1a.367.367,0,0,0-.3.1,2.2,2.2,0,0,1-2-.7V12.2l.9-.9h1.1a.918.918,0,0,0,.6.4.758.758,0,0,1,.2.4A.747.747,0,0,0,154.5,12.4Z"/>
          <path id="Path_96" data-name="Path 96" class="cls-3" d="M109.9,18c.2,0,.3,0,.4-.2a.215.215,0,0,0,.2-.2c.1,0,.2-.1.3-.1a1.02,1.02,0,0,0,.8-.5h.1c.2,0,.4-.1.4-.3.1-.1.3-.1.4-.2.2,0,.5,0,.5-.3.1,0,.1-.1.2-.1.1.1.2.1.3-.1h.3c.1.9.5.3.8.1.2-.1.4-.1.6-.3.1,0,.1-.1.2-.1.1.1.3.1.3.3l-.2.2a8.88,8.88,0,0,0-2.2,1.6c-.2,0-.3.1-.3.2h0c-.3,0-.5,0-.6.3l-.2.2c-.3,0-.5,0-.7.3-.4.1-.7.3-1.1.4a.764.764,0,0,1,.2-.5c.3-.2.6-.3.8-.7-.4-.1-.6.2-.9.4-.1.1-.3.1-.4.3-.2.1-.4.1-.5.3-.1,0-.3,0-.3.1-.2,0-.3,0-.4-.1.2-.1.2-.2,0-.4l.1-.1C109.5,18.5,109.7,18.4,109.9,18Zm3.8-1.5c-.4-.1-.4.2-.6.4C113.4,17,113.5,16.8,113.7,16.5Z"/>
          <path id="Path_97" data-name="Path 97" class="cls-3" d="M147.2,12.1c.2-.2.4-.2.5-.5.1-.1.1-.1.2-.1h0c.1,0,.3,0,.3-.1a2.537,2.537,0,0,1,1.2-.2c.8.9.8,1.6-.2,2.6-.2.1-.3.1-.5.2a2.622,2.622,0,0,1-1.5-.2h0c0-.1,0-.3-.2-.3v-.8A.735.735,0,0,0,147.2,12.1Z"/>
          <path id="Path_98" data-name="Path 98" class="cls-3" d="M120.1,16.7c.6-.1.9-.6,1.4-.7.2,0,.4-.1.4-.3a1.268,1.268,0,0,0,.6-.1h.2c.5.3.1.5,0,.8-.1,0-.2.2-.2.3h0a3.447,3.447,0,0,0-1.2,1.2.758.758,0,0,1-.4.2c-.2,0-.3.1-.4.3-.3.2-.5.3-.8.5a.1.1,0,0,0-.1.1c-.2.1-.4.1-.5.2-.1,0-.3,0-.3.2-.2-.1-.5.1-.7-.2-.1-.3.1-.5.3-.7.1-.1.2-.3.4-.4A4.357,4.357,0,0,1,120.1,16.7Z"/>
          <path id="Path_99" data-name="Path 99" class="cls-3" d="M145.2,13.3c-.1.1-.2.1-.2.2-.2,0-.2.1-.3.3-.2.1-.4.1-.6.2h-1.2a.349.349,0,0,0-.2-.1c-.4-.4-.1-.9,0-1.3.2-.1.3-.2.3-.4l.2-.2c.2,0,.3-.1.4-.3.1-.1.3-.1.4-.2.2,0,.3-.1.4-.3h.8a.349.349,0,0,1,.2.1h0c.1.2.2.3.3.5v.6c-.2.1-.3.2-.3.4-.1.1-.1.2-.2.3C145.4,13.1,145.3,13.2,145.2,13.3Z"/>
          <path id="Path_100" data-name="Path 100" class="cls-3" d="M107.8,22.3a8.342,8.342,0,0,1,1.2-.8.55.55,0,0,0,.5-.3h.2a.321.321,0,0,1,.5.4c-.2,0-.2.2-.2.3l-.1.1c-.8.8-1.7,1.6-2.5,2.4a4.129,4.129,0,0,0-1.1.7c-.2,0-.3.1-.4.3-.2,0-.4.1-.6.1,0-.1-.1-.1-.1-.2v-.2a1.8,1.8,0,0,0,.6-.9l.7-.7A15.38,15.38,0,0,0,107.8,22.3Z"/>
          <path id="Path_101" data-name="Path 101" class="cls-3" d="M97.9,31.4l-1.2.9c-.4.2-.7.2-.5-.4.4-.9,1.3-1.4,1.7-2.4h0a.462.462,0,0,0,.5-.3c.1-.1.2-.2,0-.3h0c.4.2.4-.1.6-.3a.55.55,0,0,0,.5-.3,3.508,3.508,0,0,1,.8-.5c.1,0,.1-.1.2-.1.4.1.3.3.3.6-.2.1-.3.2-.3.4-.2.3-.5.4-.6.8-.3.2-.5.3-.5.7h-.1l-.2.2a.52.52,0,0,0-.2.4h0c-.3,0-.4.3-.6.4C98,31.1,97.9,31.2,97.9,31.4Z"/>
          <path id="Path_102" data-name="Path 102" class="cls-3" d="M141.1,13.3c-.1.1-.2.1-.3.2a1.612,1.612,0,0,0-.7.4c-.2,0-.3.1-.5.1a3.4,3.4,0,0,1-1-.1h0a2.2,2.2,0,0,0-.1-.8,10.593,10.593,0,0,0,1-1.2c.2,0,.3-.1.4-.3a3.085,3.085,0,0,1,1.8-.5l.3.3c-.1.3-.1.6-.2.9-.2.1-.3.2-.3.4-.1,0-.1.1-.2.2C141.2,12.9,141.1,13.1,141.1,13.3Z"/>
          <path id="Path_103" data-name="Path 103" class="cls-3" d="M136.5,11.6a1.421,1.421,0,0,1,.6-.2c.2,0,.4,0,.4-.3.4.1,1.3-.3.9.8a1,1,0,0,0-.4.5c-.4.1-.6.5-.8.8h0c-.1.1-.3.1-.4.2-.3.2-.7.3-1,.5h-1c-.2-.1-.1-.3-.2-.5a.52.52,0,0,0,.2-.4c.3-.1.3-.3.5-.5A3.449,3.449,0,0,0,136.5,11.6Z"/>
          <path id="Path_104" data-name="Path 104" class="cls-3" d="M117.9,17.8c-.3.2-.5.3-.8.5l-.2.2h-.1c-.2,0-.3.1-.4.3a1.421,1.421,0,0,1-.6.2c-.1,0-.3,0-.3.2H115v-.6c.1-.2.3-.3.5-.5.7-.6,1.4-1.1,2.1-1.6.4,0,.6-.3.9-.5.2,0,.5,0,.6-.3h.9a1.456,1.456,0,0,1-.6.9c-.3.3-.8.4-.9.8-.1,0-.1,0-.1.1A.462.462,0,0,0,117.9,17.8Z"/>
          <path id="Path_105" data-name="Path 105" class="cls-3" d="M134.4,11.2c.3,0,.8-.2,1,.3,0,.1-.1.1-.1.2a5.5,5.5,0,0,0-.7.9c-.2,0-.3.1-.4.3l-.2.2c-.2,0-.4.1-.4.3-.1.1-.3.1-.4.2-.2,0-.4.1-.4.3-.2.1-.4.1-.6.2h-1c-.1-.5.3-.8.6-1.1a8.777,8.777,0,0,0,1.5-1.2,1.421,1.421,0,0,0,.6-.2C134,11.5,134.2,11.4,134.4,11.2Z"/>
          <path id="Path_106" data-name="Path 106" class="cls-3" d="M130.1,13.2c-.1.1-.3.1-.4.2-.1,0-.2,0-.2.2-.4.1-.7.3-1.1.4h-.7c-.1-.2,0-.3,0-.4a.781.781,0,0,0,.4-.4c.2-.1.4-.3.6-.4.1,0,.1,0,.1-.1.1-.1.2-.1.4-.2.1,0,.2,0,.2-.1.6-.3,1.1-.6,1.7-.9.2,0,.4,0,.5-.3.3.1.7-.2.9.3A20.709,20.709,0,0,1,130.1,13.2Z"/>
          <path id="Path_107" data-name="Path 107" class="cls-3" d="M103.3,25.3c-.1,0-.2.1-.3.1-.1-.1-.1-.3-.2-.4,0-.1.1-.1.1-.2.1-.1.1-.2.2-.3a.265.265,0,0,0,.3-.3c.2-.2.7-.3.6-.8h0c.5,0,.7-.3.9-.7h0a4.072,4.072,0,0,0,1.7-1.2c.1-.1.2-.1.3-.2.2,0,.4-.1.4-.3.2.1.3-.3.5,0,.1.2,0,.3-.1.4-.2.2-.3.4-.5.6-.4.4-.9.8-1.3,1.2-.1.1-.2.1-.2.2a3.114,3.114,0,0,0-.9.7c-.1.1-.2.1-.3.2-.1,0-.3,0-.3.2a1,1,0,0,0-.5.4A.781.781,0,0,0,103.3,25.3Z"/>
          <path id="Path_108" data-name="Path 108" class="cls-3" d="M115,18c-.1,0-.3,0-.3.2-.1,0-.1.1-.2.1-.5.3-1.1.5-1.6.8-.2.1-.4.2-.5-.1.2-.1.2-.2.2-.3l.2-.2c.3-.1.5-.2.3-.5h0c.2.2.4,0,.5-.2a8.008,8.008,0,0,0,2.1-1.5,6.89,6.89,0,0,0,.8-.3c.2,0,.4-.1.4-.3.2,0,.4-.1.6-.1V16h0l-.1.1-.1.1C116.5,16.8,115.8,17.4,115,18Z"/>
          <path id="Path_109" data-name="Path 109" class="cls-3" d="M101.9,24a5.8,5.8,0,0,0,1.2-1c.3,0,.4-.1.4-.3.3-.2.6-.5.9-.7.4.2.7-.2,1-.1-.1.4-.6.5-.6.9h0c-.5-.1-.7.3-.9.7h0c-.3,0-.5.3-.7.5-.3.1-.4.3-.6.5a.55.55,0,0,0-.5.3c-.3.1-.5.5-.9.5.1-.2.1-.4.2-.6.1,0,.2,0,.2-.1a.1.1,0,0,0-.1-.1c-.1,0-.2,0-.2.2-.1,0-.2-.1-.3-.1.2,0,.2-.1.3-.3C101.8,24.3,101.9,24.2,101.9,24Z"/>
          <path id="Path_110" data-name="Path 110" class="cls-3" d="M94.4,32.4a16.085,16.085,0,0,1,3.2-3.7l.6-.6c.2-.2.4-.3.6-.5.2.4-.2.6-.2.9-.2.1-.3.2-.2.4h0c-.1-.1-.2,0-.2.1-.3.1-.5.3-.3.6h0a.3.3,0,0,0-.4,0c-.6.6-1.2,1.3-1.7,1.9h-.1c-.2,0-.3.1-.4.3-.1.1-.2.1-.3.2-.1,0-.1,0-.1.1-.1.1-.2.1-.4.2a.1.1,0,0,1-.1.1Z"/>
          <path id="Path_111" data-name="Path 111" class="cls-3" d="M157.9,7.9a1.949,1.949,0,0,0,.8-.1c.5.1.8.6,1.3.8a1.794,1.794,0,0,0,.5.7c-.2.8-.8.6-1.3.6-.1-.2-.2-.2-.4-.2h0c0-.2-.2-.3-.4-.3C158.2,8.9,157.8,8.6,157.9,7.9Z"/>
          <path id="Path_112" data-name="Path 112" class="cls-3" d="M148.8,8.6c.2-.1.4-.2.4-.5l.6-.3h.8a1.232,1.232,0,0,1,.2,1c-.2.1-.2.2-.2.3-.1.1-.2.2-.2.3-.2.1-.3.2-.5.3h-.3a2.2,2.2,0,0,1-.8-.1c-.1-.2-.2-.3-.2-.5V8.8C148.7,8.9,148.8,8.8,148.8,8.6Z"/>
          <path id="Path_113" data-name="Path 113" class="cls-3" d="M147.2,7.9c.4.1,1.1-.3.9.6h0l-.2.2c0,.1-.1.1-.1.2-.2,0-.2.2-.2.3-.1.1-.2.1-.2.2a.215.215,0,0,0-.2.2c-.1,0-.2.1-.3.2l-.2.2h-.9c-.1,0-.1-.1-.2-.1,0-.1-.1-.1-.1-.2a8.341,8.341,0,0,1,.8-1.2A2.034,2.034,0,0,1,147.2,7.9Z"/>
          <path id="Path_114" data-name="Path 114" class="cls-3" d="M161.1,8.9H161a1.756,1.756,0,0,0-.4-.5c0-.2-.1-.3-.1-.5h1.1a.764.764,0,0,0,.5.2.55.55,0,0,0,.5.3c.1.1.1.1.2.1l.8.8h0a.9.9,0,0,1-.1.5h-.3a3.672,3.672,0,0,1-2-.9C161.2,9,161.2,8.9,161.1,8.9Z"/>
          <path id="Path_115" data-name="Path 115" class="cls-3" d="M143.6,9.8c-.1,0-.2.1-.3.2h-.7c-.2,0-.3-.2-.3-.4.2-.5.7-.7,1-1.1.4-.2.9-.4,1.3-.6h.8a.31.31,0,0,0,.1.2c0,.1-.1.2-.1.3l-.8.8c-.3.2-.5.3-.8.5C143.7,9.7,143.7,9.7,143.6,9.8Z"/>
          <path id="Path_116" data-name="Path 116" class="cls-3" d="M163.8,7.9c.3.1.7.3,1,.4l1.5.9.2.2h.1c0,.2,0,.4-.2.5h-.5a.6.6,0,0,1-.4-.1.462.462,0,0,0-.5-.3c-.2-.2-.4-.2-.7-.4-.4-.3-.9-.7-1.3-1l-.1-.1C163.1,7.7,163.5,8,163.8,7.9Z"/>
          <path id="Path_117" data-name="Path 117" class="cls-3" d="M141.6,8.1c.4-.1.7-.2,1.1-.3a.9.9,0,0,1,.5.1c0,.1-.1.2-.1.3a11.32,11.32,0,0,0-1.3,1c-.5.3-1.1.5-1.6.8h-.5c-.4-.4.1-.6.2-.8a1.374,1.374,0,0,0,.8-.5c.2-.1.3-.2.5-.2C141.3,8.4,141.5,8.3,141.6,8.1Z"/>
          <path id="Path_118" data-name="Path 118" class="cls-3" d="M135.5,9.7c-.3-.1-.4.1-.6.2-.2,0-.5-.1-.7-.1.7-.9,1.8-.9,2.6-1.4.2,0,.4,0,.5-.3a3.6,3.6,0,0,1,1.1-.2c.1,0,.4,0,.4.1.1.2-.3.2-.3.5h0a.874.874,0,0,0-.9.5h0c-.5-.2-.9.2-1.3.5H136C135.9,9.4,135.7,9.5,135.5,9.7Z"/>
          <path id="Path_119" data-name="Path 119" class="cls-3" d="M136.8,9.9c-.2-.1,0-.3,0-.4.4,0,.6-.3.8-.6h0c.3-.1.8,0,.9-.5h0a.592.592,0,0,0,.7-.1c.3-.1.7-.3,1-.4a.749.749,0,0,0,.5-.1c.4.2,0,.4,0,.5a1.389,1.389,0,0,0-1,.5c-.2-.1-.2.1-.2.2l-.2.2c-.3-.1-.5.2-.7.2s-.3.1-.4.3a2.92,2.92,0,0,1-.9.2Z"/>
          <path id="Path_120" data-name="Path 120" class="cls-3" d="M167.4,9.5l-.6-.3a9.129,9.129,0,0,0-1.3-.8c-.1-.1-.3-.2-.2-.4a.749.749,0,0,1,.5-.1,2.92,2.92,0,0,0,.9.2,11.154,11.154,0,0,0,2.4,1.3c.1.1.1.2.2.3-.2.3-.5.1-.7.2-.2-.1-.5-.3-.7-.2C167.8,9.5,167.7,9.4,167.4,9.5Z"/>
          <path id="Path_121" data-name="Path 121" class="cls-3" d="M171.3,9.9c-.3-.1-.6-.3-.9-.2a.462.462,0,0,0-.5-.3c-.2-.1-.4-.3-.6-.2-.6-.5-1.5-.6-2.2-1.3h.6l.9.3a11.176,11.176,0,0,0,2.5,1.1c.2.1.3.3.6.2h0c-.2.2,0,.3,0,.5C171.6,9.9,171.5,9.9,171.3,9.9Z"/>
          <path id="Path_122" data-name="Path 122" class="cls-3" d="M172.1,140.6c-.1-.3.3-.4.2-.7.3-.3.5-.6.8-.9h.2c.1.4.9.6.2,1C173.2,140.3,172.9,141.2,172.1,140.6Z"/>
          <path id="Path_123" data-name="Path 123" class="cls-3" d="M151.6,6.7a.758.758,0,0,1-.4.2,2.2,2.2,0,0,1-.8-.1V6.4c.3-.1.4-.3.5-.6.4,0,.7-.4,1.1,0C152,6.2,151.7,6.4,151.6,6.7Z"/>
          <path id="Path_124" data-name="Path 124" class="cls-3" d="M153.4,5.8a.687.687,0,0,1,.3.9c-.2.4-.6.3-.9.3-.1-.1-.2-.1-.3-.2a2.2,2.2,0,0,1,.1-.8C152.8,5.9,153,5.6,153.4,5.8Z"/>
          <path id="Path_125" data-name="Path 125" class="cls-3" d="M150.3,6.2l-.3.3c-.2,0-.3.1-.4.3-.2.1-.4.1-.6.2h-.7V6.7h0c.1,0,.1-.1.2-.1.1-.1.3-.1.4-.3.3-.1.5-.2.8-.3a.6.6,0,0,0,.4-.1c.1,0,.2-.1.3-.1S150.4,6,150.3,6.2Z"/>
          <path id="Path_126" data-name="Path 126" class="cls-3" d="M175.6,138.3a.821.821,0,0,1-.5.5c-.6.5-.7.4-.9-.4C174.7,138.3,175.2,138.1,175.6,138.3Z"/>
          <path id="Path_127" data-name="Path 127" class="cls-3" d="M149.5,125.6c0-.4-.1-.8-.1-1.2a.187.187,0,0,0,0-.3c0-.1.1-.2.1-.4.2-.1.2-.2.2-.3a3.2,3.2,0,0,1,2.4-1.6,2.2,2.2,0,0,0,.8-.1.749.749,0,0,1,.5.1c.1.2.3.2.5.2a.367.367,0,0,1,.3.1c.1.2.2.3.4.3h0a.349.349,0,0,0,.2.1.1.1,0,0,0,.1.1,8.65,8.65,0,0,0,.7,1c.1.3.1.5.2.8v.2c-.1.5-.1.9-.2,1.4a2.276,2.276,0,0,0-.8.9l-.2.2a3.128,3.128,0,0,0-1,.5h-1.7a2.92,2.92,0,0,0-.9-.2q0-.15-.3-.3c-.3-.2-.5-.5-.8-.7.1-.1,0-.1-.1-.1-.1-.1-.1-.3-.2-.4A.192.192,0,0,0,149.5,125.6Z"/>
          <path id="Path_128" data-name="Path 128" class="cls-3" d="M154.1,135.4c-.2.1-.4.1-.6.2h-1.8a1.421,1.421,0,0,0-.6-.2c-.1-.1-.2-.3-.4-.3h-.1l-.3-.3-.2-.2a2.044,2.044,0,0,0-.5-.9,2.9,2.9,0,0,1,0-1.6c.1-.1.1-.2.2-.2v-.1c.1-.1.3-.2.3-.4h0c0-.1.1-.1.1-.2h0c.1-.1.3-.1.3-.3.1-.1.2-.1.3-.2.1,0,.1-.1.2-.1h.3c.2,0,.4,0,.5-.2h1.1c.2.3.4.2.6.2A2.588,2.588,0,0,1,155,132c0,.2,0,.4.2.5v1.2c-.2.1-.2.3-.2.5-.1.2-.1.3-.2.5-.2,0-.3.1-.3.4l-.2.2C154.3,135.1,154.2,135.3,154.1,135.4Z"/>
          <path id="Path_129" data-name="Path 129" class="cls-3" d="M149.1,83.8c.2-.7.8-1,1.2-1.5a1.623,1.623,0,0,0,.9-.5,1.268,1.268,0,0,0,.6-.1h1a4,4,0,0,1,1.8.7,6.469,6.469,0,0,1,.8.9,4.371,4.371,0,0,1,.4,3c-.2.1-.2.3-.2.5,0,.1,0,.2-.1.2a.675.675,0,0,0-.4.6,4.62,4.62,0,0,0-.7.7,4.86,4.86,0,0,1-2.9.5,1.268,1.268,0,0,1-.6-.1c-.1-.1-.2-.1-.3-.2h0c-.1-.2-.2-.3-.4-.3a2.651,2.651,0,0,0-.6-.5c0-.1,0-.3-.2-.3a2.507,2.507,0,0,0-.4-.7c0-.1,0-.3-.2-.3,0-.1-.1-.2-.1-.3.1-.1.1-.2-.1-.3v-1A1.107,1.107,0,0,0,149.1,83.8Z"/>
          <path id="Path_130" data-name="Path 130" class="cls-3" d="M150.7,99c-.2-.1-.3-.2-.5-.2a.821.821,0,0,0-.5-.5h0a.623.623,0,0,0-.3-.5c-.1-.1-.1-.2-.2-.3,0-.2,0-.4-.2-.5a13.4,13.4,0,0,0-.1-2c.3-.2.3-.6.4-.9a2.036,2.036,0,0,1,.6-.7c.3,0,.4-.3.6-.5.1,0,.2-.1.3-.1a.52.52,0,0,0,.4-.2,4.282,4.282,0,0,1,3.5.5c.1.2.2.3.4.3.1.1.1.1.1.2,0,.2.1.4.3.4a1.421,1.421,0,0,1,.2.6c0,.1,0,.3.1.3a6.7,6.7,0,0,1,0,2c-.2.1-.2.2-.1.3a1.421,1.421,0,0,0-.2.6c-.2.1-.3.2-.3.4h0l-.2.2h0c-.2,0-.3.1-.4.3-.1.1-.3.1-.4.2a.908.908,0,0,0-.7.3,14.979,14.979,0,0,1-2.2.2c-.1,0-.1-.1-.2-.1a.1.1,0,0,0-.1-.1C151,99.1,150.9,99,150.7,99Z"/>
          <path id="Path_131" data-name="Path 131" class="cls-3" d="M133.4,68a1.7,1.7,0,0,0-.7.1c-.2-.2-.4-.1-.7,0a.9.9,0,0,0-.5-.1c0-.2-.2-.2-.3-.2a1.421,1.421,0,0,0-.6-.2.781.781,0,0,0-.4-.4.758.758,0,0,1-.2-.4l-.1-.1c-.1-.3-.4-.6-.4-1V63.9a.52.52,0,0,0,.2-.4v-.1c.2-.1.3-.2.3-.4l.2-.2a.781.781,0,0,0,.4-.4.1.1,0,0,0,.1-.1.265.265,0,0,0,.3-.3c.2-.1.3-.2.5-.2a.52.52,0,0,0,.4-.2c.5,0,.9-.1,1.4-.1h.6c.1.2.2.3.4.3h.1c.1.2.2.3.4.3l.4.4c0,.2.1.3.3.4V63c0,.2.1.4.3.4v.2a.4.4,0,0,0,.2.6c-.1.5-.2,1.1-.3,1.6-.2.1-.2.2-.2.3v.2l-.2.2c-.3.4-.7.7-1,1.1-.2,0-.3.1-.4.3h-.1C133.7,67.8,133.5,67.7,133.4,68Z"/>
          <path id="Path_132" data-name="Path 132" class="cls-3" d="M124.1,68c-.2,0-.3.1-.5.1a.454.454,0,0,0-.5,0c-.2,0-.4-.1-.7-.1-.1-.2-.2-.2-.3-.2s-.2,0-.2-.1c-.2-.2-.3-.5-.6-.5h0c-.1-.1-.1-.2-.2-.3,0-.1,0-.1-.1-.2l-.1-.1c0-.1-.1-.2-.1-.3h0a.1.1,0,0,0-.1-.1c-.1-.2-.1-.5-.2-.7v-.8c-.1-.8.4-1.3.7-2,.2,0,.3-.2.3-.4h0c0-.1.1-.1.2-.2h0c.2,0,.3-.1.4-.3.2-.1.3-.2.5-.2.1,0,.3,0,.3-.2.1,0,.2-.1.4-.1.2.1.3,0,.4-.1.4.1.8.1,1.2.2.1.1.2.3.4.3.3.2.6.5.9.7,0,.2.1.3.3.4a2.92,2.92,0,0,1,.2.9V65a2.92,2.92,0,0,0-.2.9c-.2.1-.3.2-.3.4-.1.1-.1.2-.2.3-.2,0-.3.1-.3.4l-.1.1a.51.51,0,0,0-.5.4c-.2.1-.3.1-.4.2C124.4,67.8,124.1,67.7,124.1,68Z"/>
          <path id="Path_133" data-name="Path 133" class="cls-3" d="M174.3,142.9a1.532,1.532,0,0,1-1.1-1.1c-.3-.6.5-.8.8-1.1a.385.385,0,0,1,.7,0c.3.4.5.9,1,1.1A2.208,2.208,0,0,1,174.3,142.9Z"/>
          <path id="Path_134" data-name="Path 134" class="cls-3" d="M176.2,141.3a2.407,2.407,0,0,0-.6-.8c-.5-.4-.5-.8.1-1.1.5-.2-.2-.9.5-.8A2,2,0,0,1,176.2,141.3Z"/>
          <path id="Path_135" data-name="Path 135" class="cls-3" d="M121.9,88.8a1,1,0,0,1,.3-1.6.8.8,0,0,1,1.1.2c.3.4-.1.6-.3.8s-.4.3-.5.6C122.3,88.9,122.1,88.8,121.9,88.8Z"/>
        </g>
      </g>
      <path id="Path_136" data-name="Path 136" class="cls-3" d="M172.9,139.1a2.525,2.525,0,0,0-.4,3.4,2.437,2.437,0,0,0,3.4-.4,2.181,2.181,0,1,0-3-3Z"/>
    </g>
    <path id="Path_137" data-name="Path 137" class="cls-5" d="M322.8,51,290.3,163.8H238.5L296.3,2.3h53.8L408,163.7H355.3L322.8,51m0,0"/>
    <path id="Path_138" data-name="Path 138" class="cls-6" d="M322.3,51,289.8,163.8H238L295.9,2.3h53.8l57.8,161.4H354.8L322.3,51m0,0"/>
    <path id="Path_139" data-name="Path 139" class="cls-6" d="M413,40.6q-60.6,46.05-136.2,74.3c-50.4,18.8-96.5,27.4-138.2,28.2-37.3.7-61.4-12.1-67.7-40.8,54.4,0,98-5.9,139.9-18.6S273.7,56.4,273.7,40c0-10-7.5-18-22.6-24S216,7,190.9,7c-4.5,0-8.9.1-13.2.2,13.4,4.8,22.7,10.9,29.9,17.3,0,0,9.3,8.1,9.3,13.8C216.8,51.4,202.4,63,173.3,73S110.4,88.3,69.7,89.3c-.4-34.2,15.1-57.2,36.2-72.1A239.492,239.492,0,0,0,57.8,35.4Q2.3,64.05,2.3,104q0,27.75,30.5,43.7,30.45,16.05,83,16,81.9,0,173.4-33.1Q380.7,97.45,437.8,47Z"/>
    <path id="Path_140" data-name="Path 140" class="cls-7" d="M446.3,27.8,428.6,68.2,402.9,34.6Z"/>
    <path id="Path_141" data-name="Path 141" class="cls-5" d="M322.8,50.7m0,0L290.3,163.5H238.5L296.3,2l26.5,48.7"/>
    <path id="Path_142" data-name="Path 142" class="cls-6" d="M322.8,50.7m0,0,0,0L290.3,163.5H238.5L296.3,2"/>
  </g>
</svg>
