<svg xmlns="http://www.w3.org/2000/svg" width="120" height="120" viewBox="0 0 120 120">
  <g id="Group_3" data-name="Group 3" transform="translate(-900 -480)">
    <g id="Group_2" data-name="Group 2" transform="translate(354 310)">
      <g id="Ellipse_6" data-name="Ellipse 6" transform="translate(546 170)" fill="none" stroke="#0ef799" stroke-width="6">
        <circle cx="60" cy="60" r="60" stroke="none"/>
        <circle cx="60" cy="60" r="57" fill="none"/>
      </g>
    </g>
    <path id="Path_1" data-name="Path 1" d="M71.595-24.28l-6.741-6.741a7.377,7.377,0,0,0-5.22-2.155H55.312V-44.25a3.684,3.684,0,0,0-3.687-3.687H3.687A3.684,3.684,0,0,0,0-44.25V-5.531A9.216,9.216,0,0,0,9.219,3.687,9.2,9.2,0,0,0,16.594-.046a9.17,9.17,0,0,0,7.375,3.734,9.216,9.216,0,0,0,9.219-9.219A9.712,9.712,0,0,0,33-7.375H51.809a8.86,8.86,0,0,0-.184,1.844,9.216,9.216,0,0,0,9.219,9.219,9.216,9.216,0,0,0,9.219-9.219,9.712,9.712,0,0,0-.184-1.844h2.028A1.849,1.849,0,0,0,73.75-9.219v-9.853A7.351,7.351,0,0,0,71.595-24.28ZM9.219-1.844A3.7,3.7,0,0,1,5.531-5.531,3.7,3.7,0,0,1,9.219-9.219a3.7,3.7,0,0,1,3.687,3.687A3.7,3.7,0,0,1,9.219-1.844Zm14.75,0a3.7,3.7,0,0,1-3.687-3.687,3.7,3.7,0,0,1,3.687-3.687,3.7,3.7,0,0,1,3.687,3.687A3.7,3.7,0,0,1,23.969-1.844ZM55.312-27.656h4.321a1.83,1.83,0,0,1,1.3.542l4.99,4.99H55.312ZM60.844-1.844a3.7,3.7,0,0,1-3.687-3.687,3.7,3.7,0,0,1,3.687-3.687,3.7,3.7,0,0,1,3.687,3.687A3.7,3.7,0,0,1,60.844-1.844Z" transform="translate(925 563)" fill="#fff"/>
  </g>
</svg>
