<svg xmlns="http://www.w3.org/2000/svg" width="828.952" height="118.5" viewBox="0 0 828.952 118.5">
  <g id="Group_1" data-name="Group 1" transform="translate(-354.189 -476.5)">
    <path id="Path_1" data-name="Path 1" d="M10.189,0V-100.242H44.544q17.005,0,25.887,6.816t8.881,20.31a21.647,21.647,0,0,1-3.718,12.393,23.93,23.93,0,0,1-10.878,8.537,22.125,22.125,0,0,1,12.565,8.3,24.162,24.162,0,0,1,4.441,14.63q0,14.114-9.053,21.687T46.748,0ZM27.608-45.233v31.326H46.954q8.193,0,12.806-4.062T64.373-29.26q0-15.628-15.973-15.973Zm0-12.806H44.682q8.124,0,12.7-3.683t4.578-10.43q0-7.436-4.234-10.74T44.544-86.2H27.608ZM115.32,0H98.59V-105.75h16.73Zm63.34-7.3q-7.367,8.675-20.93,8.675-12.117,0-18.348-7.091t-6.231-20.517V-74.493h16.73v48.056q0,14.183,11.773,14.183,12.186,0,16.455-8.744V-74.493h16.73V0H179.073Zm66.025,8.675q-15.9,0-25.783-10.017t-9.88-26.678v-2.065a44.7,44.7,0,0,1,4.3-19.931,32.751,32.751,0,0,1,12.083-13.666,31.943,31.943,0,0,1,17.35-4.888q15.215,0,23.511,9.708t8.3,27.47v6.747H225.889q.757,9.226,6.162,14.6a18.5,18.5,0,0,0,13.6,5.37,22.653,22.653,0,0,0,18.727-9.294l9.019,8.606A30.119,30.119,0,0,1,261.449-2.306,37.4,37.4,0,0,1,244.685,1.377Zm-2-63.822a14.088,14.088,0,0,0-11.119,4.819q-4.234,4.819-5.4,13.425h31.876v-1.239q-.551-8.4-4.475-12.7T242.688-62.445ZM361.588-86.2H330.331V0H313.05V-86.2H282.069v-14.045h79.519ZM413.774-7.3q-7.367,8.675-20.93,8.675-12.117,0-18.348-7.091t-6.231-20.517V-74.493H385v48.056q0,14.183,11.773,14.183,12.186,0,16.455-8.744V-74.493h16.73V0H414.188Zm98.59-29.191q0,17.35-7.745,27.608T483.311,1.377q-13.081,0-20.379-9.432L462.105,0H446.959V-105.75h16.73v38.417q7.229-8.537,19.484-8.537,13.632,0,21.412,10.121t7.78,28.3Zm-16.73-1.446q0-12.117-4.269-18.176t-12.393-6.059q-10.878,0-15.284,9.5v30.706q4.475,9.708,15.422,9.708,7.849,0,12.117-5.852T495.634-35.8ZM559.181,1.377q-15.9,0-25.783-10.017t-9.88-26.678v-2.065a44.7,44.7,0,0,1,4.3-19.931A32.751,32.751,0,0,1,539.9-70.982a31.943,31.943,0,0,1,17.35-4.888q15.215,0,23.511,9.708t8.3,27.47v6.747H540.385q.757,9.226,6.162,14.6a18.5,18.5,0,0,0,13.6,5.37,22.653,22.653,0,0,0,18.727-9.294l9.019,8.606A30.119,30.119,0,0,1,575.945-2.306,37.4,37.4,0,0,1,559.181,1.377Zm-2-63.822a14.088,14.088,0,0,0-11.119,4.819q-4.234,4.819-5.4,13.425h31.876v-1.239q-.551-8.4-4.475-12.7T557.184-62.445Z" transform="translate(344 584)" fill="#09294d"/>
    <path id="Path_2" data-name="Path 2" d="M1.954-16.374a17.436,17.436,0,0,1,2.1-8.423,15.725,15.725,0,0,1,5.817-6.121,15.309,15.309,0,0,1,8.03-2.235,15.251,15.251,0,0,1,8.019,2.235A15.751,15.751,0,0,1,31.726-24.8a17.436,17.436,0,0,1,2.1,8.423,17.436,17.436,0,0,1-2.1,8.423,15.969,15.969,0,0,1-5.784,6.143A15.1,15.1,0,0,1,17.9.449,15.176,15.176,0,0,1,9.872-1.8,15.942,15.942,0,0,1,4.065-7.929,17.407,17.407,0,0,1,1.954-16.374Zm29.132,0A14.653,14.653,0,0,0,29.4-23.3a13.162,13.162,0,0,0-4.762-5.121,12.482,12.482,0,0,0-6.738-1.92A12.66,12.66,0,0,0,11.264-28.5a13.049,13.049,0,0,0-4.818,5.076,14.571,14.571,0,0,0-1.752,7.053A14.646,14.646,0,0,0,6.435-9.321a13.213,13.213,0,0,0,4.807,5.11A12.528,12.528,0,0,0,17.9-2.336a12.476,12.476,0,0,0,6.682-1.909,13.158,13.158,0,0,0,4.8-5.144A14.74,14.74,0,0,0,31.086-16.374ZM14.667-14.667V-7.1H11.275V-26.189h6.312a8.494,8.494,0,0,1,5.368,1.516,5.174,5.174,0,0,1,1.932,4.324,4.405,4.405,0,0,1-2.7,4.043,3.891,3.891,0,0,1,2.044,1.9,7.232,7.232,0,0,1,.584,3.077q0,1.831.079,2.594a4.347,4.347,0,0,0,.3,1.28V-7.1H21.72a17.872,17.872,0,0,1-.292-4.357,3.414,3.414,0,0,0-.741-2.459,3.375,3.375,0,0,0-2.471-.752Zm0-3.01h3.212a4.576,4.576,0,0,0,2.594-.7,2.179,2.179,0,0,0,1.044-1.909,2.759,2.759,0,0,0-.8-2.235,4.733,4.733,0,0,0-2.886-.685H14.667Z" transform="translate(937 512)" fill="#09294d"/>
    <path id="Path_3" data-name="Path 3" d="M169.62-99.959a21.176,21.176,0,0,0-14.9-15C141.577-118.5,88.875-118.5,88.875-118.5s-52.7,0-65.845,3.545a21.176,21.176,0,0,0-14.9,15C4.608-86.73,4.608-59.13,4.608-59.13s0,27.6,3.522,40.829A20.861,20.861,0,0,0,23.03-3.545C36.173,0,88.875,0,88.875,0s52.7,0,65.845-3.545A20.861,20.861,0,0,0,169.62-18.3c3.522-13.229,3.522-40.829,3.522-40.829S173.141-86.73,169.62-99.959ZM71.638-34.071V-84.189L115.687-59.13Z" transform="translate(1010 595)" fill="#09294d"/>
  </g>
</svg>
