<svg xmlns="http://www.w3.org/2000/svg" xmlns:xlink="http://www.w3.org/1999/xlink" width="210" height="210" viewBox="0 0 210 210">
  <defs>
    <radialGradient id="radial-gradient" cx="0.046" cy="0" r="1.354" gradientTransform="translate(0.015 -0.034) rotate(47.627)" gradientUnits="objectBoundingBox">
      <stop offset="0" stop-color="#2aeb7d"/>
      <stop offset="1" stop-color="#0f803e"/>
    </radialGradient>
  </defs>
  <g id="Group_605" data-name="Group 605" transform="translate(-951 -631)">
    <rect id="Rectangle_22" data-name="Rectangle 22" width="210" height="210" rx="37" transform="translate(951 631)" fill="url(#radial-gradient)"/>
    <g id="Path_39" data-name="Path 39" transform="translate(951 631)" fill="#efefef" opacity="0.903">
      <path d="M 208.5 78.5 L 1.5 78.5 L 1.5 37 C 1.5 32.20685958862305 2.438416719436646 27.55791664123535 4.289138793945312 23.18224906921387 C 6.077083110809326 18.95513916015625 8.636972427368164 15.15844440460205 11.8977222442627 11.8977222442627 C 15.15844440460205 8.636972427368164 18.95513916015625 6.077083110809326 23.18224906921387 4.289138793945312 C 27.55791664123535 2.438416719436646 32.20685958862305 1.5 37 1.5 L 173 1.5 C 177.7931365966797 1.5 182.4421081542969 2.438416719436646 186.8177490234375 4.289138793945312 C 191.0448913574219 6.077083110809326 194.841552734375 8.636972427368164 198.1023101806641 11.8977222442627 C 201.3630218505859 15.15844440460205 203.9229125976562 18.95513916015625 205.7108612060547 23.18224906921387 C 207.5615844726562 27.55791664123535 208.5 32.20685958862305 208.5 37 L 208.5 78.5 Z" stroke="none"/>
      <path d="M 37 3 C 32.40870666503906 3 27.95635986328125 3.898529052734375 23.76658630371094 5.670646667480469 C 19.71826171875 7.382972717285156 16.08184814453125 9.834915161132812 12.95838928222656 12.95838165283203 C 9.834915161132812 16.08185195922852 7.382965087890625 19.71826553344727 5.670654296875 23.7665901184082 C 3.898529052734375 27.95635223388672 3 32.40870666503906 3 37 L 3 77 L 207 77 L 207 37 C 207 32.40870666503906 206.1014709472656 27.95635223388672 204.329345703125 23.7665901184082 C 202.6170349121094 19.71826553344727 200.1650848388672 16.08185195922852 197.0416107177734 12.95838165283203 C 193.9181518554688 9.834915161132812 190.28173828125 7.382972717285156 186.2334136962891 5.670646667480469 C 182.0436401367188 3.898529052734375 177.5912933349609 3 173 3 L 37 3 M 37 0 L 173 0 C 193.4345245361328 0 210 16.56547164916992 210 37 L 210 80 L 0 80 L 0 37 C 0 16.56547164916992 16.56547546386719 0 37 0 Z" stroke="none" fill="#21ca6a"/>
    </g>
    <g id="Group_604" data-name="Group 604" transform="translate(-91.355 -238.858)">
      <path id="Rectangle_3" data-name="Rectangle 3" d="M20.773,0H75.042A20.773,20.773,0,0,1,95.815,20.773V75.042A20.773,20.773,0,0,1,75.042,95.815H20.773A20.773,20.773,0,0,1,0,75.042V20.773A20.773,20.773,0,0,1,20.773,0Z" transform="translate(1147.107 944.355) rotate(45)" fill="#fff"/>
      <path id="Rectangle_4" data-name="Rectangle 4" d="M20.773,0H75.042A20.773,20.773,0,0,1,95.815,20.773V75.042A20.773,20.773,0,0,1,75.042,95.815H20.773A20.773,20.773,0,0,1,0,75.042V20.773A20.773,20.773,0,0,1,20.773,0Z" transform="translate(1194.533 963.718) rotate(90)" fill="#fff"/>
      <path id="Path_2142" data-name="Path 2142" d="M76.024-13.093a2.994,2.994,0,0,1,1.956,1.651,2.881,2.881,0,0,1,0,2.321A2.994,2.994,0,0,1,76.024-7.47L41.922,2.918a8.327,8.327,0,0,1-5.622,0L12.344-4.416A6.047,6.047,0,0,0,9.778.108a3.688,3.688,0,0,1,1.956,3.238,3.8,3.8,0,0,1-1.711,3.238L13.2,20.642a2.073,2.073,0,0,1-.428,1.588,1.8,1.8,0,0,1-1.527.733H4.4a1.8,1.8,0,0,1-1.527-.733,2.073,2.073,0,0,1-.428-1.588L5.622,6.585a3.851,3.851,0,0,1-1.711-3.3A3.467,3.467,0,0,1,5.867.108a9.508,9.508,0,0,1,2.2-5.744L2.2-7.468A2.994,2.994,0,0,1,.244-9.119a2.881,2.881,0,0,1,0-2.321A2.994,2.994,0,0,1,2.2-13.091L36.3-23.6a9.451,9.451,0,0,1,5.622,0ZM43.144,6.708,60.866,1.33l1.713,13.81q0,2.077-3.178,3.911a27.918,27.918,0,0,1-8.556,2.873,61.937,61.937,0,0,1-11.734,1.038,61.937,61.937,0,0,1-11.734-1.038,27.918,27.918,0,0,1-8.556-2.873q-3.178-1.832-3.178-3.911L17.356,1.33,35.077,6.708A13.615,13.615,0,0,0,43.144,6.708Z" transform="translate(1107.862 1012.568)" fill="#15b75a"/>
    </g>
    <path id="Path_42" data-name="Path 42" d="M-40.919-4.671l1.566,4.509a.271.271,0,0,0,.27.162h3.024c.162,0,.189-.081.162-.243l-6.237-17.334c-.027-.135-.054-.162-.189-.162h-3.753c-.108,0-.162.081-.162.189a4.128,4.128,0,0,1-.243,1.458L-52.042-.27c-.027.189.027.27.189.27h2.7a.268.268,0,0,0,.3-.216l1.485-4.455Zm-5.589-2.943c.81-2.457,1.89-5.616,2.322-7.425h.027c.54,1.89,1.809,5.643,2.376,7.425Zm12.42,7.4c0,.135.054.216.216.216h2.835a.2.2,0,0,0,.216-.216V-9.639A3.457,3.457,0,0,1-28.2-10.746c1.566,0,2.322,1.026,2.322,2.808v7.7A.215.215,0,0,0-25.637,0h2.808c.135,0,.216-.054.216-.243V-8.235c0-4.32-2.484-5.346-4.509-5.346A5.952,5.952,0,0,0-31.037-12.1a5.878,5.878,0,0,0-.189-1.026c-.054-.135-.135-.189-.324-.189h-2.457c-.162,0-.189.054-.189.189.054.54.108,2,.108,2.916Zm21.708-2.4A4.936,4.936,0,0,1-14.3-2.3c-1.944,0-2.646-.864-2.646-1.863,0-1.161.945-1.863,3.078-1.863a11.108,11.108,0,0,1,1.485.081Zm3.159-5.616c0-3-1.62-5.346-5.373-5.346a10.031,10.031,0,0,0-4.1.81.257.257,0,0,0-.162.27v2.349a.158.158,0,0,0,.216.162,8.032,8.032,0,0,1,3.537-.756c2.376,0,2.727,1.4,2.727,2.025V-8.4c-.243-.027-.864-.054-1.674-.054-3.51,0-6.075,1.431-6.075,4.293,0,3.051,2.349,4.428,5.292,4.428A13.132,13.132,0,0,0-9.221-.945c.054-.027.054-.054.054-.108-.054-.567-.054-1.107-.054-1.7Zm3.4,5.022C-5.819-.378-4.415.27-2.687.27A3.937,3.937,0,0,0-1.148.054c.135-.081.162-.108.162-.3V-2.268c0-.135-.027-.189-.108-.162a3.443,3.443,0,0,1-.513.027c-.648,0-.945-.27-.945-1.107v-15.5c0-.135-.081-.216-.243-.216H-5.576c-.162,0-.243.081-.243.216ZM.04-13.311c-.135,0-.216.081-.162.189C1.5-8.883,4.09-2.457,4.819-.675a.59.59,0,0,1-.027.432C3.928,1.809,3.064,3.726,2.254,5.346c-.054.162-.027.216.135.216l2.943-.216a.333.333,0,0,0,.351-.189c2.187-5,5.13-12.285,7.074-18.252.027-.135,0-.216-.162-.216H9.814a.286.286,0,0,0-.3.162C8.3-9.369,7.357-6.588,6.466-3.861,6.115-5.184,5.2-8.1,3.442-13.149a.226.226,0,0,0-.243-.162ZM21.8-2.376c0-.162-.081-.189-.162-.162a4.576,4.576,0,0,1-1.026.108c-1.161,0-1.539-.567-1.539-1.755v-6.4h2.646c.135,0,.189-.054.189-.189v-2.349c0-.135-.054-.189-.189-.189H19.1c0-1.323.054-2.916.135-3.807,0-.135-.054-.162-.189-.135l-2.727.378a.26.26,0,0,0-.216.243,28.5,28.5,0,0,0-.27,3.321h-1.7c-.162,0-.216.054-.216.216v2.268c0,.162.054.216.189.243h1.7v7.1C15.808-.81,17.131.27,19.345.27a6.207,6.207,0,0,0,2.3-.378c.135-.054.162-.162.162-.324ZM24.178-.243c0,.162.081.243.27.243h2.781c.189,0,.243-.054.243-.216V-13.122c0-.162-.054-.189-.216-.189H24.394c-.135,0-.216.054-.216.189ZM25.825-15.12a1.757,1.757,0,0,0,1.863-1.863,1.736,1.736,0,0,0-1.836-1.863,1.786,1.786,0,0,0-1.863,1.863A1.75,1.75,0,0,0,25.825-15.12ZM40.135-2.781c0-.108-.054-.189-.189-.135a7.775,7.775,0,0,1-2.349.27c-2.079,0-4.212-1.134-4.212-4.077a3.835,3.835,0,0,1,4.185-4.05,6.347,6.347,0,0,1,2.322.351c.108.027.216.027.216-.162l.027-2.4c0-.162-.027-.243-.135-.3a7.755,7.755,0,0,0-2.538-.3c-4.455,0-7.425,2.97-7.425,6.966A6.567,6.567,0,0,0,37,.27a8.224,8.224,0,0,0,3-.432c.108-.027.135-.081.135-.216Zm10.341-7.4c.162.054.243-.027.243-.162v-2.376a.329.329,0,0,0-.162-.324,8.323,8.323,0,0,0-3.4-.54c-3.375,0-5.049,1.917-5.049,3.969,0,1.944,1.053,3.159,4,4.239,1.674.675,2.187,1.107,2.187,1.782,0,.7-.675,1.188-2.079,1.188a7.349,7.349,0,0,1-3.861-1.08.14.14,0,0,0-.216.135V-.783c0,.162.054.216.189.3A8.305,8.305,0,0,0,46.129.27c3.321,0,5.319-1.593,5.319-4.131,0-1.917-1.053-3.132-4.131-4.266C45.59-8.8,45.184-9.207,45.184-9.8c0-.567.486-1.161,1.917-1.161A7.679,7.679,0,0,1,50.476-10.179ZM-52.65,15.477c0-.162-.054-.216-.216-.216H-55.7c-.189,0-.216.081-.216.243V26.358c0,4.644,2.727,6.912,6.993,6.912,4,0,7.1-2,7.1-7.047V15.477c0-.135-.054-.216-.216-.216h-2.835c-.162,0-.216.081-.216.243V26.061c0,3.294-1.593,4.32-3.726,4.32-2.592,0-3.834-1.7-3.834-4.266Zm13.959,17.307c0,.135.054.216.216.216h2.835a.2.2,0,0,0,.216-.216V23.361a3.457,3.457,0,0,1,2.619-1.107c1.566,0,2.322,1.026,2.322,2.808v7.695A.215.215,0,0,0-30.24,33h2.808c.135,0,.216-.054.216-.243V24.765c0-4.32-2.484-5.346-4.509-5.346A5.952,5.952,0,0,0-35.64,20.9a5.879,5.879,0,0,0-.189-1.026c-.054-.135-.135-.189-.324-.189H-38.61c-.162,0-.189.054-.189.189.054.54.108,2,.108,2.916Zm14.877-.027c0,.162.081.243.27.243h2.781c.189,0,.243-.054.243-.216V19.878c0-.162-.054-.189-.216-.189H-23.6c-.135,0-.216.054-.216.189Zm1.647-14.877A1.757,1.757,0,0,0-20.3,16.017a1.736,1.736,0,0,0-1.836-1.863A1.786,1.786,0,0,0-24,16.017,1.75,1.75,0,0,0-22.167,17.88ZM-10.773,33a.272.272,0,0,0,.3-.189C-9.558,30.3-6.939,22.74-5.913,19.9c.054-.162-.054-.216-.135-.216H-8.775c-.108,0-.189.027-.216.162-2.052,6.345-2.862,8.91-3.159,10.1H-12.2c-.27-1.188-.972-3.78-2.916-10.1a.21.21,0,0,0-.243-.162h-3.078c-.162,0-.189.081-.162.189.945,2.7,3.564,10.368,4.455,12.96a.285.285,0,0,0,.27.162ZM3.942,27.087a20.566,20.566,0,0,0,2.781-.108.232.232,0,0,0,.216-.189,8.172,8.172,0,0,0,.108-1.674c0-2.565-1.539-5.7-5.535-5.7-4.077,0-6.345,3.321-6.345,7.074,0,3.321,1.755,6.777,6.669,6.777a8.965,8.965,0,0,0,4.05-.783.286.286,0,0,0,.162-.3V29.949c0-.135-.081-.162-.162-.108a8.508,8.508,0,0,1-3.348.648c-2.754,0-4-1.512-4.077-3.4Zm-5.481-2.322a2.949,2.949,0,0,1,2.916-2.754,2.5,2.5,0,0,1,2.592,2.511v.216a13.233,13.233,0,0,1-1.485.027ZM9.585,19.689c-.135,0-.162.027-.162.162.108.891.135,2.457.135,3.618v9.315c0,.135.054.216.243.216h2.808c.162,0,.243-.054.243-.216V24.09a5.246,5.246,0,0,1,4.131-1.431c.189,0,.243-.054.243-.189V19.608c0-.162-.054-.189-.216-.189a5.625,5.625,0,0,0-4.32,2.106,6.1,6.1,0,0,0-.27-1.62.268.268,0,0,0-.3-.216ZM27,22.821c.162.054.243-.027.243-.162V20.283a.329.329,0,0,0-.162-.324,8.323,8.323,0,0,0-3.4-.54c-3.375,0-5.049,1.917-5.049,3.969,0,1.944,1.053,3.159,4,4.239,1.674.675,2.187,1.107,2.187,1.782,0,.7-.675,1.188-2.079,1.188a7.349,7.349,0,0,1-3.861-1.08.14.14,0,0,0-.216.135v2.565c0,.162.054.216.189.3a8.305,8.305,0,0,0,3.807.756c3.321,0,5.319-1.593,5.319-4.131,0-1.917-1.053-3.132-4.131-4.266-1.728-.675-2.133-1.08-2.133-1.674,0-.567.486-1.161,1.917-1.161A7.679,7.679,0,0,1,27,22.821Zm3.375,9.936c0,.162.081.243.27.243h2.781c.189,0,.243-.054.243-.216V19.878c0-.162-.054-.189-.216-.189H30.591c-.135,0-.216.054-.216.189ZM32.022,17.88a1.757,1.757,0,0,0,1.863-1.863,1.736,1.736,0,0,0-1.836-1.863,1.786,1.786,0,0,0-1.863,1.863A1.75,1.75,0,0,0,32.022,17.88Zm11.61,12.744c0-.162-.081-.189-.162-.162a4.576,4.576,0,0,1-1.026.108c-1.161,0-1.539-.567-1.539-1.755v-6.4h2.646c.135,0,.189-.054.189-.189V19.878c0-.135-.054-.189-.189-.189H40.932c0-1.323.054-2.916.135-3.807,0-.135-.054-.162-.189-.135l-2.727.378a.26.26,0,0,0-.216.243,28.5,28.5,0,0,0-.27,3.321h-1.7c-.162,0-.216.054-.216.216v2.268c0,.162.054.216.189.243h1.7v7.1c0,2.673,1.323,3.753,3.537,3.753a6.207,6.207,0,0,0,2.295-.378c.135-.054.162-.162.162-.324Zm1.323-10.935c-.135,0-.216.081-.162.189,1.62,4.239,4.212,10.665,4.941,12.447a.59.59,0,0,1-.027.432c-.864,2.052-1.728,3.969-2.538,5.589-.054.162-.027.216.135.216l2.943-.216a.333.333,0,0,0,.351-.189c2.187-5,5.13-12.285,7.074-18.252.027-.135,0-.216-.162-.216H54.729a.286.286,0,0,0-.3.162c-1.215,3.78-2.16,6.561-3.051,9.288-.351-1.323-1.269-4.239-3.024-9.288a.226.226,0,0,0-.243-.162Z" transform="translate(1056 662)" fill="#212529"/>
  </g>
</svg>
