<svg xmlns="http://www.w3.org/2000/svg" xmlns:xlink="http://www.w3.org/1999/xlink" width="210" height="210" viewBox="0 0 210 210">
  <defs>
    <linearGradient id="linear-gradient" x1="0.102" y1="0.02" x2="0.946" y2="0.948" gradientUnits="objectBoundingBox">
      <stop offset="0" stop-color="#debdfc"/>
      <stop offset="1" stop-color="#6406c1"/>
    </linearGradient>
  </defs>
  <g id="Group_600" data-name="Group 600" transform="translate(-415 -631)">
    <rect id="Rectangle_4" data-name="Rectangle 4" width="210" height="210" rx="37" transform="translate(415 631)" fill="url(#linear-gradient)"/>
    <g id="Path_12" data-name="Path 12" transform="translate(415 631)" fill="#efefef" opacity="0.903">
      <path d="M 208.5 78.5 L 1.5 78.5 L 1.5 37 C 1.5 32.20685958862305 2.438416719436646 27.55791664123535 4.289138793945312 23.18224906921387 C 6.077083110809326 18.95513916015625 8.636972427368164 15.15844440460205 11.8977222442627 11.8977222442627 C 15.15844440460205 8.636972427368164 18.95513916015625 6.077083110809326 23.18224906921387 4.289138793945312 C 27.55791664123535 2.438416719436646 32.20685958862305 1.5 37 1.5 L 173 1.5 C 177.7931365966797 1.5 182.4421081542969 2.438416719436646 186.8177490234375 4.289138793945312 C 191.0448913574219 6.077083110809326 194.841552734375 8.636972427368164 198.1023101806641 11.8977222442627 C 201.3630218505859 15.15844440460205 203.9229125976562 18.95513916015625 205.7108612060547 23.18224906921387 C 207.5615844726562 27.55791664123535 208.5 32.20685958862305 208.5 37 L 208.5 78.5 Z" stroke="none"/>
      <path d="M 37 3 C 32.40870666503906 3 27.95635986328125 3.898529052734375 23.76658630371094 5.670646667480469 C 19.71826171875 7.382972717285156 16.08184814453125 9.834915161132812 12.95838928222656 12.95838165283203 C 9.834915161132812 16.08185195922852 7.382965087890625 19.71826553344727 5.670654296875 23.7665901184082 C 3.898529052734375 27.95635223388672 3 32.40870666503906 3 37 L 3 77 L 207 77 L 207 37 C 207 32.40870666503906 206.1014709472656 27.95635223388672 204.329345703125 23.7665901184082 C 202.6170349121094 19.71826553344727 200.1650848388672 16.08185195922852 197.0416107177734 12.95838165283203 C 193.9181518554688 9.834915161132812 190.28173828125 7.382972717285156 186.2334136962891 5.670646667480469 C 182.0436401367188 3.898529052734375 177.5912933349609 3 173 3 L 37 3 M 37 0 L 173 0 C 193.4345245361328 0 210 16.56547164916992 210 37 L 210 80 L 0 80 L 0 37 C 0 16.56547164916992 16.56547546386719 0 37 0 Z" stroke="none" fill="#c99df2"/>
    </g>
    <path id="Path_38" data-name="Path 38" d="M-68.351-17.523c0-.162-.054-.216-.216-.216H-71.4c-.135,0-.216.027-.216.216V-.243c0,.162.054.243.216.243h2.835c.162,0,.216-.054.216-.243ZM-64.814-.216c0,.135.054.216.216.216h2.835a.2.2,0,0,0,.216-.216V-9.639a3.457,3.457,0,0,1,2.619-1.107c1.566,0,2.322,1.026,2.322,2.808v7.7A.215.215,0,0,0-56.363,0h2.808c.135,0,.216-.054.216-.243V-8.235c0-4.32-2.484-5.346-4.509-5.346A5.952,5.952,0,0,0-61.763-12.1a5.879,5.879,0,0,0-.189-1.026c-.054-.135-.135-.189-.324-.189h-2.457c-.162,0-.189.054-.189.189.054.54.108,2,.108,2.916Zm21.168-2.16c0-.162-.081-.189-.162-.162a4.576,4.576,0,0,1-1.026.108c-1.161,0-1.539-.567-1.539-1.755v-6.4h2.646c.135,0,.189-.054.189-.189v-2.349c0-.135-.054-.189-.189-.189h-2.619c0-1.323.054-2.916.135-3.807,0-.135-.054-.162-.189-.135l-2.727.378a.26.26,0,0,0-.216.243,28.5,28.5,0,0,0-.27,3.321h-1.7c-.162,0-.216.054-.216.216v2.268c0,.162.054.216.189.243h1.7v7.1C-49.639-.81-48.317.27-46.1.27a6.207,6.207,0,0,0,2.295-.378c.135-.054.162-.162.162-.324Zm10.152-3.537a20.566,20.566,0,0,0,2.781-.108A.232.232,0,0,0-30.5-6.21a8.172,8.172,0,0,0,.108-1.674c0-2.565-1.539-5.7-5.535-5.7-4.077,0-6.345,3.321-6.345,7.074C-42.269-3.186-40.514.27-35.6.27a8.965,8.965,0,0,0,4.05-.783.286.286,0,0,0,.162-.3V-3.051c0-.135-.081-.162-.162-.108a8.508,8.508,0,0,1-3.348.648c-2.754,0-4-1.512-4.077-3.4Zm-5.481-2.322a2.949,2.949,0,0,1,2.916-2.754,2.5,2.5,0,0,1,2.592,2.511v.216a13.234,13.234,0,0,1-1.485.027Zm11.124-5.076c-.135,0-.162.027-.162.162.108.891.135,2.457.135,3.618V-.216c0,.135.054.216.243.216h2.808c.162,0,.243-.054.243-.216V-8.91a5.246,5.246,0,0,1,4.131-1.431c.189,0,.243-.054.243-.189v-2.862c0-.162-.054-.189-.216-.189a5.625,5.625,0,0,0-4.32,2.106,6.1,6.1,0,0,0-.27-1.62.268.268,0,0,0-.3-.216ZM-18.292-.216c0,.135.054.216.216.216h2.835a.2.2,0,0,0,.216-.216V-9.639a3.457,3.457,0,0,1,2.619-1.107c1.566,0,2.322,1.026,2.322,2.808v7.7A.215.215,0,0,0-9.842,0h2.808c.135,0,.216-.054.216-.243V-8.235c0-4.32-2.484-5.346-4.509-5.346A5.952,5.952,0,0,0-15.241-12.1a5.879,5.879,0,0,0-.189-1.026c-.054-.135-.135-.189-.324-.189h-2.457c-.162,0-.189.054-.189.189.054.54.108,2,.108,2.916Zm21.708-2.4A4.936,4.936,0,0,1,1.5-2.3c-1.944,0-2.646-.864-2.646-1.863,0-1.161.945-1.863,3.078-1.863a11.108,11.108,0,0,1,1.485.081ZM6.574-8.235c0-3-1.62-5.346-5.373-5.346a10.031,10.031,0,0,0-4.1.81.257.257,0,0,0-.162.27v2.349a.158.158,0,0,0,.216.162,8.032,8.032,0,0,1,3.537-.756c2.376,0,2.727,1.4,2.727,2.025V-8.4c-.243-.027-.864-.054-1.674-.054-3.51,0-6.075,1.431-6.075,4.293C-4.334-1.107-1.985.27.958.27A13.132,13.132,0,0,0,6.574-.945c.054-.027.054-.054.054-.108-.054-.567-.054-1.107-.054-1.7Zm9.558,5.859c0-.162-.081-.189-.162-.162a4.576,4.576,0,0,1-1.026.108c-1.161,0-1.539-.567-1.539-1.755v-6.4h2.646c.135,0,.189-.054.189-.189v-2.349c0-.135-.054-.189-.189-.189H13.432c0-1.323.054-2.916.135-3.807,0-.135-.054-.162-.189-.135l-2.727.378a.26.26,0,0,0-.216.243,28.5,28.5,0,0,0-.27,3.321h-1.7c-.162,0-.216.054-.216.216v2.268c0,.162.054.216.189.243h1.7v7.1C10.138-.81,11.461.27,13.675.27a6.207,6.207,0,0,0,2.3-.378c.135-.054.162-.162.162-.324ZM18.508-.243c0,.162.081.243.27.243h2.781c.189,0,.243-.054.243-.216V-13.122c0-.162-.054-.189-.216-.189H18.724c-.135,0-.216.054-.216.189ZM20.155-15.12a1.757,1.757,0,0,0,1.863-1.863,1.736,1.736,0,0,0-1.836-1.863,1.786,1.786,0,0,0-1.863,1.863A1.75,1.75,0,0,0,20.155-15.12Zm10.773,1.539c-4.05,0-6.561,3.105-6.561,6.939,0,3.429,2,6.912,6.507,6.912,3.807,0,6.48-2.808,6.48-6.993C37.354-10.422,35.087-13.581,30.929-13.581Zm-.162,2.727c2.295,0,3.267,1.971,3.267,4.212,0,2.781-1.431,4.158-3.1,4.158-2.052,0-3.267-1.728-3.267-4.212C27.662-9.261,28.958-10.854,30.767-10.854ZM39.892-.216c0,.135.054.216.216.216h2.835a.2.2,0,0,0,.216-.216V-9.639a3.457,3.457,0,0,1,2.619-1.107c1.566,0,2.322,1.026,2.322,2.808v7.7A.215.215,0,0,0,48.343,0h2.808c.135,0,.216-.054.216-.243V-8.235c0-4.32-2.484-5.346-4.509-5.346A5.952,5.952,0,0,0,42.943-12.1a5.879,5.879,0,0,0-.189-1.026c-.054-.135-.135-.189-.324-.189H39.973c-.162,0-.189.054-.189.189.054.54.108,2,.108,2.916ZM61.6-2.619a4.936,4.936,0,0,1-1.917.324c-1.944,0-2.646-.864-2.646-1.863,0-1.161.945-1.863,3.078-1.863A11.108,11.108,0,0,1,61.6-5.94Zm3.159-5.616c0-3-1.62-5.346-5.373-5.346a10.031,10.031,0,0,0-4.1.81.257.257,0,0,0-.162.27v2.349a.158.158,0,0,0,.216.162,8.032,8.032,0,0,1,3.537-.756c2.376,0,2.727,1.4,2.727,2.025V-8.4c-.243-.027-.864-.054-1.674-.054-3.51,0-6.075,1.431-6.075,4.293C53.851-1.107,56.2.27,59.143.27A13.132,13.132,0,0,0,64.759-.945c.054-.027.054-.054.054-.108-.054-.567-.054-1.107-.054-1.7Zm3.4,5.022c0,2.835,1.4,3.483,3.132,3.483A3.937,3.937,0,0,0,72.833.054c.135-.081.162-.108.162-.3V-2.268c0-.135-.027-.189-.108-.162a3.443,3.443,0,0,1-.513.027c-.648,0-.945-.27-.945-1.107v-15.5c0-.135-.081-.216-.243-.216H68.4c-.162,0-.243.081-.243.216ZM-71.928,32.811c0,.135.081.189.216.189h2.835c.162,0,.216-.081.216-.216V27.249h1.7c4.077,0,7.4-1.863,7.4-6.156,0-2.97-1.944-5.886-7.182-5.886-1.971,0-3.969.054-5,.081-.135,0-.189.081-.189.216ZM-68.661,18.1c.3-.027,1.053-.054,2-.054,2.484,0,3.888,1.161,3.888,3.132,0,2.457-1.917,3.213-4.185,3.213-.891,0-1.242,0-1.7-.027Zm19.494,8.991a20.566,20.566,0,0,0,2.781-.108.232.232,0,0,0,.216-.189,8.172,8.172,0,0,0,.108-1.674c0-2.565-1.539-5.7-5.535-5.7-4.077,0-6.345,3.321-6.345,7.074,0,3.321,1.755,6.777,6.669,6.777a8.965,8.965,0,0,0,4.05-.783.286.286,0,0,0,.162-.3V29.949c0-.135-.081-.162-.162-.108a8.508,8.508,0,0,1-3.348.648c-2.754,0-4-1.512-4.077-3.4Zm-5.481-2.322a2.949,2.949,0,0,1,2.916-2.754,2.5,2.5,0,0,1,2.592,2.511v.216a13.233,13.233,0,0,1-1.485.027Zm11.124-5.076c-.135,0-.162.027-.162.162.108.891.135,2.457.135,3.618v9.315c0,.135.054.216.243.216H-40.5c.162,0,.243-.054.243-.216V24.09a5.246,5.246,0,0,1,4.131-1.431c.189,0,.243-.054.243-.189V19.608c0-.162-.054-.189-.216-.189a5.625,5.625,0,0,0-4.32,2.106,6.1,6.1,0,0,0-.27-1.62.268.268,0,0,0-.3-.216Zm10.881,2.727V32.784c0,.135.054.216.216.216h2.808c.216,0,.243-.081.243-.216V22.416H-27c.162-.027.216-.054.216-.189V19.851c0-.108-.027-.162-.216-.162h-2.376V18.8c0-1.863.675-2.457,1.782-2.457a4.614,4.614,0,0,1,.837.081c.135.054.189-.027.189-.135V13.965c0-.135,0-.216-.162-.27a3.6,3.6,0,0,0-1.323-.162,4.058,4.058,0,0,0-4,2.376,7.314,7.314,0,0,0-.594,3.159v.621H-34.29c-.108,0-.162.027-.162.162v2.376c0,.135.027.189.162.189Zm13.419-3c-4.05,0-6.561,3.105-6.561,6.939,0,3.429,2,6.912,6.507,6.912,3.807,0,6.48-2.808,6.48-6.993C-12.8,22.578-15.066,19.419-19.224,19.419Zm-.162,2.727c2.295,0,3.267,1.971,3.267,4.212,0,2.781-1.431,4.158-3.1,4.158-2.052,0-3.267-1.728-3.267-4.212C-22.491,23.739-21.2,22.146-19.386,22.146Zm9.153-2.457c-.135,0-.162.027-.162.162.108.891.135,2.457.135,3.618v9.315c0,.135.054.216.243.216h2.808c.162,0,.243-.054.243-.216V24.09a5.246,5.246,0,0,1,4.131-1.431c.189,0,.243-.054.243-.189V19.608c0-.162-.054-.189-.216-.189a5.625,5.625,0,0,0-4.32,2.106A6.1,6.1,0,0,0-7.4,19.9a.268.268,0,0,0-.3-.216ZM2.376,33c.162,0,.216-.054.216-.216V23.253a3.8,3.8,0,0,1,2.565-1c1.458,0,2.268.864,2.268,2.646v7.857c0,.189.081.243.243.243h2.808c.162,0,.189-.081.189-.216V24.927a12.353,12.353,0,0,0-.081-1.593,3.825,3.825,0,0,1,2.646-1.107c1.647,0,2.268,1.215,2.268,2.754v7.776c0,.162.054.243.243.243h2.781c.135,0,.243-.054.243-.216v-8.1c0-4.077-2.322-5.265-4.563-5.265A6.654,6.654,0,0,0,9.774,21.2a3.782,3.782,0,0,0-3.483-1.782,5.763,5.763,0,0,0-3.942,1.512,4.577,4.577,0,0,0-.162-1.08.257.257,0,0,0-.27-.162H-.567c-.162,0-.243.054-.216.189.054.513.108,1.62.108,2.673V32.757c0,.162.054.243.216.243ZM29,30.381a4.936,4.936,0,0,1-1.917.324c-1.944,0-2.646-.864-2.646-1.863,0-1.161.945-1.863,3.078-1.863A11.108,11.108,0,0,1,29,27.06Zm3.159-5.616c0-3-1.62-5.346-5.373-5.346a10.031,10.031,0,0,0-4.1.81.257.257,0,0,0-.162.27v2.349a.158.158,0,0,0,.216.162,8.032,8.032,0,0,1,3.537-.756c2.376,0,2.727,1.4,2.727,2.025V24.6c-.243-.027-.864-.054-1.674-.054-3.51,0-6.075,1.431-6.075,4.293,0,3.051,2.349,4.428,5.292,4.428a13.132,13.132,0,0,0,5.616-1.215c.054-.027.054-.054.054-.108-.054-.567-.054-1.107-.054-1.7Zm3.4,8.019c0,.135.054.216.216.216H38.61a.2.2,0,0,0,.216-.216V23.361a3.457,3.457,0,0,1,2.619-1.107c1.566,0,2.322,1.026,2.322,2.808v7.695A.215.215,0,0,0,44.01,33h2.808c.135,0,.216-.054.216-.243V24.765c0-4.32-2.484-5.346-4.509-5.346A5.952,5.952,0,0,0,38.61,20.9a5.879,5.879,0,0,0-.189-1.026c-.054-.135-.135-.189-.324-.189H35.64c-.162,0-.189.054-.189.189.054.54.108,2,.108,2.916ZM59.7,30.219c0-.108-.054-.189-.189-.135a7.775,7.775,0,0,1-2.349.27c-2.079,0-4.212-1.134-4.212-4.077a3.835,3.835,0,0,1,4.185-4.05,6.347,6.347,0,0,1,2.322.351c.108.027.216.027.216-.162l.027-2.4c0-.162-.027-.243-.135-.3a7.755,7.755,0,0,0-2.538-.3c-4.455,0-7.425,2.97-7.425,6.966a6.567,6.567,0,0,0,6.966,6.885,8.225,8.225,0,0,0,3-.432c.108-.027.135-.081.135-.216Zm10.314-3.132a20.566,20.566,0,0,0,2.781-.108.232.232,0,0,0,.216-.189,8.172,8.172,0,0,0,.108-1.674c0-2.565-1.539-5.7-5.535-5.7-4.077,0-6.345,3.321-6.345,7.074,0,3.321,1.755,6.777,6.669,6.777a8.965,8.965,0,0,0,4.05-.783.286.286,0,0,0,.162-.3V29.949c0-.135-.081-.162-.162-.108a8.508,8.508,0,0,1-3.348.648c-2.754,0-4-1.512-4.077-3.4ZM64.53,24.765a2.949,2.949,0,0,1,2.916-2.754,2.5,2.5,0,0,1,2.592,2.511v.216a13.233,13.233,0,0,1-1.485.027Z" transform="translate(520 661.224)" fill="#212529"/>
    <path id="Path_37" data-name="Path 37" d="M0-104.844A59.093,59.093,0,0,0-59.094-45.75,59.093,59.093,0,0,0,0,13.344,59.093,59.093,0,0,0,59.093-45.75,59.093,59.093,0,0,0,0-104.844ZM19.608-19.634c-.929.925-1.9,1.894-2.695,2.688a5.7,5.7,0,0,0-1.47,2.552c-.36,1.349-.65,2.712-1.136,4.02L10.163.789A47.621,47.621,0,0,1,0,1.906V-4.618c.4-3.007-1.82-8.64-5.392-12.212a7.625,7.625,0,0,1-2.233-5.392v-7.627a7.6,7.6,0,0,0-3.922-6.665c-3.424-1.894-8.294-4.542-11.63-6.221a34.354,34.354,0,0,1-7.542-5.183l-.191-.172a32.868,32.868,0,0,1-4.3-4.942c-2.235-3.281-5.876-8.678-8.242-12.186A47.915,47.915,0,0,1-18.865-89.5l5.721,2.862a3.813,3.813,0,0,0,5.519-3.41v-2.693a47.649,47.649,0,0,1,5.812-.577L4.93-86.57a3.813,3.813,0,0,1,0,5.392L3.812-80.062,1.349-77.6a1.907,1.907,0,0,0,0,2.7l1.117,1.117a1.907,1.907,0,0,1,0,2.7L.56-69.185a2.192,2.192,0,0,1-1.348.558H-2.931a1.9,1.9,0,0,0-1.33.541l-2.364,2.3A2.187,2.187,0,0,0-7.2-64.42a2.262,2.262,0,0,0,.2.851l3.715,7.432a1.907,1.907,0,0,1-1.7,2.759H-6.334a1.9,1.9,0,0,1-1.249-.467l-2.211-1.921a4.421,4.421,0,0,0-2.5-.934,4.567,4.567,0,0,0-1.2.195l-7.427,2.476a3.039,3.039,0,0,0-1.947,2.7h0A2.849,2.849,0,0,0-21.3-48.778l2.64,1.32a16.137,16.137,0,0,0,7.222,1.706c2.507,0,5.383,6.5,7.625,7.625H12.095a7.629,7.629,0,0,1,5.392,2.233l3.262,3.262a8.349,8.349,0,0,1,2.128,5.139h0A12.732,12.732,0,0,1,19.608-19.634ZM40.269-41.4A5.72,5.72,0,0,1,36.9-43.777L32.613-50.2a6.7,6.7,0,0,1-.962-3.171,6.7,6.7,0,0,1,.962-3.171l4.668-7a5.712,5.712,0,0,1,2.2-1.942l3.093-1.546a47.28,47.28,0,0,1,5.08,21.286,47.474,47.474,0,0,1-.434,6.086Z" transform="translate(520 820)" fill="#fff"/>
  </g>
</svg>
