<svg xmlns="http://www.w3.org/2000/svg" xmlns:xlink="http://www.w3.org/1999/xlink" width="210" height="210" viewBox="0 0 210 210">
  <defs>
    <linearGradient id="linear-gradient" x1="0.102" y1="0.02" x2="0.946" y2="0.948" gradientUnits="objectBoundingBox">
      <stop offset="0" stop-color="#588ef0"/>
      <stop offset="1" stop-color="#063b9a"/>
    </linearGradient>
  </defs>
  <g id="Group_600" data-name="Group 600" transform="translate(620 -628)">
    <rect id="Rectangle_4" data-name="Rectangle 4" width="210" height="210" rx="37" transform="translate(-620 628)" fill="url(#linear-gradient)"/>
    <g id="Path_12" data-name="Path 12" transform="translate(-620 628)" fill="#efefef" opacity="0.903">
      <path d="M 208.5 78.5 L 1.5 78.5 L 1.5 37 C 1.5 32.20685958862305 2.438416719436646 27.55791664123535 4.289138793945312 23.18224906921387 C 6.077083110809326 18.95513916015625 8.636972427368164 15.15844440460205 11.8977222442627 11.8977222442627 C 15.15844440460205 8.636972427368164 18.95513916015625 6.077083110809326 23.18224906921387 4.289138793945312 C 27.55791664123535 2.438416719436646 32.20685958862305 1.5 37 1.5 L 173 1.5 C 177.7931365966797 1.5 182.4421081542969 2.438416719436646 186.8177490234375 4.289138793945312 C 191.0448913574219 6.077083110809326 194.841552734375 8.636972427368164 198.1023101806641 11.8977222442627 C 201.3630218505859 15.15844440460205 203.9229125976562 18.95513916015625 205.7108612060547 23.18224906921387 C 207.5615844726562 27.55791664123535 208.5 32.20685958862305 208.5 37 L 208.5 78.5 Z" stroke="none"/>
      <path d="M 37 3 C 32.40870666503906 3 27.95635986328125 3.898529052734375 23.76658630371094 5.670646667480469 C 19.71826171875 7.382972717285156 16.08184814453125 9.834915161132812 12.95838928222656 12.95838165283203 C 9.834915161132812 16.08185195922852 7.382965087890625 19.71826553344727 5.670654296875 23.7665901184082 C 3.898529052734375 27.95635223388672 3 32.40870666503906 3 37 L 3 77 L 207 77 L 207 37 C 207 32.40870666503906 206.1014709472656 27.95635223388672 204.329345703125 23.7665901184082 C 202.6170349121094 19.71826553344727 200.1650848388672 16.08185195922852 197.0416107177734 12.95838165283203 C 193.9181518554688 9.834915161132812 190.28173828125 7.382972717285156 186.2334136962891 5.670646667480469 C 182.0436401367188 3.898529052734375 177.5912933349609 3 173 3 L 37 3 M 37 0 L 173 0 C 193.4345245361328 0 210 16.56547164916992 210 37 L 210 80 L 0 80 L 0 37 C 0 16.56547164916992 16.56547546386719 0 37 0 Z" stroke="none" fill="#4a80e2"/>
    </g>
    <path id="Path_10" data-name="Path 10" d="M8.343-3.24c-.486-2-2.241-7.236-4.806-14.337a.189.189,0,0,0-.216-.162H.216c-.162,0-.216.108-.162.243L6.4-.162A.239.239,0,0,0,6.669,0H9.8a.235.235,0,0,0,.27-.189L16.254-17.5c.054-.162-.027-.243-.162-.243H13.149c-.135,0-.189.054-.243.216C10.341-9.936,8.991-5.346,8.4-3.24Zm9.315,3c0,.162.081.243.27.243h2.781c.189,0,.243-.054.243-.216V-13.122c0-.162-.054-.189-.216-.189H17.874c-.135,0-.216.054-.216.189ZM19.305-15.12a1.757,1.757,0,0,0,1.863-1.863,1.736,1.736,0,0,0-1.836-1.863,1.786,1.786,0,0,0-1.863,1.863A1.75,1.75,0,0,0,19.305-15.12Zm12.771,4.941c.162.054.243-.027.243-.162v-2.376a.329.329,0,0,0-.162-.324,8.323,8.323,0,0,0-3.4-.54c-3.375,0-5.049,1.917-5.049,3.969,0,1.944,1.053,3.159,4,4.239,1.674.675,2.187,1.107,2.187,1.782,0,.7-.675,1.188-2.079,1.188a7.349,7.349,0,0,1-3.861-1.08.14.14,0,0,0-.216.135V-.783c0,.162.054.216.189.3A8.305,8.305,0,0,0,27.729.27c3.321,0,5.319-1.593,5.319-4.131,0-1.917-1.053-3.132-4.131-4.266C27.189-8.8,26.784-9.207,26.784-9.8c0-.567.486-1.161,1.917-1.161A7.679,7.679,0,0,1,32.076-10.179Zm14.58-2.943c0-.135-.027-.189-.189-.189H43.632c-.162,0-.216.054-.216.189v9.585a3.424,3.424,0,0,1-2.457.972c-1.62,0-2.349-1.026-2.349-2.7v-7.857c0-.135-.027-.189-.189-.189H35.586c-.162,0-.216.027-.216.189v8.235c0,3.78,1.971,5.157,4.536,5.157a5.336,5.336,0,0,0,3.753-1.377,5.856,5.856,0,0,0,.189.945c.027.108.081.162.27.162H46.6c.162,0,.243-.054.216-.189a23.97,23.97,0,0,1-.162-2.781Zm10.368,10.5a4.936,4.936,0,0,1-1.917.324c-1.944,0-2.646-.864-2.646-1.863,0-1.161.945-1.863,3.078-1.863a11.108,11.108,0,0,1,1.485.081Zm3.159-5.616c0-3-1.62-5.346-5.373-5.346a10.031,10.031,0,0,0-4.1.81.257.257,0,0,0-.162.27v2.349a.158.158,0,0,0,.216.162,8.032,8.032,0,0,1,3.537-.756c2.376,0,2.727,1.4,2.727,2.025V-8.4c-.243-.027-.864-.054-1.674-.054-3.51,0-6.075,1.431-6.075,4.293,0,3.051,2.349,4.428,5.292,4.428A13.132,13.132,0,0,0,60.183-.945c.054-.027.054-.054.054-.108-.054-.567-.054-1.107-.054-1.7Zm3.4,5.022c0,2.835,1.4,3.483,3.132,3.483A3.937,3.937,0,0,0,68.256.054c.135-.081.162-.108.162-.3V-2.268c0-.135-.027-.189-.108-.162A3.443,3.443,0,0,1,67.8-2.4c-.648,0-.945-.27-.945-1.107v-15.5c0-.135-.081-.216-.243-.216H63.828c-.162,0-.243.081-.243.216Zm7.074,2.97c0,.162.081.243.27.243H73.71c.189,0,.243-.054.243-.216V-13.122c0-.162-.054-.189-.216-.189H70.875c-.135,0-.216.054-.216.189ZM72.306-15.12a1.757,1.757,0,0,0,1.863-1.863,1.736,1.736,0,0,0-1.836-1.863,1.786,1.786,0,0,0-1.863,1.863A1.75,1.75,0,0,0,72.306-15.12ZM86.643,0a.206.206,0,0,0,.216-.189l.432-2.322c.054-.189-.027-.216-.162-.216h-3.7c-1.35,0-2.376-.027-3.105,0,.7-.891,4.185-5.184,6.372-8.37a.505.505,0,0,0,.135-.378v-1.674c-.027-.135-.054-.162-.189-.162H77.085c-.162,0-.216.054-.243.189l-.378,2.3c-.054.162,0,.243.189.243h3.78c1.161,0,2.052,0,2.565-.027-.81,1.107-4.86,6.075-6.588,8.532a.456.456,0,0,0-.081.27v1.62c0,.135.027.189.162.189Zm9.882-2.619a4.936,4.936,0,0,1-1.917.324c-1.944,0-2.646-.864-2.646-1.863,0-1.161.945-1.863,3.078-1.863a11.108,11.108,0,0,1,1.485.081Zm3.159-5.616c0-3-1.62-5.346-5.373-5.346a10.031,10.031,0,0,0-4.1.81.257.257,0,0,0-.162.27v2.349a.158.158,0,0,0,.216.162,8.032,8.032,0,0,1,3.537-.756c2.376,0,2.727,1.4,2.727,2.025V-8.4c-.243-.027-.864-.054-1.674-.054-3.51,0-6.075,1.431-6.075,4.293,0,3.051,2.349,4.428,5.292,4.428A13.132,13.132,0,0,0,99.684-.945c.054-.027.054-.054.054-.108-.054-.567-.054-1.107-.054-1.7Zm9.558,5.859c0-.162-.081-.189-.162-.162a4.576,4.576,0,0,1-1.026.108c-1.161,0-1.539-.567-1.539-1.755v-6.4h2.646c.135,0,.189-.054.189-.189v-2.349c0-.135-.054-.189-.189-.189h-2.619c0-1.323.054-2.916.135-3.807,0-.135-.054-.162-.189-.135l-2.727.378a.26.26,0,0,0-.216.243,28.5,28.5,0,0,0-.27,3.321h-1.7c-.162,0-.216.054-.216.216v2.268c0,.162.054.216.189.243h1.7v7.1c0,2.673,1.323,3.753,3.537,3.753a6.207,6.207,0,0,0,2.295-.378c.135-.054.162-.162.162-.324Zm2.376,2.133c0,.162.081.243.27.243h2.781c.189,0,.243-.054.243-.216V-13.122c0-.162-.054-.189-.216-.189h-2.862c-.135,0-.216.054-.216.189Zm1.647-14.877a1.757,1.757,0,0,0,1.863-1.863,1.736,1.736,0,0,0-1.836-1.863,1.786,1.786,0,0,0-1.863,1.863A1.75,1.75,0,0,0,113.265-15.12Zm10.773,1.539c-4.05,0-6.561,3.105-6.561,6.939,0,3.429,2,6.912,6.507,6.912,3.807,0,6.48-2.808,6.48-6.993C130.464-10.422,128.2-13.581,124.038-13.581Zm-.162,2.727c2.295,0,3.267,1.971,3.267,4.212,0,2.781-1.431,4.158-3.1,4.158-2.052,0-3.267-1.728-3.267-4.212C120.771-9.261,122.067-10.854,123.876-10.854ZM133-.216c0,.135.054.216.216.216h2.835a.2.2,0,0,0,.216-.216V-9.639a3.457,3.457,0,0,1,2.619-1.107c1.566,0,2.322,1.026,2.322,2.808v7.7a.215.215,0,0,0,.243.243h2.808c.135,0,.216-.054.216-.243V-8.235c0-4.32-2.484-5.346-4.509-5.346a5.952,5.952,0,0,0-3.915,1.485,5.879,5.879,0,0,0-.189-1.026c-.054-.135-.135-.189-.324-.189h-2.457c-.162,0-.189.054-.189.189.054.54.108,2,.108,2.916Z" transform="translate(-588 677.224)" fill="#212529"/>
    <path id="Path_8" data-name="Path 8" d="M40.2-12.187H22.128L34.165-.15a1.222,1.222,0,0,0,1.69.052,18.243,18.243,0,0,0,5.57-10.73A1.221,1.221,0,0,0,40.2-12.187ZM39-17.123a18.325,18.325,0,0,0-17-17,1.226,1.226,0,0,0-1.28,1.234v17.044H37.764A1.225,1.225,0,0,0,39-17.123ZM17.062-12.187V-30.262A1.221,1.221,0,0,0,15.7-31.486,18.268,18.268,0,0,0,.011-12.769a18.507,18.507,0,0,0,18.5,17.642,18.14,18.14,0,0,0,10.3-3.354,1.21,1.21,0,0,0,.12-1.834Z" transform="translate(-564 774)" fill="#fff"/>
    <path id="Path_9" data-name="Path 9" d="M25.35-9.75h2.925a1.049,1.049,0,0,0,.975-.975V-20.962a1.049,1.049,0,0,0-.975-.975H25.35a1.049,1.049,0,0,0-.975.975v10.238A1.049,1.049,0,0,0,25.35-9.75Zm7.312,0h2.925a1.049,1.049,0,0,0,.975-.975v-17.55a1.049,1.049,0,0,0-.975-.975H32.662a1.049,1.049,0,0,0-.975.975v17.55A1.049,1.049,0,0,0,32.662-9.75Zm-21.937,0H13.65a1.049,1.049,0,0,0,.975-.975v-5.363a1.049,1.049,0,0,0-.975-.975H10.725a1.049,1.049,0,0,0-.975.975v5.363A1.049,1.049,0,0,0,10.725-9.75Zm7.312,0h2.925a1.049,1.049,0,0,0,.975-.975V-25.837a1.049,1.049,0,0,0-.975-.975H18.037a1.049,1.049,0,0,0-.975.975v15.112A1.049,1.049,0,0,0,18.037-9.75ZM37.781-4.875H4.875V-28.031A1.218,1.218,0,0,0,3.656-29.25H1.219A1.218,1.218,0,0,0,0-28.031V-2.437A2.438,2.438,0,0,0,2.437,0H37.781A1.218,1.218,0,0,0,39-1.219V-3.656A1.218,1.218,0,0,0,37.781-4.875Z" transform="translate(-511 774)" fill="#fff"/>
    <path id="monitor-24px_1_" data-name="monitor-24px (1)" d="M126,3H15.778A13.818,13.818,0,0,0,2,16.778V92.556a13.818,13.818,0,0,0,13.778,13.778H36.444l-6.889,6.889V127h82.667V113.222l-6.889-6.889H126a13.818,13.818,0,0,0,13.778-13.778V16.778A13.818,13.818,0,0,0,126,3Zm0,89.556H15.778V16.778H126Z" transform="translate(-586 705)" fill="#fff"/>
  </g>
</svg>
