<svg xmlns="http://www.w3.org/2000/svg" xmlns:xlink="http://www.w3.org/1999/xlink" width="210" height="210" viewBox="0 0 210 210">
  <defs>
    <radialGradient id="radial-gradient" cx="0.058" cy="0" r="1.374" gradientTransform="matrix(0.686, 0.728, -0.728, 0.686, 0.018, -0.042)" gradientUnits="objectBoundingBox">
      <stop offset="0" stop-color="#184fa2"/>
      <stop offset="1" stop-color="#011940"/>
    </radialGradient>
  </defs>
  <g id="Group_606" data-name="Group 606" transform="translate(-1224 -631)">
    <rect id="Rectangle_22" data-name="Rectangle 22" width="210" height="210" rx="37" transform="translate(1224 631)" fill="url(#radial-gradient)"/>
    <g id="Path_39" data-name="Path 39" transform="translate(1224 631)" fill="#efefef" opacity="0.903">
      <path d="M 208.5 78.5 L 1.5 78.5 L 1.5 37 C 1.5 32.20685958862305 2.438416719436646 27.55791664123535 4.289138793945312 23.18224906921387 C 6.077083110809326 18.95513916015625 8.636972427368164 15.15844440460205 11.8977222442627 11.8977222442627 C 15.15844440460205 8.636972427368164 18.95513916015625 6.077083110809326 23.18224906921387 4.289138793945312 C 27.55791664123535 2.438416719436646 32.20685958862305 1.5 37 1.5 L 173 1.5 C 177.7931365966797 1.5 182.4421081542969 2.438416719436646 186.8177490234375 4.289138793945312 C 191.0448913574219 6.077083110809326 194.841552734375 8.636972427368164 198.1023101806641 11.8977222442627 C 201.3630218505859 15.15844440460205 203.9229125976562 18.95513916015625 205.7108612060547 23.18224906921387 C 207.5615844726562 27.55791664123535 208.5 32.20685958862305 208.5 37 L 208.5 78.5 Z" stroke="none"/>
      <path d="M 37 3 C 32.40870666503906 3 27.95635986328125 3.898529052734375 23.76658630371094 5.670646667480469 C 19.71826171875 7.382972717285156 16.08184814453125 9.834915161132812 12.95838928222656 12.95838165283203 C 9.834915161132812 16.08185195922852 7.382965087890625 19.71826553344727 5.670654296875 23.7665901184082 C 3.898529052734375 27.95635223388672 3 32.40870666503906 3 37 L 3 77 L 207 77 L 207 37 C 207 32.40870666503906 206.1014709472656 27.95635223388672 204.329345703125 23.7665901184082 C 202.6170349121094 19.71826553344727 200.1650848388672 16.08185195922852 197.0416107177734 12.95838165283203 C 193.9181518554688 9.834915161132812 190.28173828125 7.382972717285156 186.2334136962891 5.670646667480469 C 182.0436401367188 3.898529052734375 177.5912933349609 3 173 3 L 37 3 M 37 0 L 173 0 C 193.4345245361328 0 210 16.56547164916992 210 37 L 210 80 L 0 80 L 0 37 C 0 16.56547164916992 16.56547546386719 0 37 0 Z" stroke="none" fill="#3d6cb2"/>
    </g>
    <path id="Path_43" data-name="Path 43" d="M-53.541-.216A.206.206,0,0,0-53.352,0c1.026.027,2.862.054,5.211.054,4.455,0,7.4-2.052,7.4-5.454a4.523,4.523,0,0,0-2.592-4.185,4.215,4.215,0,0,0,1.7-3.51c0-1.728-.864-4.7-6.507-4.7-1.809,0-4.266.054-5.238.081-.135.027-.162.108-.162.243Zm3.213-7.641h2.457a7.1,7.1,0,0,1,1.836.189,2.266,2.266,0,0,1,1.944,2.349c0,1.809-1.62,2.673-4.158,2.646-.81,0-1.485-.027-2.079-.054Zm0-7.128c.567,0,1.269-.027,2.133-.027,2.214,0,3.4.783,3.4,2.376A2.556,2.556,0,0,1-45.819-10.5a16.634,16.634,0,0,0-2.457-.162h-2.052ZM-38.259-3.213c0,2.835,1.4,3.483,3.132,3.483A3.937,3.937,0,0,0-33.588.054c.135-.081.162-.108.162-.3V-2.268c0-.135-.027-.189-.108-.162a3.443,3.443,0,0,1-.513.027c-.648,0-.945-.27-.945-1.107v-15.5c0-.135-.081-.216-.243-.216h-2.781c-.162,0-.243.081-.243.216Zm18.225-9.909c0-.135-.027-.189-.189-.189h-2.835c-.162,0-.216.054-.216.189v9.585a3.424,3.424,0,0,1-2.457.972c-1.62,0-2.349-1.026-2.349-2.7v-7.857c0-.135-.027-.189-.189-.189H-31.1c-.162,0-.216.027-.216.189v8.235c0,3.78,1.971,5.157,4.536,5.157a5.336,5.336,0,0,0,3.753-1.377,5.856,5.856,0,0,0,.189.945c.027.108.081.162.27.162h2.484c.162,0,.243-.054.216-.189a23.971,23.971,0,0,1-.162-2.781ZM-8.667-5.913a20.566,20.566,0,0,0,2.781-.108A.232.232,0,0,0-5.67-6.21a8.172,8.172,0,0,0,.108-1.674c0-2.565-1.539-5.7-5.535-5.7-4.077,0-6.345,3.321-6.345,7.074,0,3.321,1.755,6.777,6.669,6.777a8.965,8.965,0,0,0,4.05-.783.286.286,0,0,0,.162-.3V-3.051c0-.135-.081-.162-.162-.108a8.508,8.508,0,0,1-3.348.648c-2.754,0-4-1.512-4.077-3.4Zm-5.481-2.322a2.949,2.949,0,0,1,2.916-2.754A2.5,2.5,0,0,1-8.64-8.478v.216a13.234,13.234,0,0,1-1.485.027ZM-1.053-.243c0,.189.054.27.243.243H1.971c.135,0,.216-.081.216-.243V-14.8H7.641c.135,0,.216-.081.189-.243L7.587-17.5c-.027-.189-.108-.243-.27-.243H-6.1c-.162,0-.216.054-.243.216L-6.7-15.012c-.027.135.027.216.162.216h5.481ZM19.035-13.122c0-.135-.027-.189-.189-.189H16.011c-.162,0-.216.054-.216.189v9.585a3.424,3.424,0,0,1-2.457.972c-1.62,0-2.349-1.026-2.349-2.7v-7.857c0-.135-.027-.189-.189-.189H7.965c-.162,0-.216.027-.216.189v8.235C7.749-1.107,9.72.27,12.285.27a5.336,5.336,0,0,0,3.753-1.377,5.856,5.856,0,0,0,.189.945c.027.108.081.162.27.162h2.484c.162,0,.243-.054.216-.189a23.971,23.971,0,0,1-.162-2.781Zm3.618-6.1a.171.171,0,0,0-.189.189V-.567a.288.288,0,0,0,.189.243A13.49,13.49,0,0,0,26.7.27c4,0,7.884-2.484,7.884-7.479a6.094,6.094,0,0,0-6.372-6.372,7.818,7.818,0,0,0-2.457.378l-.027-5.8c0-.189-.054-.216-.243-.216ZM31.266-6.885A4.083,4.083,0,0,1,27-2.484a4.5,4.5,0,0,1-1.242-.135V-10.5a4.957,4.957,0,0,1,1.89-.3C29.781-10.8,31.266-9.45,31.266-6.885Zm14.013.972a20.566,20.566,0,0,0,2.781-.108.232.232,0,0,0,.216-.189,8.171,8.171,0,0,0,.108-1.674c0-2.565-1.539-5.7-5.535-5.7-4.077,0-6.345,3.321-6.345,7.074C36.5-3.186,38.259.27,43.173.27a8.965,8.965,0,0,0,4.05-.783.286.286,0,0,0,.162-.3V-3.051c0-.135-.081-.162-.162-.108a8.508,8.508,0,0,1-3.348.648c-2.754,0-4-1.512-4.077-3.4ZM39.8-8.235a2.949,2.949,0,0,1,2.916-2.754,2.5,2.5,0,0,1,2.592,2.511v.216a13.234,13.234,0,0,1-1.485.027Zm12.744-2.511a3.52,3.52,0,0,0,3.591-3.645,3.561,3.561,0,0,0-3.591-3.618A3.557,3.557,0,0,0,48.9-14.391,3.532,3.532,0,0,0,52.542-10.746Zm0-.837a2.673,2.673,0,0,1-2.754-2.781,2.631,2.631,0,0,1,2.7-2.835,2.7,2.7,0,0,1,2.754,2.808A2.6,2.6,0,0,1,52.542-11.583Zm-.54-2.4h.3c.108,0,.135.027.162.081.3.432.594.837.756,1.08a.231.231,0,0,0,.162.081h.837c.054,0,.081-.054.054-.108-.216-.351-.864-1.107-1.026-1.35A1,1,0,0,0,54-15.174c0-.675-.459-1.08-1.512-1.08H51.219a.072.072,0,0,0-.081.081v3.321c0,.054,0,.108.081.108h.729c.054,0,.054-.054.054-.108ZM52-15.5h.486c.432,0,.594.135.594.378,0,.27-.135.432-.621.432H52Z" transform="translate(1329 679)" fill="#212529"/>
    <path id="Path_44" data-name="Path 44" d="M55.7-68.959A14.609,14.609,0,0,0,45.424-79.3C36.357-81.75,0-81.75,0-81.75s-36.357,0-45.425,2.445A14.609,14.609,0,0,0-55.7-68.959c-2.43,9.126-2.43,28.166-2.43,28.166s0,19.041,2.43,28.167A14.391,14.391,0,0,0-45.425-2.445C-36.358,0,0,0,0,0S36.357,0,45.424-2.445A14.391,14.391,0,0,0,55.7-12.626c2.43-9.126,2.43-28.167,2.43-28.167S58.133-59.833,55.7-68.959ZM-11.891-23.505V-58.08L18.5-40.792Z" transform="translate(1329 810)" fill="#fff"/>
  </g>
</svg>
