<svg xmlns="http://www.w3.org/2000/svg" xmlns:xlink="http://www.w3.org/1999/xlink" width="210" height="210" viewBox="0 0 210 210">
  <defs>
    <radialGradient id="radial-gradient" cx="0.058" cy="0" r="1.374" gradientTransform="matrix(0.686, 0.728, -0.728, 0.686, 0.018, -0.042)" gradientUnits="objectBoundingBox">
      <stop offset="0" stop-color="#e59eda"/>
      <stop offset="1" stop-color="#880849"/>
    </radialGradient>
  </defs>
  <g id="Group_609" data-name="Group 609" transform="translate(-1513 -631)">
    <rect id="Rectangle_22" data-name="Rectangle 22" width="210" height="210" rx="37" transform="translate(1513 631)" fill="url(#radial-gradient)"/>
    <g id="Path_39" data-name="Path 39" transform="translate(1513 631)" fill="#efefef" opacity="0.903">
      <path d="M 208.5 78.5 L 1.5 78.5 L 1.5 37 C 1.5 32.20685958862305 2.438416719436646 27.55791664123535 4.289138793945312 23.18224906921387 C 6.077083110809326 18.95513916015625 8.636972427368164 15.15844440460205 11.8977222442627 11.8977222442627 C 15.15844440460205 8.636972427368164 18.95513916015625 6.077083110809326 23.18224906921387 4.289138793945312 C 27.55791664123535 2.438416719436646 32.20685958862305 1.5 37 1.5 L 173 1.5 C 177.7931365966797 1.5 182.4421081542969 2.438416719436646 186.8177490234375 4.289138793945312 C 191.0448913574219 6.077083110809326 194.841552734375 8.636972427368164 198.1023101806641 11.8977222442627 C 201.3630218505859 15.15844440460205 203.9229125976562 18.95513916015625 205.7108612060547 23.18224906921387 C 207.5615844726562 27.55791664123535 208.5 32.20685958862305 208.5 37 L 208.5 78.5 Z" stroke="none"/>
      <path d="M 37 3 C 32.40870666503906 3 27.95635986328125 3.898529052734375 23.76658630371094 5.670646667480469 C 19.71826171875 7.382972717285156 16.08184814453125 9.834915161132812 12.95838928222656 12.95838165283203 C 9.834915161132812 16.08185195922852 7.382965087890625 19.71826553344727 5.670654296875 23.7665901184082 C 3.898529052734375 27.95635223388672 3 32.40870666503906 3 37 L 3 77 L 207 77 L 207 37 C 207 32.40870666503906 206.1014709472656 27.95635223388672 204.329345703125 23.7665901184082 C 202.6170349121094 19.71826553344727 200.1650848388672 16.08185195922852 197.0416107177734 12.95838165283203 C 193.9181518554688 9.834915161132812 190.28173828125 7.382972717285156 186.2334136962891 5.670646667480469 C 182.0436401367188 3.898529052734375 177.5912933349609 3 173 3 L 37 3 M 37 0 L 173 0 C 193.4345245361328 0 210 16.56547164916992 210 37 L 210 80 L 0 80 L 0 37 C 0 16.56547164916992 16.56547546386719 0 37 0 Z" stroke="none" fill="#c870ae"/>
    </g>
    <path id="Path_48" data-name="Path 48" d="M-44.807-4.671l1.566,4.509a.271.271,0,0,0,.27.162h3.024c.162,0,.189-.081.162-.243l-6.237-17.334c-.027-.135-.054-.162-.189-.162h-3.753c-.108,0-.162.081-.162.189a4.128,4.128,0,0,1-.243,1.458L-55.931-.27c-.027.189.027.27.189.27h2.7a.268.268,0,0,0,.3-.216l1.485-4.455ZM-50.4-7.614c.81-2.457,1.89-5.616,2.322-7.425h.027c.54,1.89,1.809,5.643,2.376,7.425ZM-31.9.27A12.8,12.8,0,0,0-26.8-.783a.21.21,0,0,0,.162-.243c-.054-.486-.108-1.188-.108-1.728V-19.062c0-.108,0-.162-.135-.162h-2.943c-.108,0-.162.054-.162.189V-13.5a9.342,9.342,0,0,0-1.161-.081c-4.752,0-7.668,3.132-7.668,7.047C-38.813-2-35.816.27-31.9.27Zm1.917-3.024a4.993,4.993,0,0,1-1.566.216c-2.16,0-3.915-1.215-3.915-4.158a3.953,3.953,0,0,1,4.212-4.158,3.59,3.59,0,0,1,1.269.189ZM-16.97,0a.272.272,0,0,0,.3-.189C-15.755-2.7-13.136-10.26-12.11-13.1c.054-.162-.054-.216-.135-.216h-2.727c-.108,0-.189.027-.216.162-2.052,6.345-2.862,8.91-3.159,10.1H-18.4c-.27-1.188-.972-3.78-2.916-10.1a.21.21,0,0,0-.243-.162h-3.078c-.162,0-.189.081-.162.189.945,2.7,3.564,10.368,4.455,12.96a.285.285,0,0,0,.27.162ZM-3.74-2.619A4.936,4.936,0,0,1-5.657-2.3C-7.6-2.3-8.3-3.159-8.3-4.158c0-1.161.945-1.863,3.078-1.863A11.108,11.108,0,0,1-3.74-5.94ZM-.581-8.235c0-3-1.62-5.346-5.373-5.346a10.031,10.031,0,0,0-4.1.81.257.257,0,0,0-.162.27v2.349A.158.158,0,0,0-10-9.99a8.032,8.032,0,0,1,3.537-.756c2.376,0,2.727,1.4,2.727,2.025V-8.4c-.243-.027-.864-.054-1.674-.054-3.51,0-6.075,1.431-6.075,4.293C-11.489-1.107-9.14.27-6.2.27A13.132,13.132,0,0,0-.581-.945c.054-.027.054-.054.054-.108-.054-.567-.054-1.107-.054-1.7Zm3.4,8.019c0,.135.054.216.216.216H5.872a.2.2,0,0,0,.216-.216V-9.639a3.457,3.457,0,0,1,2.619-1.107c1.566,0,2.322,1.026,2.322,2.808v7.7A.215.215,0,0,0,11.272,0H14.08c.135,0,.216-.054.216-.243V-8.235c0-4.32-2.484-5.346-4.509-5.346A5.952,5.952,0,0,0,5.872-12.1a5.879,5.879,0,0,0-.189-1.026c-.054-.135-.135-.189-.324-.189H2.9c-.162,0-.189.054-.189.189.054.54.108,2,.108,2.916ZM26.96-2.781c0-.108-.054-.189-.189-.135a7.775,7.775,0,0,1-2.349.27c-2.079,0-4.212-1.134-4.212-4.077a3.835,3.835,0,0,1,4.185-4.05,6.347,6.347,0,0,1,2.322.351c.108.027.216.027.216-.162l.027-2.4c0-.162-.027-.243-.135-.3a7.755,7.755,0,0,0-2.538-.3c-4.455,0-7.425,2.97-7.425,6.966A6.567,6.567,0,0,0,23.828.27a8.224,8.224,0,0,0,3-.432c.108-.027.135-.081.135-.216ZM37.273-5.913a20.566,20.566,0,0,0,2.781-.108.232.232,0,0,0,.216-.189,8.171,8.171,0,0,0,.108-1.674c0-2.565-1.539-5.7-5.535-5.7-4.077,0-6.345,3.321-6.345,7.074C28.5-3.186,30.253.27,35.167.27a8.965,8.965,0,0,0,4.05-.783.286.286,0,0,0,.162-.3V-3.051c0-.135-.081-.162-.162-.108a8.508,8.508,0,0,1-3.348.648c-2.754,0-4-1.512-4.077-3.4ZM31.792-8.235a2.949,2.949,0,0,1,2.916-2.754A2.5,2.5,0,0,1,37.3-8.478v.216a13.234,13.234,0,0,1-1.485.027ZM49.153.27a12.8,12.8,0,0,0,5.1-1.053.21.21,0,0,0,.162-.243c-.054-.486-.108-1.188-.108-1.728V-19.062c0-.108,0-.162-.135-.162H51.232c-.108,0-.162.054-.162.189V-13.5a9.342,9.342,0,0,0-1.161-.081c-4.752,0-7.668,3.132-7.668,7.047C42.241-2,45.238.27,49.153.27ZM51.07-2.754a4.993,4.993,0,0,1-1.566.216c-2.16,0-3.915-1.215-3.915-4.158A3.953,3.953,0,0,1,49.8-10.854a3.59,3.59,0,0,1,1.269.189ZM-40.919,28.329l1.566,4.509a.271.271,0,0,0,.27.162h3.024c.162,0,.189-.081.162-.243l-6.237-17.334c-.027-.135-.054-.162-.189-.162h-3.753c-.108,0-.162.081-.162.189a4.128,4.128,0,0,1-.243,1.458L-52.042,32.73c-.027.189.027.27.189.27h2.7a.268.268,0,0,0,.3-.216l1.485-4.455Zm-5.589-2.943c.81-2.457,1.89-5.616,2.322-7.425h.027c.54,1.89,1.809,5.643,2.376,7.425Zm12.42,7.4c0,.135.054.216.216.216h2.835a.2.2,0,0,0,.216-.216V23.361A3.457,3.457,0,0,1-28.2,22.254c1.566,0,2.322,1.026,2.322,2.808v7.695a.215.215,0,0,0,.243.243h2.808c.135,0,.216-.054.216-.243V24.765c0-4.32-2.484-5.346-4.509-5.346A5.952,5.952,0,0,0-31.037,20.9a5.878,5.878,0,0,0-.189-1.026c-.054-.135-.135-.189-.324-.189h-2.457c-.162,0-.189.054-.189.189.054.54.108,2,.108,2.916Zm21.708-2.4A4.936,4.936,0,0,1-14.3,30.7c-1.944,0-2.646-.864-2.646-1.863,0-1.161.945-1.863,3.078-1.863a11.108,11.108,0,0,1,1.485.081Zm3.159-5.616c0-3-1.62-5.346-5.373-5.346a10.031,10.031,0,0,0-4.1.81.257.257,0,0,0-.162.27v2.349a.158.158,0,0,0,.216.162,8.032,8.032,0,0,1,3.537-.756c2.376,0,2.727,1.4,2.727,2.025V24.6c-.243-.027-.864-.054-1.674-.054-3.51,0-6.075,1.431-6.075,4.293,0,3.051,2.349,4.428,5.292,4.428a13.132,13.132,0,0,0,5.616-1.215c.054-.027.054-.054.054-.108-.054-.567-.054-1.107-.054-1.7Zm3.4,5.022c0,2.835,1.4,3.483,3.132,3.483a3.937,3.937,0,0,0,1.539-.216c.135-.081.162-.108.162-.3V30.732c0-.135-.027-.189-.108-.162a3.443,3.443,0,0,1-.513.027c-.648,0-.945-.27-.945-1.107v-15.5c0-.135-.081-.216-.243-.216H-5.576c-.162,0-.243.081-.243.216ZM.04,19.689c-.135,0-.216.081-.162.189C1.5,24.117,4.09,30.543,4.819,32.325a.59.59,0,0,1-.027.432c-.864,2.052-1.728,3.969-2.538,5.589-.054.162-.027.216.135.216l2.943-.216a.333.333,0,0,0,.351-.189c2.187-5,5.13-12.285,7.074-18.252.027-.135,0-.216-.162-.216H9.814a.286.286,0,0,0-.3.162c-1.215,3.78-2.16,6.561-3.051,9.288C6.115,27.816,5.2,24.9,3.442,19.851a.226.226,0,0,0-.243-.162ZM21.8,30.624c0-.162-.081-.189-.162-.162a4.576,4.576,0,0,1-1.026.108c-1.161,0-1.539-.567-1.539-1.755v-6.4h2.646c.135,0,.189-.054.189-.189V19.878c0-.135-.054-.189-.189-.189H19.1c0-1.323.054-2.916.135-3.807,0-.135-.054-.162-.189-.135l-2.727.378a.26.26,0,0,0-.216.243,28.5,28.5,0,0,0-.27,3.321h-1.7c-.162,0-.216.054-.216.216v2.268c0,.162.054.216.189.243h1.7v7.1c0,2.673,1.323,3.753,3.537,3.753a6.207,6.207,0,0,0,2.3-.378c.135-.054.162-.162.162-.324Zm2.376,2.133c0,.162.081.243.27.243h2.781c.189,0,.243-.054.243-.216V19.878c0-.162-.054-.189-.216-.189H24.394c-.135,0-.216.054-.216.189ZM25.825,17.88a1.757,1.757,0,0,0,1.863-1.863,1.736,1.736,0,0,0-1.836-1.863,1.786,1.786,0,0,0-1.863,1.863A1.75,1.75,0,0,0,25.825,17.88Zm14.31,12.339c0-.108-.054-.189-.189-.135a7.775,7.775,0,0,1-2.349.27c-2.079,0-4.212-1.134-4.212-4.077a3.835,3.835,0,0,1,4.185-4.05,6.347,6.347,0,0,1,2.322.351c.108.027.216.027.216-.162l.027-2.4c0-.162-.027-.243-.135-.3a7.755,7.755,0,0,0-2.538-.3c-4.455,0-7.425,2.97-7.425,6.966A6.567,6.567,0,0,0,37,33.27a8.225,8.225,0,0,0,3-.432c.108-.027.135-.081.135-.216Zm10.341-7.4c.162.054.243-.027.243-.162V20.283a.329.329,0,0,0-.162-.324,8.323,8.323,0,0,0-3.4-.54c-3.375,0-5.049,1.917-5.049,3.969,0,1.944,1.053,3.159,4,4.239,1.674.675,2.187,1.107,2.187,1.782,0,.7-.675,1.188-2.079,1.188a7.349,7.349,0,0,1-3.861-1.08.14.14,0,0,0-.216.135v2.565c0,.162.054.216.189.3a8.305,8.305,0,0,0,3.807.756c3.321,0,5.319-1.593,5.319-4.131,0-1.917-1.053-3.132-4.131-4.266-1.728-.675-2.133-1.08-2.133-1.674,0-.567.486-1.161,1.917-1.161A7.679,7.679,0,0,1,50.476,22.821Z" transform="translate(1618 665)" fill="#212529"/>
    <g id="Group_608" data-name="Group 608" transform="translate(70 -218.999)">
      <g id="Ellipse_8" data-name="Ellipse 8" transform="translate(1519 931.999)" fill="none" stroke="#fff" stroke-width="10">
        <circle cx="44" cy="44" r="44" stroke="none"/>
        <circle cx="44" cy="44" r="39" fill="none"/>
      </g>
      <rect id="Rectangle_23" data-name="Rectangle 23" width="13.759" height="44.717" rx="5" transform="matrix(0.883, -0.469, 0.469, 0.883, 1573.671, 1014.628)" fill="#fff"/>
      <circle id="Ellipse_9" data-name="Ellipse 9" cx="11.5" cy="11.5" r="11.5" transform="translate(1550 965.999)" fill="#fff"/>
      <ellipse id="Ellipse_10" data-name="Ellipse 10" cx="8.5" cy="8" rx="8.5" ry="8" transform="translate(1521 1028.999)" fill="#fff"/>
      <circle id="Ellipse_11" data-name="Ellipse 11" cx="8.5" cy="8.5" r="8.5" transform="translate(1489 996.999)" fill="#fff"/>
      <path id="Path_45" data-name="Path 45" d="M0,0S20.873,28.884,21.9,30.113s8.378.733,8.378.733l-3.9-4.714Z" transform="matrix(0.996, -0.087, 0.087, 0.996, 1499.326, 1007.735)" fill="#fff"/>
      <path id="Path_47" data-name="Path 47" d="M0,0S46.054,45.53,48.32,47.58s7.826-.429,7.826-.429l1.3-6.125Z" transform="matrix(-0.208, -0.978, 0.978, -0.208, 1527.698, 1041.528)" fill="#fff"/>
    </g>
  </g>
</svg>
