<svg xmlns="http://www.w3.org/2000/svg" xmlns:xlink="http://www.w3.org/1999/xlink" width="210" height="210" viewBox="0 0 210 210">
  <defs>
    <linearGradient id="linear-gradient" x1="0.102" y1="0.02" x2="0.946" y2="0.948" gradientUnits="objectBoundingBox">
      <stop offset="0" stop-color="#41ddc5"/>
      <stop offset="1" stop-color="#088d88"/>
    </linearGradient>
  </defs>
  <g id="Group_595" data-name="Group 595" transform="translate(376 -628)">
    <rect id="Rectangle_4" data-name="Rectangle 4" width="210" height="210" rx="37" transform="translate(-376 628)" fill="url(#linear-gradient)"/>
    <g id="Group_588" data-name="Group 588" transform="translate(0 5.25)">
      <path id="Path_13" data-name="Path 13" d="M0-68.742c11.936,0,21.656-9.316,21.656-20.754S11.935-110.25,0-110.25-21.656-100.934-21.656-89.5-11.936-68.742,0-68.742ZM-64.034-24.4a8.056,8.056,0,0,0,10.557,2.311A150.492,150.492,0,0,1-27.563-33.555V-12.14H27.562V-33.531A148.617,148.617,0,0,1,53.476-22.069a8.106,8.106,0,0,0,10.557-2.311l4.38-6.3a7.338,7.338,0,0,0-2.461-10.637c-2.929-1.674-7.309-4.009-12.575-6.462C46.462-36.9,28.916-43.578,31.8-56.054A110.759,110.759,0,0,0,0-61.2c-14.027,0-27.784,3.42-39.375,7.594-.049,9.481-11.714,14.929-19.491,8.49-2.756,1.415-5.242,2.736-7.063,3.773A7.334,7.334,0,0,0-68.39-30.7Zm75.846-4.717a5.773,5.773,0,0,1,5.906,5.66,5.773,5.773,0,0,1-5.906,5.66,5.773,5.773,0,0,1-5.906-5.66A5.773,5.773,0,0,1,11.812-29.121ZM-11.813-51.761A5.773,5.773,0,0,1-5.906-46.1a5.773,5.773,0,0,1-5.906,5.66,5.773,5.773,0,0,1-5.906-5.66A5.773,5.773,0,0,1-11.813-51.761ZM74.812-4.594H-74.813A3.869,3.869,0,0,0-78.75-.82V6.727A3.869,3.869,0,0,0-74.813,10.5H74.812A3.869,3.869,0,0,0,78.75,6.727V-.82A3.869,3.869,0,0,0,74.812-4.594Z" transform="translate(-271 815)" fill="#fff"/>
      <circle id="Ellipse_6" data-name="Ellipse 6" cx="9" cy="9" r="9" transform="translate(-293 760.75)" fill="#fff"/>
      <circle id="Ellipse_7" data-name="Ellipse 7" cx="9" cy="9" r="9" transform="translate(-267 781.75)" fill="#fff"/>
      <path id="Path_14" data-name="Path 14" d="M-330.128,772.869l19.962-9.046,8.476,13.549-24.957,6.848Z" transform="translate(0 -2.937)" fill="#fff"/>
      <path id="Path_15" data-name="Path 15" d="M-239.317,761.267c.656.341,22.2,8.882,22.2,8.882l-4.008,11.973-27.586-1.558Z" transform="translate(0 -2.822)" fill="#fff"/>
    </g>
    <g id="Path_12" data-name="Path 12" transform="translate(-376 628)" fill="#efefef" opacity="0.903">
      <path d="M 208.5 78.5 L 1.5 78.5 L 1.5 37 C 1.5 32.20685958862305 2.438416719436646 27.55791664123535 4.289138793945312 23.18224906921387 C 6.077083110809326 18.95513916015625 8.636972427368164 15.15844440460205 11.8977222442627 11.8977222442627 C 15.15844440460205 8.636972427368164 18.95513916015625 6.077083110809326 23.18224906921387 4.289138793945312 C 27.55791664123535 2.438416719436646 32.20685958862305 1.5 37 1.5 L 173 1.5 C 177.7931365966797 1.5 182.4421081542969 2.438416719436646 186.8177490234375 4.289138793945312 C 191.0448913574219 6.077083110809326 194.841552734375 8.636972427368164 198.1023101806641 11.8977222442627 C 201.3630218505859 15.15844440460205 203.9229125976562 18.95513916015625 205.7108612060547 23.18224906921387 C 207.5615844726562 27.55791664123535 208.5 32.20685958862305 208.5 37 L 208.5 78.5 Z" stroke="none"/>
      <path d="M 37 3 C 32.40870666503906 3 27.95635986328125 3.898529052734375 23.76658630371094 5.670646667480469 C 19.71826171875 7.382972717285156 16.08184814453125 9.834915161132812 12.95838928222656 12.95838165283203 C 9.834915161132812 16.08185195922852 7.382965087890625 19.71826553344727 5.670654296875 23.7665901184082 C 3.898529052734375 27.95635223388672 3 32.40870666503906 3 37 L 3 77 L 207 77 L 207 37 C 207 32.40870666503906 206.1014709472656 27.95635223388672 204.329345703125 23.7665901184082 C 202.6170349121094 19.71826553344727 200.1650848388672 16.08185195922852 197.0416107177734 12.95838165283203 C 193.9181518554688 9.834915161132812 190.28173828125 7.382972717285156 186.2334136962891 5.670646667480469 C 182.0436401367188 3.898529052734375 177.5912933349609 3 173 3 L 37 3 M 37 0 L 173 0 C 193.4345245361328 0 210 16.56547164916992 210 37 L 210 80 L 0 80 L 0 37 C 0 16.56547164916992 16.56547546386719 0 37 0 Z" stroke="none" fill="#36cdb9"/>
    </g>
    <path id="Path_21" data-name="Path 21" d="M-53.393-4.671l1.566,4.509a.271.271,0,0,0,.27.162h3.024c.162,0,.189-.081.162-.243l-6.237-17.334c-.027-.135-.054-.162-.189-.162H-58.55c-.108,0-.162.081-.162.189a4.128,4.128,0,0,1-.243,1.458L-64.517-.27c-.027.189.027.27.189.27h2.7a.268.268,0,0,0,.3-.216l1.485-4.455Zm-5.589-2.943c.81-2.457,1.89-5.616,2.322-7.425h.027c.54,1.89,1.809,5.643,2.376,7.425Zm12.42,7.4c0,.135.054.216.216.216h2.835a.2.2,0,0,0,.216-.216V-9.639a3.457,3.457,0,0,1,2.619-1.107c1.566,0,2.322,1.026,2.322,2.808v7.7A.215.215,0,0,0-38.111,0H-35.3c.135,0,.216-.054.216-.243V-8.235c0-4.32-2.484-5.346-4.509-5.346A5.952,5.952,0,0,0-43.511-12.1a5.879,5.879,0,0,0-.189-1.026c-.054-.135-.135-.189-.324-.189h-2.457c-.162,0-.189.054-.189.189.054.54.108,2,.108,2.916Zm21.708-2.4a4.936,4.936,0,0,1-1.917.324c-1.944,0-2.646-.864-2.646-1.863,0-1.161.945-1.863,3.078-1.863a11.108,11.108,0,0,1,1.485.081Zm3.159-5.616c0-3-1.62-5.346-5.373-5.346a10.031,10.031,0,0,0-4.1.81.257.257,0,0,0-.162.27v2.349a.158.158,0,0,0,.216.162,8.032,8.032,0,0,1,3.537-.756c2.376,0,2.727,1.4,2.727,2.025V-8.4c-.243-.027-.864-.054-1.674-.054-3.51,0-6.075,1.431-6.075,4.293C-32.6-1.107-30.254.27-27.311.27A13.132,13.132,0,0,0-21.695-.945c.054-.027.054-.054.054-.108-.054-.567-.054-1.107-.054-1.7Zm3.4,5.022c0,2.835,1.4,3.483,3.132,3.483A3.937,3.937,0,0,0-13.622.054c.135-.081.162-.108.162-.3V-2.268c0-.135-.027-.189-.108-.162a3.443,3.443,0,0,1-.513.027c-.648,0-.945-.27-.945-1.107v-15.5c0-.135-.081-.216-.243-.216H-18.05c-.162,0-.243.081-.243.216Zm5.859-10.1c-.135,0-.216.081-.162.189C-10.976-8.883-8.384-2.457-7.655-.675a.59.59,0,0,1-.027.432C-8.546,1.809-9.41,3.726-10.22,5.346c-.054.162-.027.216.135.216l2.943-.216a.333.333,0,0,0,.351-.189C-4.6.162-1.661-7.128.283-13.1c.027-.135,0-.216-.162-.216H-2.66a.286.286,0,0,0-.3.162c-1.215,3.78-2.16,6.561-3.051,9.288C-6.359-5.184-7.277-8.1-9.032-13.149a.226.226,0,0,0-.243-.162ZM9.328-2.376c0-.162-.081-.189-.162-.162A4.576,4.576,0,0,1,8.14-2.43C6.979-2.43,6.6-3,6.6-4.185v-6.4H9.247c.135,0,.189-.054.189-.189v-2.349c0-.135-.054-.189-.189-.189H6.628c0-1.323.054-2.916.135-3.807,0-.135-.054-.162-.189-.135l-2.727.378a.26.26,0,0,0-.216.243,28.5,28.5,0,0,0-.27,3.321H1.66c-.162,0-.216.054-.216.216v2.268c0,.162.054.216.189.243h1.7v7.1C3.334-.81,4.657.27,6.871.27a6.207,6.207,0,0,0,2.3-.378c.135-.054.162-.162.162-.324ZM11.7-.243c0,.162.081.243.27.243h2.781C14.944,0,15-.054,15-.216V-13.122c0-.162-.054-.189-.216-.189H11.92c-.135,0-.216.054-.216.189ZM13.351-15.12a1.757,1.757,0,0,0,1.863-1.863,1.736,1.736,0,0,0-1.836-1.863,1.786,1.786,0,0,0-1.863,1.863A1.75,1.75,0,0,0,13.351-15.12ZM27.661-2.781c0-.108-.054-.189-.189-.135a7.775,7.775,0,0,1-2.349.27c-2.079,0-4.212-1.134-4.212-4.077a3.835,3.835,0,0,1,4.185-4.05,6.347,6.347,0,0,1,2.322.351c.108.027.216.027.216-.162l.027-2.4c0-.162-.027-.243-.135-.3a7.755,7.755,0,0,0-2.538-.3c-4.455,0-7.425,2.97-7.425,6.966A6.567,6.567,0,0,0,24.529.27a8.224,8.224,0,0,0,3-.432c.108-.027.135-.081.135-.216ZM38-10.179c.162.054.243-.027.243-.162v-2.376a.329.329,0,0,0-.162-.324,8.323,8.323,0,0,0-3.4-.54c-3.375,0-5.049,1.917-5.049,3.969,0,1.944,1.053,3.159,4,4.239,1.674.675,2.187,1.107,2.187,1.782,0,.7-.675,1.188-2.079,1.188a7.349,7.349,0,0,1-3.861-1.08.14.14,0,0,0-.216.135V-.783c0,.162.054.216.189.3A8.305,8.305,0,0,0,33.655.27c3.321,0,5.319-1.593,5.319-4.131,0-1.917-1.053-3.132-4.131-4.266C33.115-8.8,32.71-9.207,32.71-9.8c0-.567.486-1.161,1.917-1.161A7.679,7.679,0,0,1,38-10.179Zm24.462,2c.162,0,.216-.027.243-.216l.4-2.43c.027-.135,0-.189-.189-.189H54.364c-1.134-.918-1.836-1.728-1.836-2.511,0-1.053.729-1.674,2.322-1.674a6,6,0,0,1,2.862.621c.108.081.216.027.216-.135v-2.457a.327.327,0,0,0-.162-.324,6.788,6.788,0,0,0-3.051-.54c-3.213,0-5.4,1.7-5.4,4.428a5.043,5.043,0,0,0,1.458,3.4,5.347,5.347,0,0,0-3.78,5.049c0,3.375,2.538,5.427,6.021,5.427a6.952,6.952,0,0,0,2.646-.4c.135-.054.189-.081.189-.27V-2.97c0-.135-.027-.189-.135-.162a5.3,5.3,0,0,1-2.133.378c-2.214,0-3.294-1.242-3.294-2.727a2.582,2.582,0,0,1,2.322-2.565c.621.27,2.565,2.3,4.482,5.13C58.9-.27,60.223.27,62.086.27a4.243,4.243,0,0,0,1.4-.189c.189-.081.216-.135.216-.351V-2.592c0-.162-.054-.189-.189-.189a4.958,4.958,0,0,1-.7.054c-1.242,0-2.052-.513-3.105-1.917a28.69,28.69,0,0,0-2.916-3.537ZM-63.423,32.757c0,.162.081.243.189.243.864.054,3.348.054,5.049.054,4.563,0,9.585-2.646,9.585-9.234,0-5.022-3.186-8.613-9.531-8.613-2.484,0-4.32.054-5.1.081-.162.027-.189.081-.189.216ZM-60.156,18.1c.648-.027,1.242-.054,2-.054,3.645,0,6.21,1.944,6.21,5.859,0,4.1-2.565,6.318-6.372,6.318-.7,0-1.3,0-1.836-.027ZM-45.9,32.757c0,.162.081.243.27.243h2.781c.189,0,.243-.054.243-.216V19.878c0-.162-.054-.189-.216-.189h-2.862c-.135,0-.216.054-.216.189Zm1.647-14.877a1.757,1.757,0,0,0,1.863-1.863,1.736,1.736,0,0,0-1.836-1.863,1.786,1.786,0,0,0-1.863,1.863A1.75,1.75,0,0,0-44.253,17.88Zm11.988,12.5a4.936,4.936,0,0,1-1.917.324c-1.944,0-2.646-.864-2.646-1.863,0-1.161.945-1.863,3.078-1.863a11.108,11.108,0,0,1,1.485.081Zm3.159-5.616c0-3-1.62-5.346-5.373-5.346a10.031,10.031,0,0,0-4.1.81.257.257,0,0,0-.162.27v2.349a.158.158,0,0,0,.216.162,8.032,8.032,0,0,1,3.537-.756c2.376,0,2.727,1.4,2.727,2.025V24.6c-.243-.027-.864-.054-1.674-.054-3.51,0-6.075,1.431-6.075,4.293,0,3.051,2.349,4.428,5.292,4.428a13.132,13.132,0,0,0,5.616-1.215c.054-.027.054-.054.054-.108-.054-.567-.054-1.107-.054-1.7Zm9.018,8.154c1.647.081,3,.405,3,1.593,0,1.026-1.134,2.079-3.7,2.079-2.241,0-3.537-1.053-3.537-2a2.963,2.963,0,0,1,1.3-1.809Zm-1.3-11.151a2.028,2.028,0,0,1,2.16,2.268,1.96,1.96,0,0,1-2.16,2.106,2.02,2.02,0,0,1-2.187-2.16A2.036,2.036,0,0,1-21.384,21.768Zm-.756,8.289a1.519,1.519,0,0,1-.351-.837,1.669,1.669,0,0,1,.081-.81,7.271,7.271,0,0,0,1.08.081c2.916,0,5.211-1.458,5.211-4.347a3.5,3.5,0,0,0-.594-2.052,19.138,19.138,0,0,0,2.079.135c.135,0,.162-.054.162-.162V19.851c0-.108-.027-.162-.162-.162h-3.753a3.01,3.01,0,0,1-.621-.081,13.6,13.6,0,0,0-2.376-.189c-3.4,0-5.373,2.025-5.373,4.617a3.96,3.96,0,0,0,1.863,3.51A3.373,3.373,0,0,0-25.38,29.3a3.343,3.343,0,0,0,.567,2.025c-1.782,1.539-2.511,2.646-2.511,3.51,0,1.971,1.971,4.158,6.318,4.158,4.212,0,6.912-2.214,6.912-4.968,0-2.214-1.593-3.672-5.292-3.861Zm9.774,2.727c0,.135.054.216.216.216h2.835a.2.2,0,0,0,.216-.216V23.361A3.457,3.457,0,0,1-6.48,22.254c1.566,0,2.322,1.026,2.322,2.808v7.695A.215.215,0,0,0-3.915,33h2.808c.135,0,.216-.054.216-.243V24.765c0-4.32-2.484-5.346-4.509-5.346A5.952,5.952,0,0,0-9.315,20.9,5.879,5.879,0,0,0-9.5,19.878c-.054-.135-.135-.189-.324-.189h-2.457c-.162,0-.189.054-.189.189.054.54.108,2,.108,2.916Zm20.6-13.365c-4.05,0-6.561,3.105-6.561,6.939,0,3.429,2,6.912,6.507,6.912,3.807,0,6.48-2.808,6.48-6.993C14.661,22.578,12.393,19.419,8.235,19.419Zm-.162,2.727c2.295,0,3.267,1.971,3.267,4.212,0,2.781-1.431,4.158-3.1,4.158-2.052,0-3.267-1.728-3.267-4.212C4.968,23.739,6.264,22.146,8.073,22.146Zm17.091.675c.162.054.243-.027.243-.162V20.283a.329.329,0,0,0-.162-.324,8.323,8.323,0,0,0-3.4-.54c-3.375,0-5.049,1.917-5.049,3.969,0,1.944,1.053,3.159,4,4.239,1.674.675,2.187,1.107,2.187,1.782,0,.7-.675,1.188-2.079,1.188a7.349,7.349,0,0,1-3.861-1.08.14.14,0,0,0-.216.135v2.565c0,.162.054.216.189.3a8.305,8.305,0,0,0,3.807.756c3.321,0,5.319-1.593,5.319-4.131,0-1.917-1.053-3.132-4.131-4.266-1.728-.675-2.133-1.08-2.133-1.674,0-.567.486-1.161,1.917-1.161A7.679,7.679,0,0,1,25.164,22.821Zm9.909,7.8c0-.162-.081-.189-.162-.162a4.576,4.576,0,0,1-1.026.108c-1.161,0-1.539-.567-1.539-1.755v-6.4h2.646c.135,0,.189-.054.189-.189V19.878c0-.135-.054-.189-.189-.189H32.373c0-1.323.054-2.916.135-3.807,0-.135-.054-.162-.189-.135l-2.727.378a.26.26,0,0,0-.216.243,28.5,28.5,0,0,0-.27,3.321h-1.7c-.162,0-.216.054-.216.216v2.268c0,.162.054.216.189.243h1.7v7.1c0,2.673,1.323,3.753,3.537,3.753a6.207,6.207,0,0,0,2.3-.378c.135-.054.162-.162.162-.324Zm2.376,2.133c0,.162.081.243.27.243H40.5c.189,0,.243-.054.243-.216V19.878c0-.162-.054-.189-.216-.189H37.665c-.135,0-.216.054-.216.189ZM39.1,17.88a1.757,1.757,0,0,0,1.863-1.863,1.736,1.736,0,0,0-1.836-1.863,1.786,1.786,0,0,0-1.863,1.863A1.75,1.75,0,0,0,39.1,17.88Zm14.31,12.339c0-.108-.054-.189-.189-.135a7.775,7.775,0,0,1-2.349.27c-2.079,0-4.212-1.134-4.212-4.077a3.835,3.835,0,0,1,4.185-4.05,6.347,6.347,0,0,1,2.322.351c.108.027.216.027.216-.162l.027-2.4c0-.162-.027-.243-.135-.3a7.755,7.755,0,0,0-2.538-.3c-4.455,0-7.425,2.97-7.425,6.966a6.567,6.567,0,0,0,6.966,6.885,8.225,8.225,0,0,0,3-.432c.108-.027.135-.081.135-.216Zm10.341-7.4c.162.054.243-.027.243-.162V20.283a.329.329,0,0,0-.162-.324,8.323,8.323,0,0,0-3.4-.54c-3.375,0-5.049,1.917-5.049,3.969,0,1.944,1.053,3.159,4,4.239,1.674.675,2.187,1.107,2.187,1.782,0,.7-.675,1.188-2.079,1.188a7.349,7.349,0,0,1-3.861-1.08.14.14,0,0,0-.216.135v2.565c0,.162.054.216.189.3a8.305,8.305,0,0,0,3.807.756c3.321,0,5.319-1.593,5.319-4.131,0-1.917-1.053-3.132-4.131-4.266-1.728-.675-2.133-1.08-2.133-1.674,0-.567.486-1.161,1.917-1.161A7.679,7.679,0,0,1,63.747,22.821Z" transform="translate(-271 662)" fill="#212529"/>
    <g id="insights-24px" transform="translate(-234 710)">
      <g id="Group_589" data-name="Group 589">
        <rect id="Rectangle_20" data-name="Rectangle 20" width="42" height="42" fill="none"/>
      </g>
      <g id="Group_591" data-name="Group 591" transform="translate(1.733 5.199)">
        <g id="Group_590" data-name="Group 590">
          <path id="Path_16" data-name="Path 16" d="M35.659,8a3.472,3.472,0,0,0-3.345,4.35l-6.152,6.169a3.529,3.529,0,0,0-1.8,0L19.941,14.1a3.464,3.464,0,1,0-6.689,0l-7.9,7.885A3.463,3.463,0,1,0,7.81,24.446l7.885-7.9a3.529,3.529,0,0,0,1.8,0l4.419,4.419a3.464,3.464,0,1,0,6.689,0l6.169-6.152A3.463,3.463,0,1,0,35.659,8Z" transform="translate(-1 0.665)" fill="#fff"/>
          <path id="Path_17" data-name="Path 17" d="M17.2,13.4,18.828,9.81,22.4,8.2l-3.57-1.612L17.2,3,15.6,6.587,12,8.2,15.6,9.81Z" transform="translate(7.062 -3)" fill="#fff"/>
          <path id="Path_18" data-name="Path 18" d="M5.332,14.665,6.2,11.2l3.466-.866L6.2,9.466,5.332,6,4.466,9.466,1,10.332l3.466.866Z" transform="translate(-1 -0.801)" fill="#fff"/>
        </g>
      </g>
    </g>
    <g id="stacked_bar_chart-24px" transform="translate(-350 709)">
      <path id="Path_19" data-name="Path 19" d="M0,0H43.4V43.4H0Z" fill="none"/>
      <path id="Path_20" data-name="Path 20" d="M6,14.041h5.425V32.123H6ZM6,5h5.425v7.233H6ZM24.082,24.89h5.425v7.233H24.082Zm0-5.425h5.425v3.616H24.082Zm-9.041,0h5.425V32.123H15.041Zm0-7.233h5.425v5.425H15.041Z" transform="translate(4.849 4.041)" fill="#fff"/>
    </g>
  </g>
</svg>
