<svg xmlns="http://www.w3.org/2000/svg" xmlns:xlink="http://www.w3.org/1999/xlink" width="210" height="210" viewBox="0 0 210 210">
  <defs>
    <linearGradient id="linear-gradient" x1="0.102" y1="0.02" x2="0.946" y2="0.948" gradientUnits="objectBoundingBox">
      <stop offset="0" stop-color="#e8f216"/>
      <stop offset="1" stop-color="#c1c106"/>
    </linearGradient>
  </defs>
  <g id="Group_601" data-name="Group 601" transform="translate(122 -628)">
    <rect id="Rectangle_4" data-name="Rectangle 4" width="210" height="210" rx="37" transform="translate(-122 628)" fill="url(#linear-gradient)"/>
    <g id="Path_12" data-name="Path 12" transform="translate(-122 628)" fill="#efefef" opacity="0.903">
      <path d="M 208.5 78.5 L 1.5 78.5 L 1.5 37 C 1.5 32.20685958862305 2.438416719436646 27.55791664123535 4.289138793945312 23.18224906921387 C 6.077083110809326 18.95513916015625 8.636972427368164 15.15844440460205 11.8977222442627 11.8977222442627 C 15.15844440460205 8.636972427368164 18.95513916015625 6.077083110809326 23.18224906921387 4.289138793945312 C 27.55791664123535 2.438416719436646 32.20685958862305 1.5 37 1.5 L 173 1.5 C 177.7931365966797 1.5 182.4421081542969 2.438416719436646 186.8177490234375 4.289138793945312 C 191.0448913574219 6.077083110809326 194.841552734375 8.636972427368164 198.1023101806641 11.8977222442627 C 201.3630218505859 15.15844440460205 203.9229125976562 18.95513916015625 205.7108612060547 23.18224906921387 C 207.5615844726562 27.55791664123535 208.5 32.20685958862305 208.5 37 L 208.5 78.5 Z" stroke="none"/>
      <path d="M 37 3 C 32.40870666503906 3 27.95635986328125 3.898529052734375 23.76658630371094 5.670646667480469 C 19.71826171875 7.382972717285156 16.08184814453125 9.834915161132812 12.95838928222656 12.95838165283203 C 9.834915161132812 16.08185195922852 7.382965087890625 19.71826553344727 5.670654296875 23.7665901184082 C 3.898529052734375 27.95635223388672 3 32.40870666503906 3 37 L 3 77 L 207 77 L 207 37 C 207 32.40870666503906 206.1014709472656 27.95635223388672 204.329345703125 23.7665901184082 C 202.6170349121094 19.71826553344727 200.1650848388672 16.08185195922852 197.0416107177734 12.95838165283203 C 193.9181518554688 9.834915161132812 190.28173828125 7.382972717285156 186.2334136962891 5.670646667480469 C 182.0436401367188 3.898529052734375 177.5912933349609 3 173 3 L 37 3 M 37 0 L 173 0 C 193.4345245361328 0 210 16.56547164916992 210 37 L 210 80 L 0 80 L 0 37 C 0 16.56547164916992 16.56547546386719 0 37 0 Z" stroke="none" fill="#e2ea14"/>
    </g>
    <path id="Path_22" data-name="Path 22" d="M-51.016-.243c0,.162.081.243.189.243.864.054,3.348.054,5.049.054,4.563,0,9.585-2.646,9.585-9.234,0-5.022-3.186-8.613-9.531-8.613-2.484,0-4.32.054-5.1.081-.162.027-.189.081-.189.216ZM-47.75-14.9c.648-.027,1.242-.054,2-.054,3.645,0,6.21,1.944,6.21,5.859,0,4.1-2.565,6.318-6.372,6.318-.7,0-1.3,0-1.836-.027ZM-26.662-2.619A4.936,4.936,0,0,1-28.58-2.3c-1.944,0-2.646-.864-2.646-1.863,0-1.161.945-1.863,3.078-1.863a11.108,11.108,0,0,1,1.485.081ZM-23.5-8.235c0-3-1.62-5.346-5.373-5.346a10.031,10.031,0,0,0-4.1.81.257.257,0,0,0-.162.27v2.349a.158.158,0,0,0,.216.162,8.032,8.032,0,0,1,3.537-.756c2.376,0,2.727,1.4,2.727,2.025V-8.4c-.243-.027-.864-.054-1.674-.054-3.51,0-6.075,1.431-6.075,4.293,0,3.051,2.349,4.428,5.292,4.428A13.132,13.132,0,0,0-23.5-.945c.054-.027.054-.054.054-.108-.054-.567-.054-1.107-.054-1.7Zm9.558,5.859c0-.162-.081-.189-.162-.162a4.576,4.576,0,0,1-1.026.108c-1.161,0-1.539-.567-1.539-1.755v-6.4h2.646c.135,0,.189-.054.189-.189v-2.349c0-.135-.054-.189-.189-.189h-2.619c0-1.323.054-2.916.135-3.807,0-.135-.054-.162-.189-.135l-2.727.378a.26.26,0,0,0-.216.243,28.5,28.5,0,0,0-.27,3.321h-1.7c-.162,0-.216.054-.216.216v2.268c0,.162.054.216.189.243h1.7v7.1C-19.94-.81-18.617.27-16.4.27a6.207,6.207,0,0,0,2.3-.378c.135-.054.162-.162.162-.324Zm9.234-.243A4.936,4.936,0,0,1-6.628-2.3c-1.944,0-2.646-.864-2.646-1.863,0-1.161.945-1.863,3.078-1.863a11.108,11.108,0,0,1,1.485.081Zm3.159-5.616c0-3-1.62-5.346-5.373-5.346a10.031,10.031,0,0,0-4.1.81.257.257,0,0,0-.162.27v2.349a.158.158,0,0,0,.216.162,8.032,8.032,0,0,1,3.537-.756c2.376,0,2.727,1.4,2.727,2.025V-8.4c-.243-.027-.864-.054-1.674-.054-3.51,0-6.075,1.431-6.075,4.293C-12.46-1.107-10.111.27-7.168.27A13.132,13.132,0,0,0-1.552-.945C-1.5-.972-1.5-1-1.5-1.053c-.054-.567-.054-1.107-.054-1.7ZM2.038-19.224a.171.171,0,0,0-.189.189V-.567a.288.288,0,0,0,.189.243A13.49,13.49,0,0,0,6.088.27c4,0,7.884-2.484,7.884-7.479A6.094,6.094,0,0,0,7.6-13.581a7.818,7.818,0,0,0-2.457.378l-.027-5.8c0-.189-.054-.216-.243-.216ZM10.651-6.885a4.083,4.083,0,0,1-4.266,4.4,4.5,4.5,0,0,1-1.242-.135V-10.5a4.957,4.957,0,0,1,1.89-.3C9.166-10.8,10.651-9.45,10.651-6.885ZM23.531-2.619a4.936,4.936,0,0,1-1.917.324c-1.944,0-2.646-.864-2.646-1.863,0-1.161.945-1.863,3.078-1.863a11.108,11.108,0,0,1,1.485.081ZM26.69-8.235c0-3-1.62-5.346-5.373-5.346a10.031,10.031,0,0,0-4.1.81.257.257,0,0,0-.162.27v2.349a.158.158,0,0,0,.216.162,8.032,8.032,0,0,1,3.537-.756c2.376,0,2.727,1.4,2.727,2.025V-8.4c-.243-.027-.864-.054-1.674-.054-3.51,0-6.075,1.431-6.075,4.293,0,3.051,2.349,4.428,5.292,4.428A13.132,13.132,0,0,0,26.69-.945c.054-.027.054-.054.054-.108-.054-.567-.054-1.107-.054-1.7Zm10.935-1.944c.162.054.243-.027.243-.162v-2.376a.329.329,0,0,0-.162-.324,8.323,8.323,0,0,0-3.4-.54c-3.375,0-5.049,1.917-5.049,3.969,0,1.944,1.053,3.159,4,4.239,1.674.675,2.187,1.107,2.187,1.782,0,.7-.675,1.188-2.079,1.188A7.349,7.349,0,0,1,29.5-3.483a.14.14,0,0,0-.216.135V-.783c0,.162.054.216.189.3A8.305,8.305,0,0,0,33.278.27C36.6.27,38.6-1.323,38.6-3.861c0-1.917-1.053-3.132-4.131-4.266C32.738-8.8,32.333-9.207,32.333-9.8c0-.567.486-1.161,1.917-1.161A7.679,7.679,0,0,1,37.625-10.179ZM49.1-5.913a20.566,20.566,0,0,0,2.781-.108A.232.232,0,0,0,52.1-6.21,8.171,8.171,0,0,0,52.2-7.884c0-2.565-1.539-5.7-5.535-5.7-4.077,0-6.345,3.321-6.345,7.074,0,3.321,1.755,6.777,6.669,6.777a8.965,8.965,0,0,0,4.05-.783.286.286,0,0,0,.162-.3V-3.051c0-.135-.081-.162-.162-.108a8.508,8.508,0,0,1-3.348.648c-2.754,0-4-1.512-4.077-3.4ZM43.618-8.235a2.949,2.949,0,0,1,2.916-2.754,2.5,2.5,0,0,1,2.592,2.511v.216a13.234,13.234,0,0,1-1.485.027ZM-72.509,15.423l-1.026,17.361c-.027.189.027.216.189.216h2.7c.162,0,.216-.027.216-.189.27-5.67.486-12.528.513-15.255h.054c.756,3.294,2.916,11.151,4.077,15.255.027.162.081.189.27.189h2.7a.215.215,0,0,0,.243-.216c1.08-3.591,3.861-12.609,4.482-15.2h.027c-.027,1.7.027,9.477.162,15.228,0,.162.081.189.216.189h3c.135,0,.216-.054.189-.216l-.729-17.361c-.027-.135-.081-.162-.216-.162h-4.212c-.162,0-.189.081-.243.189-.837,2.781-3.51,10.962-4.077,13.257H-64c-.54-2.511-2.889-10.53-3.7-13.257a.242.242,0,0,0-.27-.189h-4.32C-72.428,15.261-72.482,15.261-72.509,15.423Zm28.161,14.958a4.936,4.936,0,0,1-1.917.324c-1.944,0-2.646-.864-2.646-1.863,0-1.161.945-1.863,3.078-1.863a11.108,11.108,0,0,1,1.485.081Zm3.159-5.616c0-3-1.62-5.346-5.373-5.346a10.031,10.031,0,0,0-4.1.81.257.257,0,0,0-.162.27v2.349a.158.158,0,0,0,.216.162,8.032,8.032,0,0,1,3.537-.756c2.376,0,2.727,1.4,2.727,2.025V24.6c-.243-.027-.864-.054-1.674-.054-3.51,0-6.075,1.431-6.075,4.293,0,3.051,2.349,4.428,5.292,4.428a13.132,13.132,0,0,0,5.616-1.215c.054-.027.054-.054.054-.108-.054-.567-.054-1.107-.054-1.7Zm3.4,8.019c0,.135.054.216.216.216h2.835a.2.2,0,0,0,.216-.216V23.361A3.457,3.457,0,0,1-31.9,22.254c1.566,0,2.322,1.026,2.322,2.808v7.695a.215.215,0,0,0,.243.243h2.808c.135,0,.216-.054.216-.243V24.765c0-4.32-2.484-5.346-4.509-5.346A5.952,5.952,0,0,0-34.736,20.9a5.879,5.879,0,0,0-.189-1.026c-.054-.135-.135-.189-.324-.189h-2.457c-.162,0-.189.054-.189.189.054.54.108,2,.108,2.916Zm21.708-2.4A4.936,4.936,0,0,1-18,30.7c-1.944,0-2.646-.864-2.646-1.863,0-1.161.945-1.863,3.078-1.863a11.108,11.108,0,0,1,1.485.081Zm3.159-5.616c0-3-1.62-5.346-5.373-5.346a10.031,10.031,0,0,0-4.1.81.257.257,0,0,0-.162.27v2.349a.158.158,0,0,0,.216.162,8.032,8.032,0,0,1,3.537-.756c2.376,0,2.727,1.4,2.727,2.025V24.6c-.243-.027-.864-.054-1.674-.054-3.51,0-6.075,1.431-6.075,4.293,0,3.051,2.349,4.428,5.292,4.428a13.132,13.132,0,0,0,5.616-1.215c.054-.027.054-.054.054-.108-.054-.567-.054-1.107-.054-1.7ZM-3.9,32.919c1.647.081,3,.405,3,1.593,0,1.026-1.134,2.079-3.7,2.079-2.241,0-3.537-1.053-3.537-2a2.963,2.963,0,0,1,1.3-1.809ZM-5.2,21.768a2.028,2.028,0,0,1,2.16,2.268A1.96,1.96,0,0,1-5.2,26.142a2.02,2.02,0,0,1-2.187-2.16A2.036,2.036,0,0,1-5.2,21.768Zm-.756,8.289A1.519,1.519,0,0,1-6.3,29.22a1.669,1.669,0,0,1,.081-.81,7.271,7.271,0,0,0,1.08.081c2.916,0,5.211-1.458,5.211-4.347a3.5,3.5,0,0,0-.594-2.052,19.138,19.138,0,0,0,2.079.135c.135,0,.162-.054.162-.162V19.851c0-.108-.027-.162-.162-.162H-2.2a3.01,3.01,0,0,1-.621-.081A13.6,13.6,0,0,0-5.2,19.419c-3.4,0-5.373,2.025-5.373,4.617a3.96,3.96,0,0,0,1.863,3.51A3.374,3.374,0,0,0-9.194,29.3a3.343,3.343,0,0,0,.567,2.025c-1.782,1.539-2.511,2.646-2.511,3.51,0,1.971,1.971,4.158,6.318,4.158,4.212,0,6.912-2.214,6.912-4.968,0-2.214-1.593-3.672-5.292-3.861Zm17.5-2.97a20.566,20.566,0,0,0,2.781-.108.232.232,0,0,0,.216-.189,8.172,8.172,0,0,0,.108-1.674c0-2.565-1.539-5.7-5.535-5.7-4.077,0-6.345,3.321-6.345,7.074,0,3.321,1.755,6.777,6.669,6.777a8.965,8.965,0,0,0,4.05-.783.286.286,0,0,0,.162-.3V29.949c0-.135-.081-.162-.162-.108a8.508,8.508,0,0,1-3.348.648c-2.754,0-4-1.512-4.077-3.4ZM6.061,24.765a2.949,2.949,0,0,1,2.916-2.754,2.5,2.5,0,0,1,2.592,2.511v.216a13.233,13.233,0,0,1-1.485.027ZM20.209,33c.162,0,.216-.054.216-.216V23.253a3.8,3.8,0,0,1,2.565-1c1.458,0,2.268.864,2.268,2.646v7.857c0,.189.081.243.243.243h2.808c.162,0,.189-.081.189-.216V24.927a12.353,12.353,0,0,0-.081-1.593,3.825,3.825,0,0,1,2.646-1.107c1.647,0,2.268,1.215,2.268,2.754v7.776c0,.162.054.243.243.243h2.781c.135,0,.243-.054.243-.216v-8.1c0-4.077-2.322-5.265-4.563-5.265A6.654,6.654,0,0,0,27.607,21.2a3.782,3.782,0,0,0-3.483-1.782,5.763,5.763,0,0,0-3.942,1.512,4.577,4.577,0,0,0-.162-1.08.257.257,0,0,0-.27-.162H17.266c-.162,0-.243.054-.216.189.054.513.108,1.62.108,2.673V32.757c0,.162.054.243.216.243Zm27.729-5.913a20.566,20.566,0,0,0,2.781-.108.232.232,0,0,0,.216-.189,8.172,8.172,0,0,0,.108-1.674c0-2.565-1.539-5.7-5.535-5.7-4.077,0-6.345,3.321-6.345,7.074,0,3.321,1.755,6.777,6.669,6.777a8.965,8.965,0,0,0,4.05-.783.286.286,0,0,0,.162-.3V29.949c0-.135-.081-.162-.162-.108a8.508,8.508,0,0,1-3.348.648c-2.754,0-4-1.512-4.077-3.4Zm-5.481-2.322a2.949,2.949,0,0,1,2.916-2.754,2.5,2.5,0,0,1,2.592,2.511v.216a13.233,13.233,0,0,1-1.485.027Zm11.1,8.019c0,.135.054.216.216.216h2.835a.2.2,0,0,0,.216-.216V23.361a3.457,3.457,0,0,1,2.619-1.107c1.566,0,2.322,1.026,2.322,2.808v7.695a.215.215,0,0,0,.243.243h2.808c.135,0,.216-.054.216-.243V24.765c0-4.32-2.484-5.346-4.509-5.346A5.952,5.952,0,0,0,56.605,20.9a5.879,5.879,0,0,0-.189-1.026c-.054-.135-.135-.189-.324-.189H53.635c-.162,0-.189.054-.189.189.054.54.108,2,.108,2.916Zm21.168-2.16c0-.162-.081-.189-.162-.162a4.576,4.576,0,0,1-1.026.108C72.373,30.57,72,30,72,28.815v-6.4h2.646c.135,0,.189-.054.189-.189V19.878c0-.135-.054-.189-.189-.189H72.022c0-1.323.054-2.916.135-3.807,0-.135-.054-.162-.189-.135l-2.727.378a.26.26,0,0,0-.216.243,28.5,28.5,0,0,0-.27,3.321h-1.7c-.162,0-.216.054-.216.216v2.268c0,.162.054.216.189.243h1.7v7.1c0,2.673,1.323,3.753,3.537,3.753a6.207,6.207,0,0,0,2.295-.378c.135-.054.162-.162.162-.324Z" transform="translate(-17 660)" fill="#212529"/>
    <path id="Path_23" data-name="Path 23" d="M57.779-74.138C57.779-83.425,34.649-91,6.139-91S-45.5-83.425-45.5-74.138V-63.6c0,9.287,23.13,16.862,51.639,16.862S57.779-54.312,57.779-63.6Zm0,23.712c-11.095,7.64-31.4,11.2-51.639,11.2s-40.545-3.557-51.639-11.2v23.712c0,9.287,23.13,16.862,51.639,16.862s51.639-7.575,51.639-16.862Zm0,36.885c-11.095,7.64-31.4,11.2-51.639,11.2S-34.406-5.9-45.5-13.541V10.171c0,9.287,23.13,16.862,51.639,16.862s51.639-7.575,51.639-16.862Z" transform="translate(-23.5 804.967)" fill="#fff"/>
  </g>
</svg>
