<svg xmlns="http://www.w3.org/2000/svg" xmlns:xlink="http://www.w3.org/1999/xlink" width="210" height="210" viewBox="0 0 210 210">
  <defs>
    <linearGradient id="linear-gradient" x1="0.102" y1="0.02" x2="0.946" y2="0.948" gradientUnits="objectBoundingBox">
      <stop offset="0" stop-color="#ffcc58"/>
      <stop offset="1" stop-color="#c13806"/>
    </linearGradient>
  </defs>
  <g id="Group_603" data-name="Group 603" transform="translate(-142 -628)">
    <rect id="Rectangle_4" data-name="Rectangle 4" width="210" height="210" rx="37" transform="translate(142 628)" fill="url(#linear-gradient)"/>
    <g id="Path_12" data-name="Path 12" transform="translate(142 628)" fill="#efefef" opacity="0.903">
      <path d="M 208.5 78.5 L 1.5 78.5 L 1.5 37 C 1.5 32.20685958862305 2.438416719436646 27.55791664123535 4.289138793945312 23.18224906921387 C 6.077083110809326 18.95513916015625 8.636972427368164 15.15844440460205 11.8977222442627 11.8977222442627 C 15.15844440460205 8.636972427368164 18.95513916015625 6.077083110809326 23.18224906921387 4.289138793945312 C 27.55791664123535 2.438416719436646 32.20685958862305 1.5 37 1.5 L 173 1.5 C 177.7931365966797 1.5 182.4421081542969 2.438416719436646 186.8177490234375 4.289138793945312 C 191.0448913574219 6.077083110809326 194.841552734375 8.636972427368164 198.1023101806641 11.8977222442627 C 201.3630218505859 15.15844440460205 203.9229125976562 18.95513916015625 205.7108612060547 23.18224906921387 C 207.5615844726562 27.55791664123535 208.5 32.20685958862305 208.5 37 L 208.5 78.5 Z" stroke="none"/>
      <path d="M 37 3 C 32.40870666503906 3 27.95635986328125 3.898529052734375 23.76658630371094 5.670646667480469 C 19.71826171875 7.382972717285156 16.08184814453125 9.834915161132812 12.95838928222656 12.95838165283203 C 9.834915161132812 16.08185195922852 7.382965087890625 19.71826553344727 5.670654296875 23.7665901184082 C 3.898529052734375 27.95635223388672 3 32.40870666503906 3 37 L 3 77 L 207 77 L 207 37 C 207 32.40870666503906 206.1014709472656 27.95635223388672 204.329345703125 23.7665901184082 C 202.6170349121094 19.71826553344727 200.1650848388672 16.08185195922852 197.0416107177734 12.95838165283203 C 193.9181518554688 9.834915161132812 190.28173828125 7.382972717285156 186.2334136962891 5.670646667480469 C 182.0436401367188 3.898529052734375 177.5912933349609 3 173 3 L 37 3 M 37 0 L 173 0 C 193.4345245361328 0 210 16.56547164916992 210 37 L 210 80 L 0 80 L 0 37 C 0 16.56547164916992 16.56547546386719 0 37 0 Z" stroke="none" fill="#f4b249"/>
    </g>
    <path id="Path_36" data-name="Path 36" d="M-59.319,0c.135,0,.216-.054.216-.216V-6.8h2.322c.3,0,.432.135.621.459,1.188,1.89,3.078,4.995,3.861,6.21A.45.45,0,0,0-51.921,0h3.375c.162,0,.135-.135.054-.3-.783-1.35-4.023-6.183-4.914-7.425a5.019,5.019,0,0,0,3.483-4.752c0-3.456-2.538-5.319-6.858-5.319-2.079,0-3.213.027-5.346.081-.162,0-.189.108-.189.243V-.216c0,.162.054.216.216.216Zm.216-9.585V-14.9c.432-.027,1.3-.054,2.214-.054,2.3,0,3.726.891,3.726,2.673,0,1.728-1.4,2.7-3.591,2.7ZM-39.15-5.913a20.566,20.566,0,0,0,2.781-.108.232.232,0,0,0,.216-.189,8.172,8.172,0,0,0,.108-1.674c0-2.565-1.539-5.7-5.535-5.7-4.077,0-6.345,3.321-6.345,7.074,0,3.321,1.755,6.777,6.669,6.777a8.965,8.965,0,0,0,4.05-.783.286.286,0,0,0,.162-.3V-3.051c0-.135-.081-.162-.162-.108a8.508,8.508,0,0,1-3.348.648c-2.754,0-4-1.512-4.077-3.4Zm-5.481-2.322a2.949,2.949,0,0,1,2.916-2.754,2.5,2.5,0,0,1,2.592,2.511v.216a13.234,13.234,0,0,1-1.485.027Zm18.873-1.944c.162.054.243-.027.243-.162v-2.376a.329.329,0,0,0-.162-.324,8.323,8.323,0,0,0-3.4-.54c-3.375,0-5.049,1.917-5.049,3.969,0,1.944,1.053,3.159,4,4.239,1.674.675,2.187,1.107,2.187,1.782,0,.7-.675,1.188-2.079,1.188a7.349,7.349,0,0,1-3.861-1.08.14.14,0,0,0-.216.135V-.783c0,.162.054.216.189.3A8.305,8.305,0,0,0-30.105.27c3.321,0,5.319-1.593,5.319-4.131,0-1.917-1.053-3.132-4.131-4.266C-30.645-8.8-31.05-9.207-31.05-9.8c0-.567.486-1.161,1.917-1.161A7.679,7.679,0,0,1-25.758-10.179Zm11.475,4.266A20.566,20.566,0,0,0-11.5-6.021a.232.232,0,0,0,.216-.189,8.172,8.172,0,0,0,.108-1.674c0-2.565-1.539-5.7-5.535-5.7-4.077,0-6.345,3.321-6.345,7.074C-23.058-3.186-21.3.27-16.389.27a8.965,8.965,0,0,0,4.05-.783.286.286,0,0,0,.162-.3V-3.051c0-.135-.081-.162-.162-.108a8.508,8.508,0,0,1-3.348.648c-2.754,0-4-1.512-4.077-3.4Zm-5.481-2.322a2.949,2.949,0,0,1,2.916-2.754,2.5,2.5,0,0,1,2.592,2.511v.216a13.234,13.234,0,0,1-1.485.027ZM-1.836-2.619A4.936,4.936,0,0,1-3.753-2.3C-5.7-2.3-6.4-3.159-6.4-4.158c0-1.161.945-1.863,3.078-1.863a11.108,11.108,0,0,1,1.485.081ZM1.323-8.235c0-3-1.62-5.346-5.373-5.346a10.031,10.031,0,0,0-4.1.81.257.257,0,0,0-.162.27v2.349A.158.158,0,0,0-8.1-9.99a8.032,8.032,0,0,1,3.537-.756c2.376,0,2.727,1.4,2.727,2.025V-8.4c-.243-.027-.864-.054-1.674-.054-3.51,0-6.075,1.431-6.075,4.293C-9.585-1.107-7.236.27-4.293.27A13.132,13.132,0,0,0,1.323-.945c.054-.027.054-.054.054-.108-.054-.567-.054-1.107-.054-1.7Zm3.429-5.076c-.135,0-.162.027-.162.162.108.891.135,2.457.135,3.618V-.216c0,.135.054.216.243.216H7.776c.162,0,.243-.054.243-.216V-8.91a5.246,5.246,0,0,1,4.131-1.431c.189,0,.243-.054.243-.189v-2.862c0-.162-.054-.189-.216-.189a5.625,5.625,0,0,0-4.32,2.106,6.1,6.1,0,0,0-.27-1.62.268.268,0,0,0-.3-.216Zm18.9,10.53c0-.108-.054-.189-.189-.135a7.775,7.775,0,0,1-2.349.27c-2.079,0-4.212-1.134-4.212-4.077a3.835,3.835,0,0,1,4.185-4.05,6.347,6.347,0,0,1,2.322.351c.108.027.216.027.216-.162l.027-2.4c0-.162-.027-.243-.135-.3a7.755,7.755,0,0,0-2.538-.3c-4.455,0-7.425,2.97-7.425,6.966A6.567,6.567,0,0,0,20.52.27a8.224,8.224,0,0,0,3-.432c.108-.027.135-.081.135-.216ZM29.43-9.8a3.83,3.83,0,0,1,2.592-.945c1.566,0,2.349,1.026,2.349,2.835V-.243A.215.215,0,0,0,34.614,0h2.808c.135,0,.216-.054.216-.243V-8.235c0-4.32-2.457-5.346-4.509-5.346a5.92,5.92,0,0,0-3.7,1.242v-6.7c0-.135-.027-.189-.189-.189H26.379c-.162,0-.216.081-.216.189V-.216c0,.135.054.216.216.216h2.862c.162,0,.189-.054.189-.189Zm32.724,1.62c.162,0,.216-.027.243-.216l.4-2.43c.027-.135,0-.189-.189-.189H54.054c-1.134-.918-1.836-1.728-1.836-2.511,0-1.053.729-1.674,2.322-1.674a6,6,0,0,1,2.862.621c.108.081.216.027.216-.135v-2.457a.327.327,0,0,0-.162-.324,6.788,6.788,0,0,0-3.051-.54c-3.213,0-5.4,1.7-5.4,4.428a5.043,5.043,0,0,0,1.458,3.4,5.347,5.347,0,0,0-3.78,5.049C46.683-1.782,49.221.27,52.7.27a6.952,6.952,0,0,0,2.646-.4c.135-.054.189-.081.189-.27V-2.97c0-.135-.027-.189-.135-.162a5.3,5.3,0,0,1-2.133.378c-2.214,0-3.294-1.242-3.294-2.727A2.582,2.582,0,0,1,52.3-8.046c.621.27,2.565,2.3,4.482,5.13C58.59-.27,59.913.27,61.776.27a4.243,4.243,0,0,0,1.4-.189C63.369,0,63.4-.054,63.4-.27V-2.592c0-.162-.054-.189-.189-.189a4.958,4.958,0,0,1-.7.054c-1.242,0-2.052-.513-3.105-1.917a28.69,28.69,0,0,0-2.916-3.537ZM-75.195,32.757c0,.162.081.243.189.243.864.054,3.348.054,5.049.054,4.563,0,9.585-2.646,9.585-9.234,0-5.022-3.186-8.613-9.531-8.613-2.484,0-4.32.054-5.1.081-.162.027-.189.081-.189.216ZM-71.928,18.1c.648-.027,1.242-.054,2-.054,3.645,0,6.21,1.944,6.21,5.859,0,4.1-2.565,6.318-6.372,6.318-.7,0-1.3,0-1.836-.027Zm22.275,8.991a20.566,20.566,0,0,0,2.781-.108.232.232,0,0,0,.216-.189,8.172,8.172,0,0,0,.108-1.674c0-2.565-1.539-5.7-5.535-5.7-4.077,0-6.345,3.321-6.345,7.074,0,3.321,1.755,6.777,6.669,6.777a8.965,8.965,0,0,0,4.05-.783.286.286,0,0,0,.162-.3V29.949c0-.135-.081-.162-.162-.108a8.508,8.508,0,0,1-3.348.648c-2.754,0-4-1.512-4.077-3.4Zm-5.481-2.322a2.949,2.949,0,0,1,2.916-2.754,2.5,2.5,0,0,1,2.592,2.511v.216a13.233,13.233,0,0,1-1.485.027ZM-37.692,33a.272.272,0,0,0,.3-.189c.918-2.511,3.537-10.071,4.563-12.906.054-.162-.054-.216-.135-.216h-2.727c-.108,0-.189.027-.216.162-2.052,6.345-2.862,8.91-3.159,10.1h-.054c-.27-1.188-.972-3.78-2.916-10.1a.21.21,0,0,0-.243-.162H-45.36c-.162,0-.189.081-.162.189.945,2.7,3.564,10.368,4.455,12.96A.285.285,0,0,0-40.8,33Zm14.715-5.913a20.566,20.566,0,0,0,2.781-.108.232.232,0,0,0,.216-.189,8.172,8.172,0,0,0,.108-1.674c0-2.565-1.539-5.7-5.535-5.7-4.077,0-6.345,3.321-6.345,7.074,0,3.321,1.755,6.777,6.669,6.777a8.965,8.965,0,0,0,4.05-.783.286.286,0,0,0,.162-.3V29.949c0-.135-.081-.162-.162-.108a8.508,8.508,0,0,1-3.348.648c-2.754,0-4-1.512-4.077-3.4Zm-5.481-2.322a2.949,2.949,0,0,1,2.916-2.754,2.5,2.5,0,0,1,2.592,2.511v.216a13.233,13.233,0,0,1-1.485.027Zm11.016,5.022c0,2.835,1.4,3.483,3.132,3.483a3.937,3.937,0,0,0,1.539-.216c.135-.081.162-.108.162-.3V30.732c0-.135-.027-.189-.108-.162a3.443,3.443,0,0,1-.513.027c-.648,0-.945-.27-.945-1.107v-15.5c0-.135-.081-.216-.243-.216H-17.2c-.162,0-.243.081-.243.216ZM-4.563,19.419c-4.05,0-6.561,3.105-6.561,6.939,0,3.429,2,6.912,6.507,6.912,3.807,0,6.48-2.808,6.48-6.993C1.863,22.578-.4,19.419-4.563,19.419Zm-.162,2.727c2.295,0,3.267,1.971,3.267,4.212,0,2.781-1.431,4.158-3.1,4.158-2.052,0-3.267-1.728-3.267-4.212C-7.83,23.739-6.534,22.146-4.725,22.146ZM9.882,19.419A16.481,16.481,0,0,0,4.428,20.5a.126.126,0,0,0-.108.135c.054.378.081,1.269.081,1.593V38.4c0,.135.027.162.189.162.135,0,1.944-.162,2.889-.27.162-.027.189-.108.189-.216v-4.86a7.184,7.184,0,0,0,.81.054c4.077,0,8.073-2.43,8.073-7.371C16.551,22.443,14.337,19.419,9.882,19.419Zm-.3,2.781c2.3,0,3.618,1.458,3.618,3.915a4.188,4.188,0,0,1-4.455,4.4,4.621,4.621,0,0,1-1.08-.081V22.47A6.093,6.093,0,0,1,9.585,22.2ZM22.167,33c.162,0,.216-.054.216-.216V23.253a3.8,3.8,0,0,1,2.565-1c1.458,0,2.268.864,2.268,2.646v7.857c0,.189.081.243.243.243h2.808c.162,0,.189-.081.189-.216V24.927a12.353,12.353,0,0,0-.081-1.593,3.825,3.825,0,0,1,2.646-1.107c1.647,0,2.268,1.215,2.268,2.754v7.776c0,.162.054.243.243.243h2.781c.135,0,.243-.054.243-.216v-8.1c0-4.077-2.322-5.265-4.563-5.265A6.654,6.654,0,0,0,29.565,21.2a3.782,3.782,0,0,0-3.483-1.782,5.763,5.763,0,0,0-3.942,1.512,4.577,4.577,0,0,0-.162-1.08.257.257,0,0,0-.27-.162H19.224c-.162,0-.243.054-.216.189.054.513.108,1.62.108,2.673V32.757c0,.162.054.243.216.243ZM49.9,27.087a20.566,20.566,0,0,0,2.781-.108.232.232,0,0,0,.216-.189A8.172,8.172,0,0,0,53,25.116c0-2.565-1.539-5.7-5.535-5.7-4.077,0-6.345,3.321-6.345,7.074,0,3.321,1.755,6.777,6.669,6.777a8.965,8.965,0,0,0,4.05-.783.286.286,0,0,0,.162-.3V29.949c0-.135-.081-.162-.162-.108a8.508,8.508,0,0,1-3.348.648c-2.754,0-4-1.512-4.077-3.4Zm-5.481-2.322a2.949,2.949,0,0,1,2.916-2.754,2.5,2.5,0,0,1,2.592,2.511v.216a13.233,13.233,0,0,1-1.485.027Zm11.1,8.019c0,.135.054.216.216.216h2.835a.2.2,0,0,0,.216-.216V23.361A3.457,3.457,0,0,1,61.4,22.254c1.566,0,2.322,1.026,2.322,2.808v7.695a.215.215,0,0,0,.243.243h2.808c.135,0,.216-.054.216-.243V24.765c0-4.32-2.484-5.346-4.509-5.346A5.952,5.952,0,0,0,58.563,20.9a5.879,5.879,0,0,0-.189-1.026c-.054-.135-.135-.189-.324-.189H55.593c-.162,0-.189.054-.189.189.054.54.108,2,.108,2.916Zm21.168-2.16c0-.162-.081-.189-.162-.162a4.576,4.576,0,0,1-1.026.108c-1.161,0-1.539-.567-1.539-1.755v-6.4H76.6c.135,0,.189-.054.189-.189V19.878c0-.135-.054-.189-.189-.189H73.98c0-1.323.054-2.916.135-3.807,0-.135-.054-.162-.189-.135l-2.727.378a.26.26,0,0,0-.216.243,28.5,28.5,0,0,0-.27,3.321h-1.7c-.162,0-.216.054-.216.216v2.268c0,.162.054.216.189.243h1.7v7.1c0,2.673,1.323,3.753,3.537,3.753a6.207,6.207,0,0,0,2.3-.378c.135-.054.162-.162.162-.324Z" transform="translate(247 659.224)" fill="#212529"/>
    <g id="Group_597" data-name="Group 597" transform="translate(169 695)">
      <rect id="Rectangle_21" data-name="Rectangle 21" width="157" height="138" fill="none"/>
    </g>
    <g id="Group_599" data-name="Group 599" transform="translate(195.156 714.626)">
      <g id="Group_598" data-name="Group 598">
        <path id="Path_34" data-name="Path 34" d="M20.925,8.57a9.355,9.355,0,1,0,9.355,9.355A9.353,9.353,0,0,0,20.925,8.57Z" transform="translate(37.964 27.869)" fill="#fff"/>
        <path id="Path_35" data-name="Path 35" d="M62.887,3A45.671,45.671,0,0,0,17.225,46.439L4.664,63.186A3.269,3.269,0,0,0,7.281,68.42h9.813V88.045a13.122,13.122,0,0,0,13.084,13.084H36.72v19.626H82.513V90.139A45.775,45.775,0,0,0,62.887,3ZM82.513,48.794c0,.85-.065,1.7-.131,2.551l5.43,4.318a1.226,1.226,0,0,1,.327,1.635l-5.234,9.093a1.315,1.315,0,0,1-1.57.589l-6.477-2.617a19.658,19.658,0,0,1-4.383,2.551l-1.047,6.934a1.282,1.282,0,0,1-1.308,1.112H57.654a1.331,1.331,0,0,1-1.308-1.112l-.981-6.934a18.713,18.713,0,0,1-4.449-2.551L44.439,66.98a1.373,1.373,0,0,1-1.635-.589L37.57,57.3a1.24,1.24,0,0,1,.327-1.635l5.5-4.318c-.065-.85-.131-1.7-.131-2.551a16.047,16.047,0,0,1,.262-2.551l-5.561-4.318a1.3,1.3,0,0,1-.327-1.7L42.869,31.2a1.288,1.288,0,0,1,1.57-.589l6.542,2.617a20.769,20.769,0,0,1,4.383-2.551l.981-6.934a1.331,1.331,0,0,1,1.308-1.112H68.121a1.331,1.331,0,0,1,1.308,1.112l.981,6.934a19.658,19.658,0,0,1,4.383,2.551l6.542-2.617a1.262,1.262,0,0,1,1.57.589l5.234,9.028a1.31,1.31,0,0,1-.327,1.7l-5.561,4.318A10.54,10.54,0,0,1,82.513,48.794Z" transform="translate(-3.998 -3)" fill="#fff"/>
      </g>
    </g>
  </g>
</svg>
