<svg xmlns="http://www.w3.org/2000/svg" viewBox="0 0 108.219 97.5">
  <defs>
    <style>
      .cls-1, .cls-3 {
        fill: #fff;
      }

      .cls-1, .cls-2 {
        stroke: #fff;
      }

      .cls-1 {
        stroke-width: 4px;
      }

      .cls-2, .cls-5 {
        fill: none;
      }

      .cls-2 {
        stroke-width: 3px;
      }

      .cls-3 {
        stroke: rgba(0,0,0,0);
      }

      .cls-4 {
        stroke: none;
      }
    </style>
  </defs>
  <g id="IV" transform="translate(-799 -780)">
    <g id="Group_3110" data-name="Group 3110" transform="translate(294.463 -2398.901)">
      <g id="Group_1899" data-name="Group 1899" transform="translate(506.537 3180.902)">
        <path id="Path_1402" data-name="Path 1402" class="cls-1" d="M0,0H16.857V62.613H0Z"/>
        <path id="Path_1403" data-name="Path 1403" class="cls-1" d="M16051.918,15639h18.3l10.826,43.139,11.832-43.139h16.793l-18.643,60.578h-19.986Z" transform="translate(-16028.033 -15639.001)"/>
        <g id="Ellipse_353" data-name="Ellipse 353" class="cls-2" transform="translate(82.137 0)">
          <circle class="cls-4" cx="12.041" cy="12.041" r="12.041"/>
          <circle class="cls-5" cx="12.041" cy="12.041" r="10.541"/>
        </g>
        <path id="Path_2038" data-name="Path 2038" class="cls-3" d="M5.835-4.889H3V0H1.4V-12.086h4a4.736,4.736,0,0,1,3.142.93,3.345,3.345,0,0,1,1.1,2.706,3.254,3.254,0,0,1-.61,1.967,3.642,3.642,0,0,1-1.7,1.253L10.168-.1V0H8.458ZM3-6.192H5.445a2.765,2.765,0,0,0,1.888-.614,2.075,2.075,0,0,0,.7-1.644,2.185,2.185,0,0,0-.668-1.718,2.833,2.833,0,0,0-1.93-.606H3Z" transform="translate(88.763 17.688)"/>
      </g>
    </g>
    <path id="Path_5" data-name="Path 5" class="cls-3" d="M4.053,0H1.592V-14.219H4.053ZM12.1-3.1l3.613-11.123h2.715L13.311,0H10.918L5.82-14.219h2.7Z" transform="translate(845 877)"/>
  </g>
</svg>
