<svg xmlns="http://www.w3.org/2000/svg" width="120" height="120" viewBox="0 0 120 120">
  <g id="Group_5" data-name="Group 5" transform="translate(-768 -170)">
    <g id="Group_3" data-name="Group 3" transform="translate(222)">
      <g id="Ellipse_6" data-name="Ellipse 6" transform="translate(546 170)" fill="none" stroke="#0ef799" stroke-width="6">
        <circle cx="60" cy="60" r="60" stroke="none"/>
        <circle cx="60" cy="60" r="57" fill="none"/>
      </g>
    </g>
    <path id="Path_1" data-name="Path 1" d="M75.469-52.5H12.031A3.281,3.281,0,0,0,8.75-49.219v1.094H3.281A3.281,3.281,0,0,0,0-44.844V-7.656A7.656,7.656,0,0,0,7.656,0H72.187A6.562,6.562,0,0,0,78.75-6.562V-49.219A3.281,3.281,0,0,0,75.469-52.5ZM7.656-6.562A1.094,1.094,0,0,1,6.562-7.656V-41.562H8.75V-7.656A1.094,1.094,0,0,1,7.656-6.562ZM39.922-8.75H19.141A1.641,1.641,0,0,1,17.5-10.391v-1.094a1.641,1.641,0,0,1,1.641-1.641H39.922a1.641,1.641,0,0,1,1.641,1.641v1.094A1.641,1.641,0,0,1,39.922-8.75Zm28.437,0H47.578a1.641,1.641,0,0,1-1.641-1.641v-1.094a1.641,1.641,0,0,1,1.641-1.641H68.359A1.641,1.641,0,0,1,70-11.484v1.094A1.641,1.641,0,0,1,68.359-8.75ZM39.922-21.875H19.141A1.641,1.641,0,0,1,17.5-23.516v-1.094a1.641,1.641,0,0,1,1.641-1.641H39.922a1.641,1.641,0,0,1,1.641,1.641v1.094A1.641,1.641,0,0,1,39.922-21.875Zm28.437,0H47.578a1.641,1.641,0,0,1-1.641-1.641v-1.094a1.641,1.641,0,0,1,1.641-1.641H68.359A1.641,1.641,0,0,1,70-24.609v1.094A1.641,1.641,0,0,1,68.359-21.875Zm0-13.125H19.141A1.641,1.641,0,0,1,17.5-36.641v-5.469a1.641,1.641,0,0,1,1.641-1.641H68.359A1.641,1.641,0,0,1,70-42.109v5.469A1.641,1.641,0,0,1,68.359-35Z" transform="translate(789 256)" fill="#fff"/>
  </g>
</svg>
