<svg xmlns="http://www.w3.org/2000/svg" viewBox="0 0 89.584 103.5">
  <defs>
    <style>
      .cls-1, .cls-2 {
        fill: #fff;
      }

      .cls-2 {
        stroke: rgba(0,0,0,0);
      }
    </style>
  </defs>
  <g id="PTR" transform="translate(-1117 -774)">
    <g id="ptr-icon-no-text" transform="translate(1117 774)">
      <g id="Group_1896" data-name="Group 1896">
        <path id="Path_1399" data-name="Path 1399" class="cls-1" d="M22.4,123.978h3.2V53.6H22.4Zm19.189,0H44.8V53.6H41.585Zm-12.793,0h9.6V53.6H28.8v70.378Zm-12.793,0H19.21V53.6H16Zm-16,0H3.2V53.6H0Zm6.4,0h6.4V53.6H6.4Zm64,0h3.2V53.6H70.4Zm-22.4,0h6.4V53.6H48Zm28.792,0h6.4V53.6h-6.4ZM86.377,53.6V124h3.207V53.6Zm-22.4,70.378h3.207V53.6h-3.2Zm-6.4,0h3.207V53.6h-3.2Z" transform="translate(0 -53.6)"/>
      </g>
    </g>
    <path id="Path_7" data-name="Path 7" class="cls-2" d="M3.916-5.283V0H1.445V-14.219h5.44a5.5,5.5,0,0,1,3.784,1.24A4.168,4.168,0,0,1,12.07-9.7,4.03,4.03,0,0,1,10.7-6.445,5.771,5.771,0,0,1,6.855-5.283Zm0-1.982H6.885A2.924,2.924,0,0,0,8.9-7.886a2.279,2.279,0,0,0,.69-1.792,2.459,2.459,0,0,0-.7-1.841,2.71,2.71,0,0,0-1.934-.708H3.916ZM24.5-12.227H20.068V0H17.617V-12.227H13.223v-1.992H24.5Zm7.09,6.748H28.838V0H26.367V-14.219h5a5.82,5.82,0,0,1,3.8,1.1,3.9,3.9,0,0,1,1.333,3.2,4,4,0,0,1-.688,2.388A4.38,4.38,0,0,1,33.9-6.055L37.09-.127V0H34.443ZM28.838-7.461h2.539a2.824,2.824,0,0,0,1.953-.63,2.2,2.2,0,0,0,.7-1.724,2.338,2.338,0,0,0-.649-1.768,2.759,2.759,0,0,0-1.938-.645H28.838Z" transform="translate(1143 877)"/>
  </g>
</svg>
