<svg xmlns="http://www.w3.org/2000/svg" width="120" height="120" viewBox="0 0 120 120">
  <g id="Group_4" data-name="Group 4" transform="translate(-546 -170)">
    <g id="Group_2" data-name="Group 2">
      <g id="Ellipse_6" data-name="Ellipse 6" transform="translate(546 170)" fill="none" stroke="#0ef799" stroke-width="6">
        <circle cx="60" cy="60" r="60" stroke="none"/>
        <circle cx="60" cy="60" r="57" fill="none"/>
      </g>
    </g>
    <path id="Path_2" data-name="Path 2" d="M78.274-28.246C70.86-42.712,56.182-52.5,39.375-52.5S7.886-42.705.476-28.245a5.246,5.246,0,0,0-.476,2,5.246,5.246,0,0,0,.476,2C7.89-9.788,22.568,0,39.375,0s31.489-9.794,38.9-24.255a5.246,5.246,0,0,0,.476-2A5.246,5.246,0,0,0,78.274-28.246ZM39.375-6.562A19.7,19.7,0,0,1,19.687-26.25,19.7,19.7,0,0,1,39.375-45.937,19.7,19.7,0,0,1,59.062-26.25v.01A19.685,19.685,0,0,1,39.385-6.562Zm0-32.812a15.646,15.646,0,0,0-3.46.518,7.646,7.646,0,0,1,1.273,3.877,6.544,6.544,0,0,1-6.542,6.542,7.646,7.646,0,0,1-3.877-1.273,15.719,15.719,0,0,0-.457,3.43A13.1,13.1,0,0,0,39.406-13.185,13.1,13.1,0,0,0,52.5-26.28,13.1,13.1,0,0,0,39.406-39.375Z" transform="translate(567 256)" fill="#fff"/>
  </g>
</svg>
