<svg xmlns="http://www.w3.org/2000/svg" viewBox="0 0 84.974 85.967">
  <defs>
    <style>
      .cls-1 {
        fill: #fff;
      }
    </style>
  </defs>
  <path id="servaa-icon-no-text" class="cls-1" d="M19.728,57.791a3.45,3.45,0,0,1,0-4.872L39.75,32.9a3.454,3.454,0,0,1,2.45-1.016A3.385,3.385,0,0,1,44.621,32.9L57.447,45.706,77.692,25.444a3.445,3.445,0,0,1,4.872,4.872L59.874,53.022a3.518,3.518,0,0,1-2.427,1.016,3.385,3.385,0,0,1-2.427-1.016L42.211,40.214,24.6,57.791a3.431,3.431,0,0,1-2.427,1.016,3.514,3.514,0,0,1-2.445-1.016Zm61.8,10.553H15.476V3.443a3.452,3.452,0,0,0-6.9,0V71.787a3.442,3.442,0,0,0,3.443,3.443H81.531a3.443,3.443,0,1,0,0-6.886ZM6.989,2.582H1.205a1.205,1.205,0,1,0,0,2.41H6.989a1.205,1.205,0,1,0,0-2.41Zm0,16.991H1.205a1.2,1.2,0,0,0,0,2.41H6.989a1.2,1.2,0,1,0,0-2.41Zm0,17.008H1.205a1.2,1.2,0,1,0,0,2.41H6.989a1.205,1.205,0,0,0,0-2.41Zm0,16.991H1.205a1.2,1.2,0,1,0,0,2.41H6.989a1.205,1.205,0,0,0,0-2.41Zm0,17.008H1.205a1.205,1.205,0,0,0,0,2.41H6.989a1.205,1.205,0,0,0,0-2.41Zm5.836,7.3a1.209,1.209,0,0,0-1.2,1.2v5.79a1.2,1.2,0,1,0,2.41,0V79.086a1.177,1.177,0,0,0-1.2-1.2Zm17.008,0a1.209,1.209,0,0,0-1.205,1.2v5.79a1.2,1.2,0,1,0,2.41,0V79.086a1.2,1.2,0,0,0-1.2-1.205Zm16.991,0a1.2,1.2,0,0,0-1.2,1.2v5.79a1.2,1.2,0,1,0,2.41,0V79.086a1.2,1.2,0,0,0-1.2-1.205Zm17.008,0a1.2,1.2,0,0,0-1.2,1.2v5.79a1.2,1.2,0,1,0,2.41,0V79.086a1.2,1.2,0,0,0-1.2-1.205Zm17.008,0a1.2,1.2,0,0,0-1.2,1.2v5.79a1.205,1.205,0,0,0,2.41,0V79.086a1.209,1.209,0,0,0-1.2-1.205Z" transform="translate(0 -0.108)"/>
</svg>
