<svg xmlns="http://www.w3.org/2000/svg" viewBox="0 0 84.974 118.709">
  <defs>
    <style>
      .cls-1, .cls-2 {
        fill: #fff;
      }

      .cls-2 {
        stroke: rgba(0,0,0,0);
      }
    </style>
  </defs>
  <g id="SERVAA" transform="translate(-1261 -759)">
    <path id="servaa-icon-no-text" class="cls-1" d="M19.728,57.791a3.45,3.45,0,0,1,0-4.872L39.75,32.9a3.454,3.454,0,0,1,2.45-1.016A3.385,3.385,0,0,1,44.621,32.9L57.447,45.706,77.692,25.444a3.445,3.445,0,0,1,4.872,4.872L59.874,53.022a3.518,3.518,0,0,1-2.427,1.016,3.385,3.385,0,0,1-2.427-1.016L42.211,40.214,24.6,57.791a3.431,3.431,0,0,1-2.427,1.016,3.514,3.514,0,0,1-2.445-1.016Zm61.8,10.553H15.476V3.443a3.452,3.452,0,0,0-6.9,0V71.787a3.442,3.442,0,0,0,3.443,3.443H81.531a3.443,3.443,0,1,0,0-6.886ZM6.989,2.582H1.205a1.205,1.205,0,1,0,0,2.41H6.989a1.205,1.205,0,1,0,0-2.41Zm0,16.991H1.205a1.2,1.2,0,0,0,0,2.41H6.989a1.2,1.2,0,1,0,0-2.41Zm0,17.008H1.205a1.205,1.205,0,0,0,0,2.41H6.989a1.205,1.205,0,0,0,0-2.41Zm0,16.991H1.205a1.205,1.205,0,0,0,0,2.41H6.989a1.205,1.205,0,0,0,0-2.41Zm0,17.008H1.205a1.205,1.205,0,0,0,0,2.41H6.989a1.205,1.205,0,0,0,0-2.41Zm5.836,7.3a1.209,1.209,0,0,0-1.2,1.2v5.79a1.2,1.2,0,1,0,2.41,0V79.086a1.177,1.177,0,0,0-1.2-1.2Zm17.008,0a1.209,1.209,0,0,0-1.205,1.2v5.79a1.205,1.205,0,1,0,2.41,0V79.086a1.2,1.2,0,0,0-1.2-1.205Zm16.991,0a1.2,1.2,0,0,0-1.2,1.2v5.79a1.2,1.2,0,1,0,2.41,0V79.086a1.2,1.2,0,0,0-1.2-1.205Zm17.008,0a1.2,1.2,0,0,0-1.2,1.2v5.79a1.205,1.205,0,1,0,2.41,0V79.086a1.2,1.2,0,0,0-1.2-1.205Zm17.008,0a1.2,1.2,0,0,0-1.2,1.2v5.79a1.205,1.205,0,0,0,2.41,0V79.086a1.209,1.209,0,0,0-1.2-1.205Z" transform="translate(1261 758.891)"/>
    <path id="Path_8" data-name="Path 8" class="cls-2" d="M8.877-3.662a1.717,1.717,0,0,0-.659-1.445A7.931,7.931,0,0,0,5.84-6.133,11.483,11.483,0,0,1,3.105-7.285a3.649,3.649,0,0,1-1.943-3.184,3.465,3.465,0,0,1,1.4-2.832A5.672,5.672,0,0,1,6.2-14.414a6.145,6.145,0,0,1,2.646.547,4.344,4.344,0,0,1,1.826,1.558,4,4,0,0,1,.664,2.241H8.877a2.228,2.228,0,0,0-.7-1.743,2.882,2.882,0,0,0-2-.63,3.01,3.01,0,0,0-1.88.518,1.723,1.723,0,0,0-.669,1.445,1.559,1.559,0,0,0,.723,1.3A8.325,8.325,0,0,0,6.738-8.159,10.961,10.961,0,0,1,9.4-7.036a4.241,4.241,0,0,1,1.475,1.445,3.764,3.764,0,0,1,.469,1.909A3.384,3.384,0,0,1,9.985-.854,5.909,5.909,0,0,1,6.289.2,6.946,6.946,0,0,1,3.452-.376,4.766,4.766,0,0,1,1.44-1.953,3.93,3.93,0,0,1,.723-4.3h2.47a2.3,2.3,0,0,0,.8,1.875,3.507,3.507,0,0,0,2.3.664,3.047,3.047,0,0,0,1.94-.519,1.686,1.686,0,0,0,.649-1.382ZM21.826-6.348h-5.84v4.375h6.826V0h-9.3V-14.219h9.229v1.992H15.986V-8.3h5.84Zm8.223.869H27.3V0H24.824V-14.219h5a5.82,5.82,0,0,1,3.8,1.1,3.9,3.9,0,0,1,1.338,3.193,4,4,0,0,1-.688,2.388,4.38,4.38,0,0,1-1.919,1.479L35.547-.127V0H32.9ZM27.3-7.461h2.539a2.824,2.824,0,0,0,1.953-.63,2.2,2.2,0,0,0,.7-1.724,2.338,2.338,0,0,0-.649-1.768,2.759,2.759,0,0,0-1.938-.645H27.3ZM42.129-3.1l3.613-11.123h2.715L43.34,0H40.947l-5.1-14.219h2.705Zm15.156-.215H51.777L50.625,0H48.057l5.371-14.219h2.217L61.025,0H58.447ZM52.471-5.3h4.121l-2.061-5.9ZM70.6-3.311H65.088L63.936,0H61.367l5.371-14.219h2.217L74.336,0H71.758ZM65.781-5.3H69.9l-2.061-5.9Z" transform="translate(1266 877)"/>
  </g>
</svg>
