<svg xmlns="http://www.w3.org/2000/svg" width="120" height="120" viewBox="0 0 120 120">
  <g id="Group_17" data-name="Group 17" transform="translate(-951 -462)">
    <g id="Ellipse_6" data-name="Ellipse 6" transform="translate(951 462)" fill="none" stroke="#0ef799" stroke-width="6">
      <circle cx="60" cy="60" r="60" stroke="none"/>
      <circle cx="60" cy="60" r="57" fill="none"/>
    </g>
    <path id="Path_5" data-name="Path 5" d="M68.359-8.75H8.75V-50.859A1.646,1.646,0,0,0,7.109-52.5H1.641A1.646,1.646,0,0,0,0-50.859V-1.641A1.646,1.646,0,0,0,1.641,0H68.359A1.646,1.646,0,0,0,70-1.641V-7.109A1.646,1.646,0,0,0,68.359-8.75Zm-17.4-30.693-11.58,7.725L27.713-47.264a1.644,1.644,0,0,0-2.721.137L13.125-27.344v14.219h52.5L53.334-38.8A1.641,1.641,0,0,0,50.955-39.443Z" transform="translate(976 548)" fill="#fff"/>
  </g>
</svg>
