<svg xmlns="http://www.w3.org/2000/svg" width="120" height="120" viewBox="0 0 120 120">
  <g id="Group_9" data-name="Group 9" transform="translate(-900 -480)">
    <g id="sv-web-icon-no-text" transform="translate(155 -2500.725)">
      <g id="ic_settings_cell_black_24px" transform="translate(770 3014.107)">
        <path id="Path_2077" data-name="Path 2077" d="M35.229.029,11.846,0A5.863,5.863,0,0,0,6,5.846V52.612a5.863,5.863,0,0,0,5.846,5.846H35.229a5.863,5.863,0,0,0,5.846-5.846V5.846A5.838,5.838,0,0,0,35.229.029Zm0,46.737H11.846V11.692H35.229Z" transform="translate(11.537)" fill="#fff"/>
        <path id="Path_2078" data-name="Path 2078" d="M0,0H70.149V70.149H0Z" fill="none"/>
        <rect id="Rectangle_1492" data-name="Rectangle 1492" width="14.827" height="6.243" rx="3.121" transform="translate(27.312 49.162)" fill="#0f4194"/>
      </g>
      <path id="Path_2079" data-name="Path 2079" d="M-8726-8282.176a9.525,9.525,0,0,1,5.755-2.1,10.467,10.467,0,0,1,6.246,2.1" transform="translate(9524.872 11292.706)" fill="none" stroke="#fff" stroke-width="3"/>
      <path id="Path_2080" data-name="Path 2080" d="M-8726-8278.813a21.51,21.51,0,0,1,13.613-5.454c4.1-.111,9.219,1.191,14.778,5.454" transform="translate(9517.068 11287.242)" fill="none" stroke="#fff" stroke-width="3"/>
      <path id="Path_2081" data-name="Path 2081" d="M-8726-8276.081a30.29,30.29,0,0,1,19.539-8.184c5.878-.17,13.229,1.79,21.2,8.184" transform="translate(9510.826 11280.999)" fill="none" stroke="#fff" stroke-width="3"/>
    </g>
    <g id="Ellipse_6" data-name="Ellipse 6" transform="translate(900 480)" fill="none" stroke="#0ef799" stroke-width="6">
      <circle cx="60" cy="60" r="60" stroke="none"/>
      <circle cx="60" cy="60" r="57" fill="none"/>
    </g>
  </g>
</svg>
