<svg xmlns="http://www.w3.org/2000/svg" viewBox="0 0 82.715 138.209">
  <defs>
    <style>
      .cls-1, .cls-5 {
        fill: #fff;
      }

      .cls-2, .cls-4 {
        fill: none;
      }

      .cls-3 {
        fill: #0f4194;
      }

      .cls-4 {
        stroke: #fff;
        stroke-width: 3px;
      }

      .cls-5 {
        stroke: rgba(0,0,0,0);
      }
    </style>
  </defs>
  <g id="SV-WEB" transform="translate(-1525 -739.5)">
    <g id="sv-web-icon-no-text" transform="translate(755 -2255.724)">
      <g id="ic_settings_cell_black_24px" transform="translate(770 3017.221)">
        <path id="Path_2077" data-name="Path 2077" class="cls-1" d="M40.465.034,12.893,0A6.913,6.913,0,0,0,6,6.893V62.036a6.913,6.913,0,0,0,6.893,6.893H40.465a6.913,6.913,0,0,0,6.893-6.893V6.893A6.884,6.884,0,0,0,40.465.034Zm0,55.109H12.893V13.786H40.465Z" transform="translate(14.679)"/>
        <path id="Path_2078" data-name="Path 2078" class="cls-2" d="M0,0H82.715V82.715H0Z"/>
        <rect id="Rectangle_1492" data-name="Rectangle 1492" class="cls-3" width="17.483" height="7.361" rx="3.681" transform="translate(32.205 57.969)"/>
      </g>
      <path id="Path_2079" data-name="Path 2079" class="cls-4" d="M-8726-8281.8a11.235,11.235,0,0,1,6.787-2.476,12.341,12.341,0,0,1,7.364,2.476" transform="translate(9530.044 11294.803)"/>
      <path id="Path_2080" data-name="Path 2080" class="cls-4" d="M-8726-8277.835a25.362,25.362,0,0,1,16.052-6.432c4.83-.131,10.87,1.405,17.426,6.432" transform="translate(9520.843 11288.36)"/>
      <path id="Path_2081" data-name="Path 2081" class="cls-4" d="M-8726-8274.613a35.715,35.715,0,0,1,23.039-9.649c6.932-.2,15.6,2.11,25,9.649" transform="translate(9513.482 11280.999)"/>
    </g>
    <path id="Path_10" data-name="Path 10" class="cls-5" d="M8.877-3.662a1.717,1.717,0,0,0-.659-1.445A7.931,7.931,0,0,0,5.84-6.133,11.483,11.483,0,0,1,3.105-7.285a3.649,3.649,0,0,1-1.943-3.184,3.465,3.465,0,0,1,1.4-2.832A5.672,5.672,0,0,1,6.2-14.414a6.145,6.145,0,0,1,2.646.547,4.344,4.344,0,0,1,1.826,1.558,4,4,0,0,1,.664,2.241H8.877a2.228,2.228,0,0,0-.7-1.743,2.882,2.882,0,0,0-2-.63,3.01,3.01,0,0,0-1.88.518,1.723,1.723,0,0,0-.669,1.445,1.559,1.559,0,0,0,.723,1.3A8.325,8.325,0,0,0,6.738-8.159,10.961,10.961,0,0,1,9.4-7.036a4.241,4.241,0,0,1,1.475,1.445,3.764,3.764,0,0,1,.469,1.909A3.384,3.384,0,0,1,9.985-.854,5.909,5.909,0,0,1,6.289.2,6.946,6.946,0,0,1,3.452-.376,4.766,4.766,0,0,1,1.44-1.953,3.93,3.93,0,0,1,.723-4.3h2.47a2.3,2.3,0,0,0,.8,1.875,3.507,3.507,0,0,0,2.3.664,3.047,3.047,0,0,0,1.94-.519,1.686,1.686,0,0,0,.649-1.382Zm9.648.566,3.613-11.123h2.715L19.736,0H17.344l-5.1-14.219h2.7ZM29.3-5.088H24.17V-7H29.3ZM42.64-3.516l2.188-10.7h2.451L43.994,0H41.631L38.926-10.381,36.162,0H33.789L30.508-14.219h2.451L35.166-3.535l2.715-10.684h2.07ZM57.393-6.348h-5.84v4.375h6.826V0h-9.3V-14.219h9.229v1.992H51.553V-8.3h5.84Zm3,6.348V-14.219h4.873a5.949,5.949,0,0,1,3.672.967,3.4,3.4,0,0,1,1.26,2.881,3.07,3.07,0,0,1-.527,1.758A3.394,3.394,0,0,1,68.125-7.4a3.138,3.138,0,0,1,1.782,1.177,3.427,3.427,0,0,1,.63,2.075,3.785,3.785,0,0,1-1.284,3.076A5.584,5.584,0,0,1,65.576,0Zm2.471-6.416v4.443h2.744a2.656,2.656,0,0,0,1.816-.576,2.022,2.022,0,0,0,.654-1.6A2.029,2.029,0,0,0,67.5-5.837a2.029,2.029,0,0,0-1.688-.578Zm0-1.816h2.422a2.8,2.8,0,0,0,1.8-.522,1.79,1.79,0,0,0,.649-1.479,1.815,1.815,0,0,0-.6-1.523,3.033,3.033,0,0,0-1.87-.469h-2.4Z" transform="translate(1530 877)"/>
  </g>
</svg>
