<svg xmlns="http://www.w3.org/2000/svg" viewBox="0 0 104 104">
  <defs>
    <style>
      .cls-1 {
        fill: #fcfcfc;
      }

      .cls-2 {
        fill: #fff;
      }
    </style>
  </defs>
  <g id="Group_3025" data-name="Group 3025" transform="translate(-1658 -3212)">
    <path id="Path_15" data-name="Path 15" class="cls-1" d="M17.141,0H1.547V-3.094l7.359-7.844a18.156,18.156,0,0,0,2.242-2.891,4.644,4.644,0,0,0,.727-2.344,3.475,3.475,0,0,0-.766-2.383,2.764,2.764,0,0,0-2.187-.867,2.981,2.981,0,0,0-2.414,1.055A4.178,4.178,0,0,0,5.625-15.6H1.094a7.458,7.458,0,0,1,.992-3.8,6.993,6.993,0,0,1,2.8-2.7A8.525,8.525,0,0,1,9-23.062a8.072,8.072,0,0,1,5.461,1.688,5.97,5.97,0,0,1,1.945,4.766,7.649,7.649,0,0,1-.875,3.438,19.1,19.1,0,0,1-3,4.078L7.359-3.641H17.14ZM33.266-8.562h2.578v3.641H33.266V0H28.75V-4.922H19.422l-.2-2.844L28.7-22.75h4.563Zm-9.547,0H28.75v-8.031l-.3.516Z" transform="translate(1692 3277)"/>
    <g id="Clock" transform="translate(1641.378 3195.414)">
      <g id="_x32_9-interface_-_clock_time_1_" transform="translate(16.622 16.586)">
        <g id="Group_3024" data-name="Group 3024">
          <path id="Path_14" data-name="Path 14" class="cls-2" d="M44.355,68.585a3.466,3.466,0,0,0-3.467-3.466H33.955a3.466,3.466,0,0,0,0,6.932h6.933a3.466,3.466,0,0,0,3.467-3.466Zm2.2,17.161-4.9,4.906a3.465,3.465,0,1,0,4.9,4.9l4.9-4.9a3.466,3.466,0,1,0-4.9-4.9ZM90.679,51.428l4.9-4.9a3.465,3.465,0,1,0-4.9-4.9l-4.9,4.9a3.465,3.465,0,1,0,4.9,4.9ZM68.622,16.586a52,52,0,1,0,52,52,52,52,0,0,0-52-52Zm0,97.074a45.072,45.072,0,1,1,45.067-45.071A45.073,45.073,0,0,1,68.622,113.66ZM46.558,41.623a3.467,3.467,0,1,0-4.9,4.9l4.9,4.9a3.467,3.467,0,1,0,4.9-4.9ZM68.622,92.856a3.464,3.464,0,0,0-3.467,3.464v6.934a3.467,3.467,0,1,0,6.934,0V96.32a3.464,3.464,0,0,0-3.466-3.464Zm34.667-27.737H96.355a3.466,3.466,0,0,0,0,6.932h6.934a3.466,3.466,0,1,0,0-6.932ZM90.681,85.746a3.468,3.468,0,0,0-4.9,4.906l4.9,4.9a3.466,3.466,0,1,0,4.9-4.9Zm-22.059-55.3a3.467,3.467,0,0,0-3.467,3.469v6.93a3.467,3.467,0,1,0,6.934,0V33.921A3.467,3.467,0,0,0,68.622,30.451Z" transform="translate(-16.622 -16.586)"/>
        </g>
      </g>
    </g>
  </g>
</svg>
