<svg xmlns="http://www.w3.org/2000/svg" width="120" height="120" viewBox="0 0 120 120">
  <g id="Group_11" data-name="Group 11" transform="translate(-900 -480)">
    <g id="Group_3025" data-name="Group 3025" transform="translate(-738 -2712)">
      <path id="Path_15" data-name="Path 15" d="M13.476-5.271H1.443V-7.658l5.678-6.052a14.009,14.009,0,0,0,1.73-2.231,3.583,3.583,0,0,0,.561-1.809,2.681,2.681,0,0,0-.591-1.839,2.133,2.133,0,0,0-1.687-.669,2.3,2.3,0,0,0-1.863.814,3.224,3.224,0,0,0-.681,2.136h-3.5a5.755,5.755,0,0,1,.765-2.932,5.4,5.4,0,0,1,2.16-2.083,6.578,6.578,0,0,1,3.174-.742,6.228,6.228,0,0,1,4.214,1.3,4.606,4.606,0,0,1,1.5,3.677,5.9,5.9,0,0,1-.675,2.653,14.737,14.737,0,0,1-2.315,3.147L5.928-8.08h7.547Zm12.442-6.606h1.989v2.809H25.918v3.8H22.433v-3.8h-7.2l-.154-2.194,7.313-11.562h3.521Zm-7.366,0h3.882v-6.2l-.231.4Z" transform="translate(1683.984 3267.425)" fill="#fcfcfc"/>
      <g id="Clock" transform="translate(1658 3212)">
        <g id="_x32_9-interface_-_clock_time_1_" transform="translate(0 0)">
          <g id="Group_3024" data-name="Group 3024" transform="translate(0 0)">
            <path id="Path_14" data-name="Path 14" d="M38.021,56.708a2.674,2.674,0,0,0-2.675-2.674H30a2.674,2.674,0,0,0,0,5.349h5.349a2.674,2.674,0,0,0,2.675-2.674Zm1.7,13.241-3.781,3.785a2.674,2.674,0,1,0,3.781,3.781L43.5,73.735a2.674,2.674,0,1,0-3.781-3.781ZM73.764,43.47l3.781-3.781a2.674,2.674,0,1,0-3.781-3.781l-3.781,3.781a2.674,2.674,0,1,0,3.781,3.781ZM56.745,16.586A40.123,40.123,0,1,0,96.868,56.709,40.123,40.123,0,0,0,56.745,16.586Zm0,74.9A34.777,34.777,0,1,1,91.518,56.712,34.778,34.778,0,0,1,56.745,91.488ZM39.72,35.9a2.675,2.675,0,1,0-3.781,3.781l3.781,3.781A2.675,2.675,0,1,0,43.5,39.685ZM56.745,75.435a2.673,2.673,0,0,0-2.675,2.673v5.35a2.675,2.675,0,1,0,5.35,0v-5.35a2.673,2.673,0,0,0-2.674-2.673Zm26.749-21.4h-5.35a2.674,2.674,0,0,0,0,5.349h5.35a2.674,2.674,0,1,0,0-5.349ZM73.765,69.949a2.676,2.676,0,0,0-3.781,3.785l3.781,3.781a2.674,2.674,0,1,0,3.781-3.781ZM56.745,27.28a2.675,2.675,0,0,0-2.675,2.677V35.3a2.675,2.675,0,1,0,5.35,0V29.962a2.675,2.675,0,0,0-2.675-2.677Z" transform="translate(-16.622 -16.586)" fill="#fff"/>
          </g>
        </g>
      </g>
    </g>
    <g id="Ellipse_6" data-name="Ellipse 6" transform="translate(900 480)" fill="none" stroke="#0ef799" stroke-width="6">
      <circle cx="60" cy="60" r="60" stroke="none"/>
      <circle cx="60" cy="60" r="57" fill="none"/>
    </g>
  </g>
</svg>
