<svg xmlns="http://www.w3.org/2000/svg" viewBox="0 0 104 132.5">
  <defs>
    <style>
      .cls-1, .cls-3 {
        fill: #fff;
      }

      .cls-1 {
        stroke: rgba(0,0,0,0);
      }

      .cls-2 {
        fill: #fcfcfc;
      }
    </style>
  </defs>
  <g id="Group_3030" data-name="Group 3030" transform="translate(-1576 -3068)">
    <path id="Path_11" data-name="Path 11" class="cls-1" d="M6.455-3.1l3.613-11.123h2.715L7.666,0H5.273L.176-14.219H2.881Zm15.156-.215H16.1L14.951,0H12.383l5.371-14.219h2.217L25.352,0H22.773ZM16.8-5.3h4.121L18.86-11.2Zm12.637.02V0H26.963V-14.219H32.4a5.5,5.5,0,0,1,3.784,1.24,4.168,4.168,0,0,1,1.4,3.281,4.03,4.03,0,0,1-1.372,3.252,5.771,5.771,0,0,1-3.843,1.162Zm0-1.982H32.4a2.924,2.924,0,0,0,2.012-.62A2.279,2.279,0,0,0,35.1-9.674a2.459,2.459,0,0,0-.7-1.841,2.71,2.71,0,0,0-1.934-.708H29.434Z" transform="translate(1609 3200)"/>
    <g id="Group_3025" data-name="Group 3025" transform="translate(-82 -144)">
      <path id="Path_15" data-name="Path 15" class="cls-2" d="M17.141,0H1.547V-3.094l7.359-7.844a18.156,18.156,0,0,0,2.242-2.891,4.644,4.644,0,0,0,.727-2.344,3.475,3.475,0,0,0-.766-2.383,2.764,2.764,0,0,0-2.187-.867,2.981,2.981,0,0,0-2.414,1.055,4.178,4.178,0,0,0-.883,2.773H1.094a7.458,7.458,0,0,1,.992-3.8,6.993,6.993,0,0,1,2.8-2.7A8.525,8.525,0,0,1,9-23.062a8.072,8.072,0,0,1,5.461,1.688,5.97,5.97,0,0,1,1.945,4.766,7.649,7.649,0,0,1-.875,3.438,19.1,19.1,0,0,1-3,4.078L7.359-3.641h9.781ZM33.266-8.562h2.578v3.641H33.266V0H28.75V-4.922H19.422l-.2-2.844L28.7-22.75h4.563Zm-9.547,0H28.75v-8.031l-.3.516Z" transform="translate(1692 3277)"/>
      <g id="Clock" transform="translate(1641.378 3195.414)">
        <g id="_x32_9-interface_-_clock_time_1_" transform="translate(16.622 16.586)">
          <g id="Group_3024" data-name="Group 3024" transform="translate(0 0)">
            <path id="Path_14" data-name="Path 14" class="cls-3" d="M44.355,68.585a3.466,3.466,0,0,0-3.467-3.466H33.955a3.466,3.466,0,1,0,0,6.932h6.933A3.466,3.466,0,0,0,44.355,68.585Zm2.2,17.161-4.9,4.906a3.465,3.465,0,1,0,4.9,4.9l4.9-4.9a3.466,3.466,0,1,0-4.9-4.9ZM90.679,51.428l4.9-4.9a3.465,3.465,0,1,0-4.9-4.9l-4.9,4.9a3.465,3.465,0,1,0,4.9,4.9ZM68.622,16.586a52,52,0,1,0,52,52A52,52,0,0,0,68.622,16.586Zm0,97.074a45.072,45.072,0,1,1,45.067-45.074A45.074,45.074,0,0,1,68.622,113.66ZM46.558,41.623a3.467,3.467,0,1,0-4.9,4.9l4.9,4.9a3.467,3.467,0,1,0,4.9-4.9ZM68.622,92.856a3.464,3.464,0,0,0-3.467,3.464v6.934a3.467,3.467,0,0,0,6.933,0V96.32A3.464,3.464,0,0,0,68.622,92.856Zm34.667-27.737H96.355a3.466,3.466,0,1,0,0,6.932h6.934a3.466,3.466,0,1,0,0-6.932ZM90.681,85.746a3.468,3.468,0,0,0-4.9,4.906l4.9,4.9a3.466,3.466,0,1,0,4.9-4.9ZM68.622,30.451a3.467,3.467,0,0,0-3.467,3.469V40.85a3.467,3.467,0,1,0,6.933,0V33.921A3.467,3.467,0,0,0,68.622,30.451Z" transform="translate(-16.622 -16.586)"/>
          </g>
        </g>
      </g>
    </g>
  </g>
</svg>
